<mxfile host="app.diagrams.net" modified="2024-05-15T02:14:09.562Z" agent="Mozilla/5.0 (Windows NT 10.0; Win64; x64) AppleWebKit/537.36 (KHTML, like Gecko) Chrome/124.0.0.0 Safari/537.36 Edg/124.0.0.0" etag="Yu2MnO2hfnqG_NN67G2e" version="24.4.0" type="device" pages="3">
  <diagram name="FlowOfData" id="8ekQs6zqMJ4VM45Jihob">
    <mxGraphModel dx="1002" dy="545" grid="1" gridSize="10" guides="1" tooltips="1" connect="1" arrows="1" fold="1" page="1" pageScale="1" pageWidth="1100" pageHeight="850" math="0" shadow="0">
      <root>
        <mxCell id="0" />
        <mxCell id="1" parent="0" />
        <mxCell id="-ysW1S-eQyqw77Rk8hqI-1" value="" style="shape=image;verticalLabelPosition=bottom;labelBackgroundColor=default;verticalAlign=top;aspect=fixed;imageAspect=0;image=data:image/png,iVBORw0KGgoAAAANSUhEUgAAANwAAAAyCAYAAAA3FLVzAAAVXXpUWHRSYXcgcHJvZmlsZSB0eXBlIGV4aWYAAHjarZppciQ3koX/xyn6CNjhOA4Wh1nfYI7f3wsmKVWp20wzPaTEJZkZAbg/fwuyHv+ff97nH3zUkOwptVsbrQU+yigjTX6w8PWx3q8xlPfr+3H252/x18efnD5/SDyU+Z6/fh3fjzuP83P8/D4+N4nfz/++0PcPcfJT/eMPc34eX78+vj4XTPb7hT4ryPHrzuF8XvC5UE6fFZWv3/dnRW1Y/2Vr33vmiV8P2R//l9xTqy32wteSQu9t8LOlUDr1PFro3Wm8F6pfBf154Pv376cm1pQ8xxz4mr8qmlPW/yVPvle+8teHJ37/0vlac3kLH2glS2Cl43OjGX6K+efa/FGj//Dxd7YVuMl1PflPXfv5/htufn76DTd5/gqbn65Z+zwl/9rW0H6+/9vHY/2+0Pcf8s/905/vbPvzU/r18Ri/Ifpdoz+1+95j9900u5ilUYv22dT3Ft+feN5SFd9XNT57aA+oNX7Q5+DTwgwbTJ2wmbTFzyMmuntjiSfOeKO/33fcLLEkT53vKe0n5fdBo0kjbaAQwQef8aaeRz7ZQMx+MVRy+llLfG873tvtaOE84USemiIXi7zk//z5/N0n3rvfEquWeb61Yl1JBWcVIdJ+feNpdCTeT1HrW+Dvz98/1NdMB+tbZmODM6zn6xKrxj/Ald9GZ55Y+f419bGfzwUoEbeuLCZmOhBazDU2VtRT6jFSSKNBk6UzjWnRgVhrOiwylZwbzWE6uDev6fF9aqrp62FYNZeHMW2Mq9GhSbNKqeCnFwNDs+Zaaq2t9mp11Nly0+S11pvoefbcS6+99d7t6aNPy1asWrNuZsPmSCND33Uwp8PGGHNy08mVJ6+ePGHOlVZeZdXVVl+2xrPmBj677Lrb7tv22POkkw8Dftrpx84406MDJS9evXl38+HzArWbb7n1ttufa3fc+dO1T1v/8vm/6Fr8dC29ndIT+0/XeLT370tE0UlVz+hYKpGGd7pGxwC2ehYslpLUOfUMPWIqamKRVc05UR2jg8Vjqjf+9O7TuSfN/5++Pd3evqX/tnOPWvc3O/fXvv27rh1x8H479jWGKmrITB9/d5vJeEKamw2OvfrtZYWSKMeGa0bpD0tsdZ1VTq8pmAfdfd0z4tidxaTFigMb6CePller5u3MTXFWKh32MtbX22M0MJ/l1G6WsxZsNylwYSO0asTCa3hVKyunDVneVeoecS0KDqHl5ZCfr/pQMI/bvNjmSeHMUs7wWj2HbsjvvHaqs3HaFG1uv7Yb9LrmGfiAxKrByb7Pks7229hdv/vmte99izX6vTamb6thtgU59+ydH7APa+R7Tsmj9lnPGOX6w2pOLB1FrnODnR2PmTT9xrnZwQ1H1U1lRJ4wvOwbO1qwIuzjXqL34TT3Gfc/r2Z6r4LJslkoMaBhX6Gl0HyVkR2sFPYberz2XLDshmgAJcC5T2d4+qX69bDu8V465r2ap+N1VRAVB3O6JqsPDZi6g39qZLfm1elP6amPi6h4pXyt5XSuwa09ninctsOqqHNB9EAH3eqT73f7svNMFpwziIN6M8AvvWnSaiw1JYOHM3hJuxmro3oMHjtP5bZ5S1mFEjaj1fUZu/Y4gXc5Kd1D6cDfpLQnt+HhsEaepw2C223JMVz4rmLzLiZ9e3CK4TAkDWtIvs22VYSYgX68OS3gcjTOWKB42prqVWE7bS02vk+bugp8QvssP+ucmdb0AS4HE4oGLSZ8tDCrpQ1nMX67J7gF19aBQDwhl7kKcK0L/4UdtOmPA9fUdmw17AzC7ilg/w5wXy99hjL6ilQzu4/qMCYAXTetdvKtjr+/KO+aTD+bqoOx70w8dgvExrPX2IdZ5po1McYDGBbUi/Gfo1Y48YCHaT6HwxCU4WEEfMFXggWF6eyJ/jPCxrAmWIEnrpRZ2IYlqb2HJgZb9HxZBDbJBqT5wOm6Kh6GKtyOwPbM4zWfk9lJ2cwC9Zyx3AxJT4A0aFjowIgqNuipUymo1mdVc0M7sOplMafnfPwwN4vZYzQKQAaTXCuqZGGyrsSGBJKFmjA/YWP9Uq0MacElwJ91YMloV1nzBth9hIL0J0gGzIaxZQdx9agFM8UCzztCd+2H8ey38nBDMppuFylBLbMXny2J8CELzNwtUPg8jQuwcyjUGnMK2/vGgcQneotSm5etmOhRoJ4Gw5Y7+s4scHL/sLEu+0wGQDRKQ+l5d8Ca2U4DIs9eM18r9BIsL6O2VjfYhA9z4rk1dIi05h07eEJCRk6gF2Z0OJWW91Hz3etBZQavZ8WoUz0Rs3PrKJnijsUvEPdlPJZqwWU0eqLKmA7tkSjdaWyUC5WxpGUrzYakx3Ph6jxund6QrbLF3RZRmdoDIo7KwHQk0tIy+CeheGKo8EeFSfDCLjdihYBcdBCdwLbTIu8HNN484ZGNuCxKOCPy2CBeHB1OAKYGrPe5KYkNZ/HRIYLKMqFqMLwh02KRUYTna7yMp7bX+4SLoD6qHmeHA0DxsPtgFyekUYbkEunBEMBCeonYHiKabi9WDGfCDXOlo1KpzrUM+yEYY4ceXEBT6sJq3IWNgZZvy3YQyEnHqHs9fOBkDF+hi9DwVNpujlc1KA7azSMwtHBODxgU9pXHKqKbykjd3A5X7HFhYRgnJq7JM22jITSrOp4G/5h98pf78FvAYRQFD7d8eA3YG5AjOEztSjZA6G6ShBr9uF6ekHsq0YAyL+4wOXJEruq9OqUKIGjD3HiFZWgGm6M/mBeoKm4qEEE1ozCvQzFAi2SFhuQ5sz9kpIragb3Cf3QMm3KdCd2opTGEHXJAoBXSYExA3nGWUDXUh+5ARTCjzfWAM7q9AAzaCM1iGmk8erDBzpmN+UOw4WEQQ7lI3ZFsMBgbqcfCS1xrDOcD1lNedMTpZME2rRzmRN2SUAXuYDzmq12cJI5qi0kTarLkH9G3xaoL4HyoWrCF/bnrdvYZcjcmLQC71wkYYR2sNiqLLqCZwRE8toQ/7BuSQbK6j/M0s9IHtMUTDG99d0b8eS01wJ6cFTs1oBV43pFOkTxQVd90vczDvIeXPLE14UL9RxkXy116QMrhxNzEEdAd3E2kQsV6w9rTTgwpQIXQbSfSMwbnpmiPIQ48IzV6eDATqCwUsMtlQGg2ZicjNAOFa4CJzaM4hZFQyRlT/MJhJph+Q43wjarhJOciRQeORSB0fFMY2IaJwdPG6aHgUtBO1rORcRkcOU/obmTaT5OHR01UYnx8YwqyXdIIzL6a4VvwY8gIPL3kt/B574Iyc8fwRWThdi608NF0ZsvUU60K8tJhyEquK2t9lAbbhVIwZ7jr6HAGDiBDpJAdRgKlAuEgGxTRRtwwyDYXvtraG1sPRCdTuHTahV4zwRDOfI8aOuHBIU8ck3lSGH0kE2oVQrpPpPc4Oa6IGZkZ+zMS9YUUxy3rCBtQMmqFi2LDJKgTElPCNRBIP2dhgztsMAR+IRJFp/RpINJZBoJex3aRH4wPw7vwZqoF8+fUnHQfn1uY5gnJ9TNxfZjUfUkcp6/0GsE5kVC8TP9a7MqIxiE6YP6usoSfJMadD9pQekdHU18kS2iylgEYOzLBCy6mo+MWEd5XOAEzNTn3oPRYzbiA1tmQwxOQnV7O6c71oQyshjcjEzDIxvJmc9RZ4o83A+TGuJNpsEi8cGEqAFLAPTygj3gH92GWKC2E07UMRowrEnhrGNPA2A4Jq0DtsChnhcgMMSuyZ9B9Te0hJEAKTBE8NEd3PASuAX8Uor82HvF7WaDYqq8gzYChd0ywiA+w42NJaI8B+9S4izUCIk6fBSWZUUdaUEePQdEyvQa5S6Ox3BhX0NdlswmSnYDtT6aqm24MSJlh1IEJnjMP5Mk3o9xgRKuYUUIOvqpcvp5N8HaCpy+YiGEHek9rMgUVWxuqLZpphZZqDkAF98LUy7GHk7k9Pp2swohaZHOE5MMYsfW0zmPoNUYIu+oY0hMPdoVbbbkDhIenDH+boEwOy7DWligM7AuPgjFmGdq/zww+MeAy8qAL93BJ7qySSCnK4fYgaXvHMoJqCoHriywe+4Kzg7NpXtuBdOQBgsEzEQfaIooRUbBaKHpjMBtWt6XCVEb6jEKTbSrmmySQbQFYwgF22Gp8QDHMRq9kD+jgSeosKoRGGc/R8VrcpGUiBz4aCWcIjpwR+IBwinSOwj04tYwH5lHlpwyG4WMGmUkFJk3REtsLfpsPQKEoxXqX/HGyvU8awiVZhDsQfUDvYowKFgQAEwExZzBQcQfSkdKSS+eRGzC1mz7HvZSrwQq2AYV4IFwI5BBDs/AqMWRCMKhXBxIUIWcFpoO7JIcwp7iUkJT/4OQWIyG/Q8712fhUNkvOZPOQR6DAGLu0d1m0jD8CA4aX7VG6A8uSk0QFJE9aCzwvHtoaPttJVwRuxC0BrUOwLzKS8ukHnwvCD2rgCWEmdma15Wxc0uRHMY+TMwJuBDlQpsUWZZSS0ZUYIRclENgDIuiONWTAcTa3bJEC5mEvzwu+NVqI/7zjoUCV/CMzUxSqCM0NcV6FoHCu3scZWEI4o+noBlnGVlFoJSkdqJB+KDy1fSK2CxlkbNEbDD5ooaCzsitnL/QMOccWJPFMxiRDuLimVTpB1HXSgAPV1oQThk8kcKHeTB6Vt96kShgDWz2kKQmbofyvQOB6CcTwxU0kXb4vfLaueOy0ofwD8TAoMnwVugfXbBYkJoIcQZg2EQtxPOeSiPDYZMuLizgjpafkxbYtmE5752VXyGztOr7DKDbyZqXmFxsT6CcD0/rmF+wKSGbMCcbitvRQUHB6CnZ/rj0FgwZAFcwOQZngmzZTgwOWrbGYdUCz5PxYBu0zqN8wcg9pEK+EtjhSmRUDmIIoudqIuw4yyOlYEKxql+bRfjQnTQp+vHCTga0n5z5fEGILjco64oijQzvxk9MocXdmasCQMsdcF4ICgNi+S92JqoiuOfO+n3GxLke2lTCC0UPA5bi4HqMJy8FLuA/i7UFzFgrHHgdMmCFr5hjtEId3nfq5fLI8batLIYG1Xb1tVGny0JmFDuPML0SIkSc+wwpLg1znxKwNefjSHiUjsu1x8BUQ9KgcwTNKIJXiyDDc+323jAIpDkJjacHSzBAtxJa9Gnzrg2PFZIA7I6f3tCMxmTCLtr/nEfSMUp7++tRMLIKpkYeGIW93RtHfiNoV1g9ePzrVZBJh1KXjlmzvm3nwOtxIioMqUz38fwnA+ICguI4VJrxQt2MIybPRYhDI1ggJWUdq+3VsbEFHH3SZuEnPMqYeZuBP5HxGXPQtrYExiK/qGqEA8zxeG4SrhXBfE0GCyPJXNe33OOKkMrfO8b7OxRD0wsg0pLA6ay1PQti0NxwiiR9jei+GhV7AxkwPOYbAQyjBOhHG3ugPTerwlutvzJWr0XE8Oym7YCl0ggphMG2EWUIw9hTFw6Dt143EqYOlYO0qLpF6GTj8MUFvITF1PISjVsn8ybzGgQfYIJcvMDT3WZHSjoh5k9VSSGmEb2AI4RGAl1iS6+JkngguL0FkMiU0B9sGMurNsHXRuFRonyR+YqPK6CvTRRTYms/X2eOxsTvXHsL9RejS0vF7hOuNXWEHrpIaeHhlKZRx8RgvlUWMc0cKEEH894SLMldqD24GQofYDwEj4sXQB2U+rK8DXgPH13ovUEhDVxVz4Rz+mpPMdNWpqQ4sHprqOrEUMxoSy1gxqKDBdX8NDg4OKwzxosM6AsDHo2BMInceVKehmSs/pCdoiECwSEPYbz2VpmgwyaqUmEH6wgDVV8kJTgxeBSuYE5RdR6vA9ZnYznYOmMXWnwxLGJotqH8dZRCFYNu3OjwFQhaNHybadbrLjXW6CHc8gCdIvSezswjWC2NJ1xkxhnh6RAMYKkUAYhdeWu+hEkCRZtwiwZfnAW+T0Xqtuut9CojPlZpMODwMmMnFkoxpYN48AxMBvQ8NOtlGKWHohJTArff7GSa9jQWyO9vA81d8oFI+K2Dc3vcydE6AlCEuDGtpXcngdFzwjjAFJFZZEWDF911FTyrJ3g8rODNtI4iRwKGHDVYYP+aZFHtghzyD3jzBLEH4FRmZT2K8N0VAdZeOj1LXOWPUyTjf0SGWa8aP1RJOnhgy9K7j0FE2okNjZK6xxzxf76xIoBETlIGcERVLafQgSAbyAJNCrbmT3gTC+nxRDmkJUyLrMZeK/Sbg1MkfZAm9rUXex5wIsUvHWVq3jWqyTI2kUYnjGA/ocTFpKgEyOOHsunVagGfyAC197p7xz+m1B8PrawOJEAQVZRh6sA1+Q/T39Y8baQ+xDimOzM7WilnvzNYrtgXKaZX74CMbNtt08KW3wJhZKoigDL32+3qvG+GCg4VfAC+bvLE2h8tG8pxORcETxsQsxrgYMPw9N/OFbi+FNR1V4Wq5I2BHr4lYlFIHzugXtkzMQ15H3OjrwEwUF8B0ZkPnY2DG0816EwAkzPSknlynpoxD1/tx2FqYZjf05DXISYNGyMESboXLDvkNyW8qOEZSPSkS60mxcbeoFgqB4QhSzhgQ9zYZg2bVv86rWQzuA2t/r/7diOstxiKmJWrsA4/ER3mz01Jc0506kUSVAXdv6TgqxJgvNh2r3m4hJuHc9ssFv9/k+dzF6A/GHbKuzAz2H7dB9QrVYnTwAww43WiEGcx8kwFH+qtiCChiYh7HKBBeyyzUYDpZBeUW7YAgxvoO8Euf8GikPhw9XVhJB3YSU5Qk7pqpyXqckAxSjtzG1LvK4pB8I3xLM0vsJ3rH3aFx0lBn69UTWXkEJPdW9nmC1f5ETJZLehBneeFx9I4T0UtnMGXplK/q/QYYiV34hOKL3mllhRv/Y+hmNSDwsNumvFB2Q5DeQzUgRjTukPTcctxFb+DolMHO+17Sy460TDpUCReazvQETGiWZhMaLvah62AcyKPEsArSTVbIbbUcXMc2cl8JL1t1ZH70RqX+FdBi1gjNVBir0basKy3GaXgVNQwh8+hgNIlSsmIjJkGW9tazGzPDYPVKwUN48GBKAuEYugwrw7RTRpHAgdhImomapON9g45Ke5E/GxfiJz8vTLP+GcuJ63n1gOIybgp7FNhlE7hT1HsAemPbaVsATphNhErypxD15h4C3CLrEJAe/WsU10mTMyPYSYyJjjyUFJEVJDiSK4kbWDP90xuU+H2vceCV8JUrb4QA60M6StgNqq63UdL3eP0yXF//LAtGZwmXhEYKG9BQJjaRekwHodiQh/x+5brYVO3QOzeBZSYmMqkGP0IA9WFAKeq/AEnQe2geqIoWAAABhWlDQ1BJQ0MgcHJvZmlsZQAAeJx9kT1Iw0AcxV9TS7VUOthBxCFDdbIgKiJOUsUiWChthVYdTC79giYNSYqLo+BacPBjserg4qyrg6sgCH6AODs4KbpIif9rCi1iPDjux7t7j7t3gNCoMNXsGQdUzTJS8ZiYza2K/lf4EEAfQpiVmKkn0osZuI6ve3j4ehflWe7n/hz9St5kgEcknmO6YRFvEE9vWjrnfeIwK0kK8TnxmEEXJH7kuuzwG+diiwWeGTYyqXniMLFY7GK5i1nJUImniCOKqlG+kHVY4bzFWa3UWPue/IXBvLaS5jrNYcSxhASSECGjhjIqsBClVSPFRIr2Yy7+oZY/SS6ZXGUwciygChVSyw/+B7+7NQuTE05SMAb4Xmz7YwTw7wLNum1/H9t28wTwPgNXWsdfbQAzn6TXO1rkCAhtAxfXHU3eAy53gMEnXTKkluSlKRQKwPsZfVMOGLgFAmtOb+19nD4AGepq+QY4OARGi5S97vLu3u7e/j3T7u8Hhk9yr+eNY/kAAA12aVRYdFhNTDpjb20uYWRvYmUueG1wAAAAAAA8P3hwYWNrZXQgYmVnaW49Iu+7vyIgaWQ9Ilc1TTBNcENlaGlIenJlU3pOVGN6a2M5ZCI/Pgo8eDp4bXBtZXRhIHhtbG5zOng9ImFkb2JlOm5zOm1ldGEvIiB4OnhtcHRrPSJYTVAgQ29yZSA0LjQuMC1FeGl2MiI+CiA8cmRmOlJERiB4bWxuczpyZGY9Imh0dHA6Ly93d3cudzMub3JnLzE5OTkvMDIvMjItcmRmLXN5bnRheC1ucyMiPgogIDxyZGY6RGVzY3JpcHRpb24gcmRmOmFib3V0PSIiCiAgICB4bWxuczp4bXBNTT0iaHR0cDovL25zLmFkb2JlLmNvbS94YXAvMS4wL21tLyIKICAgIHhtbG5zOnN0RXZ0PSJodHRwOi8vbnMuYWRvYmUuY29tL3hhcC8xLjAvc1R5cGUvUmVzb3VyY2VFdmVudCMiCiAgICB4bWxuczpkYz0iaHR0cDovL3B1cmwub3JnL2RjL2VsZW1lbnRzLzEuMS8iCiAgICB4bWxuczpHSU1QPSJodHRwOi8vd3d3LmdpbXAub3JnL3htcC8iCiAgICB4bWxuczp0aWZmPSJodHRwOi8vbnMuYWRvYmUuY29tL3RpZmYvMS4wLyIKICAgIHhtbG5zOnhtcD0iaHR0cDovL25zLmFkb2JlLmNvbS94YXAvMS4wLyIKICAgeG1wTU06RG9jdW1lbnRJRD0iZ2ltcDpkb2NpZDpnaW1wOjAxZjQ1MGNiLTVlMTQtNDZlNi04ZmQwLTEyNGRlNWI4NTNiMCIKICAgeG1wTU06SW5zdGFuY2VJRD0ieG1wLmlpZDo2ODQ3MTY0MC03NmQ2LTQ1YWQtYjM0Yy0wNWJmNWJiZmI1ZmQiCiAgIHhtcE1NOk9yaWdpbmFsRG9jdW1lbnRJRD0ieG1wLmRpZDo1NTQ4MTlkNi02ZTA1LTRlNGQtOGJhMC04Y2Y4OTlmZGIxNjUiCiAgIGRjOkZvcm1hdD0iaW1hZ2UvcG5nIgogICBHSU1QOkFQST0iMi4wIgogICBHSU1QOlBsYXRmb3JtPSJXaW5kb3dzIgogICBHSU1QOlRpbWVTdGFtcD0iMTcxNTMzMjY3NjI1MDIzMCIKICAgR0lNUDpWZXJzaW9uPSIyLjEwLjMyIgogICB0aWZmOk9yaWVudGF0aW9uPSIxIgogICB4bXA6Q3JlYXRvclRvb2w9IkdJTVAgMi4xMCIKICAgeG1wOk1ldGFkYXRhRGF0ZT0iMjAyNDowNToxMFQwNToxNzo1NC0wNDowMCIKICAgeG1wOk1vZGlmeURhdGU9IjIwMjQ6MDU6MTBUMDU6MTc6NTQtMDQ6MDAiPgogICA8eG1wTU06SGlzdG9yeT4KICAgIDxyZGY6U2VxPgogICAgIDxyZGY6bGkKICAgICAgc3RFdnQ6YWN0aW9uPSJzYXZlZCIKICAgICAgc3RFdnQ6Y2hhbmdlZD0iLyIKICAgICAgc3RFdnQ6aW5zdGFuY2VJRD0ieG1wLmlpZDpiZWVmNzljZi0wMmIxLTQxMWYtOWU3Yi1lZGU3NjVlNDI0NzAiCiAgICAgIHN0RXZ0OnNvZnR3YXJlQWdlbnQ9IkdpbXAgMi4xMCAoV2luZG93cykiCiAgICAgIHN0RXZ0OndoZW49IjIwMjQtMDUtMTBUMDU6MTc6NTYiLz4KICAgIDwvcmRmOlNlcT4KICAgPC94bXBNTTpIaXN0b3J5PgogIDwvcmRmOkRlc2NyaXB0aW9uPgogPC9yZGY6UkRGPgo8L3g6eG1wbWV0YT4KICAgICAgICAgICAgICAgICAgICAgICAgICAgICAgICAgICAgICAgICAgICAgICAgICAgICAgICAgICAgICAgICAgICAgICAgICAgICAgICAgICAgICAgICAgICAgICAgICAgIAogICAgICAgICAgICAgICAgICAgICAgICAgICAgICAgICAgICAgICAgICAgICAgICAgICAgICAgICAgICAgICAgICAgICAgICAgICAgICAgICAgICAgICAgICAgICAgICAgICAgCiAgICAgICAgICAgICAgICAgICAgICAgICAgICAgICAgICAgICAgICAgICAgICAgICAgICAgICAgICAgICAgICAgICAgICAgICAgICAgICAgICAgICAgICAgICAgICAgICAgICAKICAgICAgICAgICAgICAgICAgICAgICAgICAgICAgICAgICAgICAgICAgICAgICAgICAgICAgICAgICAgICAgICAgICAgICAgICAgICAgICAgICAgICAgICAgICAgICAgICAgIAogICAgICAgICAgICAgICAgICAgICAgICAgICAgICAgICAgICAgICAgICAgICAgICAgICAgICAgICAgICAgICAgICAgICAgICAgICAgICAgICAgICAgICAgICAgICAgICAgICAgCiAgICAgICAgICAgICAgICAgICAgICAgICAgICAgICAgICAgICAgICAgICAgICAgICAgICAgICAgICAgICAgICAgICAgICAgICAgICAgICAgICAgICAgICAgICAgICAgICAgICAKICAgICAgICAgICAgICAgICAgICAgICAgICAgICAgICAgICAgICAgICAgICAgICAgICAgICAgICAgICAgICAgICAgICAgICAgICAgICAgICAgICAgICAgICAgICAgICAgICAgIAogICAgICAgICAgICAgICAgICAgICAgICAgICAgICAgICAgICAgICAgICAgICAgICAgICAgICAgICAgICAgICAgICAgICAgICAgICAgICAgICAgICAgICAgICAgICAgICAgICAgCiAgICAgICAgICAgICAgICAgICAgICAgICAgICAgICAgICAgICAgICAgICAgICAgICAgICAgICAgICAgICAgICAgICAgICAgICAgICAgICAgICAgICAgICAgICAgICAgICAgICAKICAgICAgICAgICAgICAgICAgICAgICAgICAgICAgICAgICAgICAgICAgICAgICAgICAgICAgICAgICAgICAgICAgICAgICAgICAgICAgICAgICAgICAgICAgICAgICAgICAgIAogICAgICAgICAgICAgICAgICAgICAgICAgICAgICAgICAgICAgICAgICAgICAgICAgICAgICAgICAgICAgICAgICAgICAgICAgICAgICAgICAgICAgICAgICAgICAgICAgICAgCiAgICAgICAgICAgICAgICAgICAgICAgICAgICAgICAgICAgICAgICAgICAgICAgICAgICAgICAgICAgICAgICAgICAgICAgICAgICAgICAgICAgICAgICAgICAgICAgICAgICAKICAgICAgICAgICAgICAgICAgICAgICAgICAgICAgICAgICAgICAgICAgICAgICAgICAgICAgICAgICAgICAgICAgICAgICAgICAgICAgICAgICAgICAgICAgICAgICAgICAgIAogICAgICAgICAgICAgICAgICAgICAgICAgICAgICAgICAgICAgICAgICAgICAgICAgICAgICAgICAgICAgICAgICAgICAgICAgICAgICAgICAgICAgICAgICAgICAgICAgICAgCiAgICAgICAgICAgICAgICAgICAgICAgICAgICAgICAgICAgICAgICAgICAgICAgICAgICAgICAgICAgICAgICAgICAgICAgICAgICAgICAgICAgICAgICAgICAgICAgICAgICAKICAgICAgICAgICAgICAgICAgICAgICAgICAgICAgICAgICAgICAgICAgICAgICAgICAgICAgICAgICAgICAgICAgICAgICAgICAgICAgICAgICAgICAgICAgICAgICAgICAgIAogICAgICAgICAgICAgICAgICAgICAgICAgICAgICAgICAgICAgICAgICAgICAgICAgICAgICAgICAgICAgICAgICAgICAgICAgICAgICAgICAgICAgICAgICAgICAgICAgICAgCiAgICAgICAgICAgICAgICAgICAgICAgICAgICAgICAgICAgICAgICAgICAgICAgICAgICAgICAgICAgICAgICAgICAgICAgICAgICAgICAgICAgICAgICAgICAgICAgICAgICAKICAgICAgICAgICAgICAgICAgICAgICAgICAgICAgICAgICAgICAgICAgICAgICAgICAgICAgICAgICAgICAgICAgICAgICAgICAgICAgICAgICAgICAgICAgICAgICAgICAgIAogICAgICAgICAgICAgICAgICAgICAgICAgICAgICAgICAgICAgICAgICAgICAgICAgICAgICAgICAgICAgICAgICAgICAgICAgICAgICAgICAgICAgICAgICAgICAgICAgICAgCiAgICAgICAgICAgICAgICAgICAgICAgICAgIAo8P3hwYWNrZXQgZW5kPSJ3Ij8+Bn0PRAAAAAZiS0dEAAAAAAAA+UO7fwAAAAlwSFlzAAAuIwAALiMBeKU/dgAAAAd0SU1FB+gFCgkROOWU/FoAAAAZdEVYdENvbW1lbnQAQ3JlYXRlZCB3aXRoIEdJTVBXgQ4XAAAcaElEQVR42u2deZQU1fXHP9UzIAQim2JY3EBNNGrcfmqM0UhMFJgL6uAalzYpjWJiFMGFGEWJuyYuqImWsdQYNIg681AUo6LRuBI3CCqgoiwqiMo6MDNdvz/ebaeoqe6u7pnpwYR7Tp8z3dP96tV7727fuxRspI20kcpGzoYyERHZGdgb2BP4HjAA6BP52ofAR8As4CXgZWPMzK/t6nt+h8hmNARuOsi7YZ7foj0Lj590rGLmVOi7pYyT/bzosT2/Asi+ABraeo0Ljt3OTNYbOAb4BfAdoCOwHPgYmA98qgwGsCXQG9ga2ALoBtQDs4G7gInGmMVfAyarAHYHDgX2A1L6nwwwE3gFeBRYTdzmef6JwM4lXn02bvrO0FgnAd9N8Lt5wGrgWWAhbrohMqcTgF303RW46c9LWJctgFF6Jv+Nm75PP98eOAVYB1yMm25MsL7fAg4DfqDnZhs9K+8Ab6mwftyBVc0YxPO7ABeVyBsZ4Pe46ZW5vlDZTozWCxgHHAv0BD4B/gwY1V6fGmMacvy2QhlvZz20RwHXAheJyF+BK4wxCzdQZvsWcJUKmQ4xmzoYaFCBcyOePwE3vSbyncOAw0ucwRTgztD74QnHygABsAaYgudfhZt+PfT/JcAY/bsDcHYJczsDOFevs2fo82107JXAJUBjnvXtFzpXnUPCLEvb6plpAD4M4A94/h246brQd74BjI75bRJqAK7TubY/w4lIJeDqovRWiTkBmGKMqQstXG+GV2+v2ixM8w3MwU0vBhYDT4jIb/Wg/gYYCRwlIlcCN+Zi2nZitq7Ak8BOeqg+Uk22RN9vpxqvv76uBI7C8w/DTS/MwQRvFymJP8rxeR3wfp7fdQb6Al1UWByC5x+Bm56u/5+ulsmmwDF4/uiCmqi5VjlX370LvFHC+n4fuF81GiocZgJPqXZMqRbeWy2kAcCNwFA8/3jc9LKYUd/Ny+DxDJf3+5VlZLZ+wG3AEGAu8CvgQWNMBs/vzPDqwcBQlUBbq90dPUwB0IjnzwceAaYaeBo3/ZCI1CjjXalSpkpETjbGzN9AWO5yZTaAP6rZsgY3nQmZQpvo/V+sh6Mj8FmO8Vaor1vMHmZyfP4fZfZczJvSax0DnA70ACbj+d/DTS/ATdfh+RcB16s5Vw38vYh57a/3CnDDV2uSnNl+ADwGdNUDP0nX+10H1n1lNlqfuasK5nP0PgYD9+L5Q2JM+J+oW1MMrW13hhORPYEHVUreCpxvjFmui3C0moR9E6hxR+c8EDhTmXY+nn+BcdP3A4+IyHRgPPBr4DkRqTbGvNzO2q0SOEHfPQ6Mbra5ViOsBh7E859Shrw9Yu4Q+U2DStWWUoCbXlvgOy84nv9SAP8GfHUFrlUmBLgPuEZNyguTMpzj+U5gBZADLHPgL0Fxa7uZnq2uuhYXAddk/cxg/fWqBz7H8y8H7lHzek9gFPFgx9q8618CpcrAbAcATwC9gOONMSPN8OqVeH41nj8AEDWhUiXOf1tA8PwBeH61GV69xhgzCjhaJdhjOof2pD5Ad/37MQqhbW76C2XK2RuSCxq46UwK7g6Zpj8IzfkT1SwA38Xzt0rG6Xwb+wKYFBRm/CiaeLu6J4G6Klc1A3War2+Am/4QGAYcVM51TpWB2R5ShGiQMeZ+PL+nSsiJyhCtRT10TB/P72GMeRAYpNd+SET2bcezGjbVeif6RbFmVZkoY4VFrb7dPMZsDvRcXZFwyCxAsQa4tDi1TF+gSt++o8yWfN3c9Crc9GvlXL9UGzLbAOBe3QAxxrysUu8ZNa+cmMPY0gPt6NhP4/lbqSkp6h/8XUS2bqdzuiRk3RyuQufrTJVx/krK+oKz9O1Qx/M7FjAHewIn6rtXFQgrho4PzeWMgpptA6BUGzHbN5TZNgd+rszWXx3bbAzpCWx856/AFy243DIdY56OiTr4j+H5/ZXpTlYf8S4R6VD2VbbQftan+Q7wOJ7/Ezy/My0MZLeDP9pJhRjAohjtd56+7RZYgCUfHaE+XwCMofig+VmhM/DPr5Okam0aA+wLjDPG1OomjcdCxy8pwnai+ipT8fwLgHSJ1/ozbnqqHoaT1Hnvov+7BM8/zbjpB0TkD2q+nIlFMctN52ID3jsAe2FR1nnKfNOxEPaHQH3Cg1eB5+9ZxB7Oxk0vbwXwZ7wKL/QeovS07u83gdMdz78xiA/gZ8dC1+GVIufSJeSSfNpK4FGU9sDzlyX8bj1u+t9lZzgR2UkP9quKWqFIz8l5NMCfgD+1giZZAvw4x39/r/b+70RkkjHmwzJruQ/x/EOw0PkQlezf0dcZemBmAE/h+XcC8wv4I12B5xNevQL4qTJDvEluIXMnz+93UY1ytH4204GxQZw29/zfYwP8OwSwGxDnJ+2GjYcBXFuCz+qE5ruOFqSU5aGHiQCdeegzoF/ZGE5E+qi5OBobTzrDGLMazx+JhY+j9IBuykBFmr4Z8511ocP5SA4T+GNsCOBDYCw2eyLiW3OGcdO+iJwNTAVuEhEfeBN4zxgTlInpPsDzR2CDryOwccetdR86Keq3n97PbXj++DxpQgG542rF0vbAtDz/3wGLMm+i13weGBG46XU5vn+3AigVKnQPjvnOpcowS4sOBZQRIyqC4RLtRWULmayHHvDTgB2xmQaN6lO9oqlMF2EzFaJ0gkrLfJK1MzYDg5CZGKVtsSlh9TQFT2mGnnn+w9RMflIP1iFYSHgNMEdE7gTuMcZ8VgamawD+hee/qBpiALAHNvg7SO+nu5rle+H5Q3PEglYqIyTaQweW5Dk53wR+VGCIddgY4gPA33DTq/Pc48d4fo36aPvg+d3Vfciag/1U4wI8HNj4WLEUvp0OeL7TBlru+8DShN9tbDOGU1DkTH31AT5X9fuk+iJzjTEBw6vHhsyGOOrYSgvjFBirD3COMeZ3IjICG/fbUc3Pw7GB1wtE5FbgWmPMyjIwXiawKVX/Af6D5/9NzcQhwNXYFKVBwKnYFKTmEtVNf1zK6YyhRTlM+t5q7jrYNLIj8jLa+jRO17arWj0Xhv53imq/OuD8ElewDpso0FHBuUoVuq1JizW+2H6gicbWbsWmKb0J/BaY1OyQ2lSlgzcg86Aazx9nrIn2tr4eEpFRKonPwqZUnSAipxpjniyzj5dRUOk+PP819Xs6A0fmYLjWPljjm0kxz08FtirjBGBXYJzj+eclKZNxYFZgwZDtgJPwfJvp7/mdaUpuflURxlLWqxHPv10tgV7YjJEX/2tQShFJAb9UhG+dSq0Jxpi1eH4nhlcfoKbaXqpB9qWpDmlDoArgG3j+i8AC4AXgSQMv4abvE5HJCuxcBjwqIufq/TWWfaZu+h08/zHVEL3aa8ECN53B88/Uw7wTMCqw8LtJ+NuzsBUK/bE5oo8AP1TXA+DMFpqBPrakpwK4Gc/fu6ik6XagVEJmq1An+Cas1Pq+MeY6M7w6paDIG9iM8bFqm2ezphe0cH71KgGXtYK5sEDn1KhzvFjnPAPPP80Mr04ZY25T4GKmmpmX6723nDx/d8fzi4l7rk1mDbY583+BzZdcpwfb05hqEnoa+FL/vljvPwugzaWUqoD16R1smAlsyMUtqnjU8zvh+UcVuS9ty3Ai4qgUOQ8LWw8yxszG83fHZo1MULMhi5otBAarrT9CD2+mhFcjNp9wCm56ijJzpsTXTGCEzmkotv4uiyrtBNyCzU7Z1RjzrjLkVGzs7Dxdg5Yw2z7AswH8Sct0Cn2/SwhUeL/dxbKbfkv9rkD9ugccG0cr9LvV2OoNgF0Di8BmC16vbnH6mtVmJyr45QA3BnCKujOF1ri7oqn3BHC2U6YEhCQm5RAshDsDGGqMyaI2K9Shj9KXuOlFuiCf4/mDgc1KRKHmht7fis0kKWVhln5VheymP9LaqW4x31sNYIz5TEROwNarjVNfdUoL1vlaBQ9c4Ed4/tivkNXwobOStrf6bNn0r7vzHJpUkX54QGmIIA7cG8BB2ASFfQK4Ds8/K4FJeDc2BroJUKNCfhnrF8K2hOnmacLD3xRAuQn4Hp5/pfqmDZH16qiuz1U0JU0fGsANNA+ed6BQelrzdarP5+NWFtBuW+hBXwEcZYxZiuf3cuDzwKb39I3dVM/3cNPv4vnbYNN7UrFMYIPAu2KrtuNoFp6fPXBH0VRPFmXMiWpejMrBSA14/k246UV4/o7qq8Ux7iLH828IYDPjpj8VkWPVZLlFRF4xxpSKWB2rB2wQNuY1EfgAG+SeE5pLH73PvnpfD1fApBxOSRfgH0UKoPmUmNETWJBilPpgA3Vf/1HQn7Nr/gA2BJQVIrWtmffowGRNI7sBW7F9OvAzbHrfGyFGGogNweyGDUc1YlMQR+aYz/1qShejJU7CxoRL0nBj1eE91hjzHp4/CDg5sHVo1+QBRU7B8/+NzWnM5fQ3YGNiv6apVixKjdhrdcAG1XOZwD2Bm9Uvq8wzpzcU1Nk01/UCuAOYiOePN256uoj8WhlkLLaqvBQpvMDx/CG6GWdh42fbhUzx0NkBLOR9G/DbxtzSshKrcYqhlpWhWIvlaAWcOgB3KFDxQYFfjldB4ugB/l0bgDt3KOp5qZrj3ZTJj4pZ3wYV0NcCfh7m36+E6XyjJJNSRAaq3f48MAnP761SekaCi3ZXaZ7Eh0wVQBb3TDBOpwT+aK+Ec3J0/vYw1UyepEx/iojcaIyZV+KhqFfA4T5skPtQbLpUT9VoC9WSmInt7zIrB+L2fAhACiIHKdC/gxyab0GOsd4rgulm4PmuuhoONvHhhgK/elt94r7AHL3XpPQJNvG7Li+AZAXT63h+NTZgfRhwoArqjspkM1XoPAxMyRFTXKvXS0XWN0hoTawodLhyMdxVWOj/YGPM03j+VQoiPKQm2We0DPZvwIYOzlb13xK6V1HFF2lZ9kyjMuZTanqMw01fIiIHqfl0rTHmPDbSRmpNlFJENgGOwwZfn8fze2EzDv7X6Ew8v4dqgteAI0Wk48Zjs5FaG6XcW323W40x6xhefRJNuYyZiDlTsulNE2zfUsqO0xpzCmjKi+sJ/MwYM0FEjCKWe1BCRkMxoYUkydStPV6uMYtJ7NaubKmQ5dMAZAolD0SvW+r9ly0JvQ0YLuuMT9UmL9mY0EIsxLtSQYQrKb2I9Tq17a9RW3urEsd5BxuU/wCLeo5pgTl5PrBKwZHJihoego01PqEMd0CxDKcHcRzJckcbReQDbEjkX8aYNTm+N5jCCcfZ63+IraZ+DliahwEuZP2qDafQempiQF8san0ANq8xC7e/BSwSkZnYRj8LotfWjtsnhYWliEw0xryW55qHxvnjInK/MaYZxnDEEUf0aWhoOC4IggOxqHgv9ftXYdHyOY7jvKXr83Rtbe2KcjPcbtgq7FmBndjCkKNpG4B6/vVYmL57CdddBozXSui3NH0oXeI93IabflvndKlueClz+hQ3nS1MfQHP/x22fu5jPL8jNZNnqKDZq4SxK7DoZJciNHYj8K6IXA/cGcMkBxQhXLIWwCps2tpYY8wHMd8biW1zF6YxeQ5+XxXAI/TeosK3X+j6FwF/E5FrgPkhbbS9YgVheoP4GjpEZBdsxUJ0LScqgzdJpMGDN62srBxfX18/MsdZ76avgUEQHKr3WiciFxhjri8nw/XFxmwadbGu0s/r8e5ycE8KVFrnahTzOW56ifas2CwBYPMGTaX50YOSPRjb5NCmdRGfNNecluKmlynaGs+Qnt8FN71K2x48RVPZftZcnU987LEtfOsUNivjT8BWIjLOGJOJmL/FjtcNGxP8kYgcaYx5vpTJqTl3KLaOsV/C63fHxseGYxMAHivhurvo76LM9gJwsjHmq5jZ8OHDt8xkMo8RH7vNR52wRcHl0XBq/nTD5sAF2Pqsd5rMruAmPP8FbPxs/xzjvo3n74ENiuaKZbyM5/9RVfw5ecytbEFpTY7/r8Hzr8ZC26Np6nEfpX/h+Qdjuz1/O8d3nsPzb8IGd08Lrc/WWEh9JdBDRCrKmNRcoeb7VD1YrUF9gMkispsx5uMSfn8sNl7ZqcjfOcqg94lIX2PM6iKYbVtsPV6fZvtqm1R91dDo1FNP7bB48eLJJTBbu/lwYenZM8Y0OqvAuJthA6P5Urr2VjOgEBUyDztjA94knFO+7Pv9cwiRaHC6NfLulmLjQlEaqIcyFVn3XyVguJfR9LQQbYtNF4sWAW+hgq4on1dEtsPmnsYx20q1DLLNhXZRkKlzxGo5p0hm2wIbjsrFbOuV+CxevPhI4P9ihprpOM7F9fX1/9xyyy2/WLx4cbfGxsb+lZWV+wdBINhOy065GS6M0oFtYbCRmro+r6a4fvO56AVsS3AnZk9+o0BQmKrJH68MsE8hejdGQ+6ALWr9aeR/vxCRc4tE9+6lefpctsr/fBUkmdC97EBTMaoDXG2MuaMIZuutmu17MetXZYyJe1LPsDgBt3bt2n2nTZu2KiL0lgKvAxOGDh06IJVK/d5xnKBsDGeMaRSRpdi0o5QesFVFOPz/bfSlSu6USthZrQQ/Z4wxcYnE60TkWtU+vXL4vLmoPuzHhH1kzQudy/rNd3tgwz8fJTz8+6llEqVLgMsiPibYNK6ZInK0auid1DxOymyd1QqKMtv7wLAczIbeU7N13W+//dZMm5a7dcsjjzzyHjb+3KbOeRy9qeDAZtgq5Pf436W52HSdPromb5Xhmt/EZteHqUV9F9XsWlwAvCpEv82hqS+PYbb1hDi2AuKMImKCnbApVlH4/z3gp6GqlTiKa5fed8aMGfdUVVVtvyH6cDOUGQ/ETd+P5z+fB4zIZS6txRYg7tCC+X2C7fmR/XuLFoz1tM7pBZoamSahZ3HTDYhkzbGXWmntO4hI95gDvzsWau8aMdnGteRiiizG+V3FJB7EgRAXJAGQlNGSVgg42LKeqhjNdogxZm6B379JfN7scY7jHCci8xzHeT6TybyQSqX+UVtbO7e9Ge4JNQdGYEsUfJpaUifRCEfiptfi+b9Sp33/Euf3K9z0qwBaGnJ7ieM8o2M14PlHKriwXVKfRaqqHGzh6ipso6TWoEOIT+KtZH3EtlH9uX+1gNkqdC+jrd5XUVwicVyr+Ffa4FyOwaLXUTotAbORyWT+mkqlfpNHew8MgmCg4zgnBkGAiMwJguBex3FuLqA524zhPlG06ccisrlx0y/h+Un78q/76tFH9oBXUzx8nKVwC/RJ5O+dmI/qvirBsILghyTtGOaml2KfbZdNYF7WSmtve6wUpieAa/KZbCEaJCLRkEdPbJD8OJonm3tF+qPRAzy/GLSxCNo1x+cXicgz4RBADl9shiYMJH0S6/aO44wDRlVVVY2cMmXKvWVlOGNMRkT+olL4VGxjnV7Y8px7AA+bqvOtWLTM8y9xUl2nBZmVe2NrjuKu8zG2Dm6oonJx0mimajaAPxD/bOsAG5ifrghaHOzfgOePTqU2fSWTWX4oNoUp7npzsGlGI7F1VMcrinUWtobuznbI1zsYeEZEfm6Meb0AM9yY4/O4qo5VJH/CTS4q98MzfqDa/pwEJuw5w4YNWxIEwUVFCPxNHcf5a1VVFW3FdPnKczqqL9cX2MsY8z6e/wdsxkeS8pyFCjSk8mxWkvKcL7Dxs3wo6d162PKV52QUNMiXGREuz5mGm75ARLbHPoRwNrZ5UnEhAc+/S2omn6rrFb6HeuKfBe1g41YdI/uzHNgl26JdRK6g9J6Oq4AhxphnI3u+OCpEjTFO6P9xwqbzeo+LLt7cPVyFdxx9phraiezjYcYYk2T8wYMH96+srDwNG1ZJmkGyrFOnTv0nTZq0prUZLpVHQqxTW3pT4I/qB1yIjYkkQbb60TpP5+lO4ZBERcJ77ZfwmrXAJXrPNyliOKbE7JJcWuBxmp7nHX0dqP5q+IBv2lLgRMerBfaNMltCinv87j5tpM2+wKaPPR6zj3fp49AK0tSpUxcYYy40xuyYSqW2chwnja2mn5XnZz3r6up+1BY3VYghHlcTchgwRmofXJOyk/1vJge4VGoeXItNuD0EuMUY80xJo7npX+TSpsaY1TGvVcaYl7Bxq0WR3/yswOO25qkmnk1TDmqYvsRC8zNLXJs3Yz4bm7RUSNMGk9CX2KD2qwrWRZMvegC3F/vosZqamo9qa2vvMsb80hizc2Nj4+7EZ/sQBMGAsjOc+iu/USRqPEFwnD4DbCU2l67xv4jRGlWbrZSayUAwGht3epb123SXcz4NMT53jzza63BsKtUe6u8uirEWJmhT31JoQsxnPwVG5mM6EUmJyGHYh2ImqeQYm02sNsYsUV8/ChoNUoEYd715VVVVBUM/jz766OvkfobdurIznN7wCmwj0LmAJyKjpGYyuOlfYluEv17itTPYTP/WeGj5Sh2n1GLW14FhuOmzLbNxgQIKc7DdylaWi8v0cHZUsKRvDFPlW691xpg6fa1S7RBdk2HYEEEpVIutYYzS9arpuoWZWUQqRKSnAh33qUB4KAHTfRk5g/+gqWIlTOeLSFw7/V6O49RWVVXdMWTIkLzoehAEsQLMcZx5bbG/ThEHYRtd8J3VzBxtjFmizxUbokDKviQLTjcqCvgQNqviMWzjl1Jouh6ilTrmxIT39YmCLHcCj+Km67W+64/Yfv4vA8fkqBsrlok2iQFN3qHpqahh2gz7oJHv0zzb5H1jzIAcoEkA7GiMeSd0XUf3KgpKfQ7sbIxZVAxoot/5oYJKlTECdB42dJMNnWypZ2PzyJ48g006XpEDNDneGHNvVBBhkw72itnH/zPGfBT67hc05XvWO45Tg+0r+iKwaJNNNllbX1+/ZSaTqQqC4FKad3H7dMWKFf2mT5/e6ihs4oY7xpgP9EEeN2Ph8h+LyGXUTL7bGFMD1Gg32z7YoHL/PAd/JbY3YQAsx/NPwVYvByUIjKdx0ysUEazB1lp1ymN2LVBtvTj7CCUR6YrI6arZNlcmPNsYs5y2o29TXLu4ANt3kyL2LBCRUxWE6R/xge4QkapigSBjzD9FZAy2Ur8yYi1tr69CtKvOZ3YR182IyDHKdOHQzxYKohycI1bZIQiCEWGtXleX36hyHOfctmC2ohhOb/oL7Ug8BRubuwU4V0QmApOpmfwG8LYxprj+h256VgHUKOk4dcBfEmgcG5sS2RPbu/BIbLhjHjYGV5Mw0FxOf+5ubCdoityz1SLyC+yDNML7fahaJV4J87lBBcB44h+kmY/eBkYUfUbsvcwTkTPUPA3TQartL2+Ftb6strb2rrbayMoSbjoDTBSRGuDn+rpAX58CL4nIfGzcaEOkLtiHIO6DrRMDW85/HfCXNsqcKJXWYbv4XgfckaO6IAk9gW0FHk3PmyAi04p9/LJqzhuxcdrL1JXoWEA7r1bL4eJo/VqR175fRLLPzQvTxSLyrDHmOWCc4zinB0FQTB7vfOAsY8zDbbmhlS248dW6YX/GtgI4nKbGm7l6928ItEJfs7HtCx7CltzUt+E1M9imRJ1iDmKc2f0RNg41HXhNAZAovRXxAQNyNCFVBvm1vu3E+g1OB2Mbz2ZBke5JfHxFsJ8TkZ/ofldjiz53pinxeg424fgpbGreBzGWw0L9XxBaj/kF1nO0nt0ukTlWAc9pP5LrhwwZsltFRcVQx3H2BL4bBMFmqpEDBWbmAzMcxzHLly9/vK3MyJJAkyIBgq56Y84GxmzZkMaqPN2wNtJGajP6f4wzj+YuxoGQAAAAAElFTkSuQmCC;" parent="1" vertex="1">
          <mxGeometry x="380" y="30" width="220" height="50" as="geometry" />
        </mxCell>
        <mxCell id="-ysW1S-eQyqw77Rk8hqI-4" value="" style="edgeStyle=orthogonalEdgeStyle;rounded=0;orthogonalLoop=1;jettySize=auto;html=1;" parent="1" source="-ysW1S-eQyqw77Rk8hqI-2" target="-ysW1S-eQyqw77Rk8hqI-3" edge="1">
          <mxGeometry relative="1" as="geometry" />
        </mxCell>
        <mxCell id="-ysW1S-eQyqw77Rk8hqI-2" value="API Controller" style="rounded=1;whiteSpace=wrap;html=1;fillColor=#fad7ac;strokeColor=#b46504;" parent="1" vertex="1">
          <mxGeometry x="440" y="330" width="120" height="60" as="geometry" />
        </mxCell>
        <mxCell id="-ysW1S-eQyqw77Rk8hqI-6" value="" style="edgeStyle=orthogonalEdgeStyle;rounded=0;orthogonalLoop=1;jettySize=auto;html=1;exitX=0.5;exitY=1;exitDx=0;exitDy=0;" parent="1" source="-ysW1S-eQyqw77Rk8hqI-3" target="-ysW1S-eQyqw77Rk8hqI-5" edge="1">
          <mxGeometry relative="1" as="geometry">
            <mxPoint x="499.94117647058806" y="580" as="sourcePoint" />
          </mxGeometry>
        </mxCell>
        <mxCell id="-ysW1S-eQyqw77Rk8hqI-3" value="API Service" style="rounded=1;whiteSpace=wrap;html=1;fillColor=#dae8fc;strokeColor=#6c8ebf;" parent="1" vertex="1">
          <mxGeometry x="440" y="460" width="120" height="60" as="geometry" />
        </mxCell>
        <mxCell id="-ysW1S-eQyqw77Rk8hqI-8" value="" style="edgeStyle=orthogonalEdgeStyle;rounded=0;orthogonalLoop=1;jettySize=auto;html=1;" parent="1" source="-ysW1S-eQyqw77Rk8hqI-5" target="-ysW1S-eQyqw77Rk8hqI-7" edge="1">
          <mxGeometry relative="1" as="geometry" />
        </mxCell>
        <mxCell id="-ysW1S-eQyqw77Rk8hqI-5" value="Domain Repository" style="rounded=1;whiteSpace=wrap;html=1;fillColor=#e1d5e7;strokeColor=#9673a6;" parent="1" vertex="1">
          <mxGeometry x="440" y="600" width="120" height="60" as="geometry" />
        </mxCell>
        <mxCell id="-ysW1S-eQyqw77Rk8hqI-7" value="Storage Repository" style="rounded=1;whiteSpace=wrap;html=1;fillColor=#fad9d5;strokeColor=#ae4132;" parent="1" vertex="1">
          <mxGeometry x="440" y="740" width="120" height="60" as="geometry" />
        </mxCell>
        <mxCell id="-ysW1S-eQyqw77Rk8hqI-10" value="" style="edgeStyle=orthogonalEdgeStyle;rounded=0;orthogonalLoop=1;jettySize=auto;html=1;" parent="1" source="-ysW1S-eQyqw77Rk8hqI-9" target="-ysW1S-eQyqw77Rk8hqI-2" edge="1">
          <mxGeometry relative="1" as="geometry" />
        </mxCell>
        <mxCell id="-ysW1S-eQyqw77Rk8hqI-9" value="API Client" style="rounded=1;whiteSpace=wrap;html=1;fillColor=#d5e8d4;strokeColor=#82b366;" parent="1" vertex="1">
          <mxGeometry x="440" y="200" width="120" height="60" as="geometry" />
        </mxCell>
        <mxCell id="-ysW1S-eQyqw77Rk8hqI-11" value="IApiService" style="html=1;verticalAlign=bottom;labelBackgroundColor=none;startArrow=oval;startFill=0;startSize=8;endArrow=none;rounded=0;entryX=0;entryY=0.5;entryDx=0;entryDy=0;" parent="1" target="-ysW1S-eQyqw77Rk8hqI-3" edge="1">
          <mxGeometry x="-0.25" y="10" relative="1" as="geometry">
            <mxPoint x="366" y="490" as="sourcePoint" />
            <mxPoint x="796.25" y="440" as="targetPoint" />
            <mxPoint x="-1" as="offset" />
          </mxGeometry>
        </mxCell>
        <mxCell id="-ysW1S-eQyqw77Rk8hqI-12" value="IApiService" style="html=1;verticalAlign=bottom;labelBackgroundColor=none;startArrow=oval;startFill=0;startSize=8;endArrow=none;rounded=0;entryX=0;entryY=0.5;entryDx=0;entryDy=0;" parent="1" target="-ysW1S-eQyqw77Rk8hqI-9" edge="1">
          <mxGeometry x="-0.25" y="10" relative="1" as="geometry">
            <mxPoint x="360" y="230" as="sourcePoint" />
            <mxPoint x="570" y="420" as="targetPoint" />
            <mxPoint x="-1" as="offset" />
          </mxGeometry>
        </mxCell>
        <mxCell id="-ysW1S-eQyqw77Rk8hqI-13" value="IApiController" style="html=1;verticalAlign=bottom;labelBackgroundColor=none;startArrow=oval;startFill=0;startSize=8;endArrow=none;rounded=0;entryX=1;entryY=0.5;entryDx=0;entryDy=0;" parent="1" target="-ysW1S-eQyqw77Rk8hqI-2" edge="1">
          <mxGeometry x="-0.25" y="-10" relative="1" as="geometry">
            <mxPoint x="645" y="360" as="sourcePoint" />
            <mxPoint x="567.5" y="290" as="targetPoint" />
            <mxPoint x="1" as="offset" />
          </mxGeometry>
        </mxCell>
        <mxCell id="-ysW1S-eQyqw77Rk8hqI-14" value="IDomainRepository" style="html=1;verticalAlign=bottom;labelBackgroundColor=none;startArrow=oval;startFill=0;startSize=8;endArrow=none;rounded=0;entryX=1;entryY=0.5;entryDx=0;entryDy=0;" parent="1" target="-ysW1S-eQyqw77Rk8hqI-5" edge="1">
          <mxGeometry x="-0.3333" y="-10" relative="1" as="geometry">
            <mxPoint x="650" y="630" as="sourcePoint" />
            <mxPoint x="576.25" y="570" as="targetPoint" />
            <mxPoint as="offset" />
          </mxGeometry>
        </mxCell>
        <mxCell id="-ysW1S-eQyqw77Rk8hqI-15" value="IStorageRepository" style="html=1;verticalAlign=bottom;labelBackgroundColor=none;startArrow=oval;startFill=0;startSize=8;endArrow=none;rounded=0;entryX=1;entryY=0.5;entryDx=0;entryDy=0;" parent="1" target="-ysW1S-eQyqw77Rk8hqI-7" edge="1">
          <mxGeometry x="-0.3333" y="-10" relative="1" as="geometry">
            <mxPoint x="646" y="770" as="sourcePoint" />
            <mxPoint x="576.25" y="660" as="targetPoint" />
            <mxPoint as="offset" />
          </mxGeometry>
        </mxCell>
        <mxCell id="-ysW1S-eQyqw77Rk8hqI-16" value="IRepository" style="html=1;verticalAlign=bottom;labelBackgroundColor=none;startArrow=oval;startFill=0;startSize=8;endArrow=none;rounded=0;entryX=0;entryY=0.5;entryDx=0;entryDy=0;" parent="1" target="-ysW1S-eQyqw77Rk8hqI-5" edge="1">
          <mxGeometry y="10" relative="1" as="geometry">
            <mxPoint x="360" y="630" as="sourcePoint" />
            <mxPoint x="456.25" y="480" as="targetPoint" />
            <mxPoint as="offset" />
          </mxGeometry>
        </mxCell>
        <mxCell id="-ysW1S-eQyqw77Rk8hqI-18" value="&lt;h1 style=&quot;margin-top: 0px;&quot;&gt;IRepository&lt;/h1&gt;&lt;p&gt;This allows the Domain Repository to transparently access the underlying data storage repository mechanisms for any storage provider.&lt;/p&gt;" style="text;html=1;whiteSpace=wrap;overflow=hidden;rounded=0;" parent="1" vertex="1">
          <mxGeometry x="40" y="640" width="270" height="100" as="geometry" />
        </mxCell>
        <mxCell id="-ysW1S-eQyqw77Rk8hqI-19" value="&lt;h1 style=&quot;margin-top: 0px;&quot;&gt;IApiService&lt;/h1&gt;&lt;p&gt;Exposed methods always return a IReponse or Task&amp;lt;IResponse&amp;gt; for async methods. This allows you use clients and services interchangeably, depending on your needs and hosting environment.&lt;/p&gt;" style="text;html=1;whiteSpace=wrap;overflow=hidden;rounded=0;" parent="1" vertex="1">
          <mxGeometry x="40" y="290" width="275" height="130" as="geometry" />
        </mxCell>
        <mxCell id="-ysW1S-eQyqw77Rk8hqI-21" value="IRepository" style="html=1;verticalAlign=bottom;labelBackgroundColor=none;startArrow=oval;startFill=0;startSize=8;endArrow=none;rounded=0;entryX=0;entryY=0.5;entryDx=0;entryDy=0;" parent="1" target="-ysW1S-eQyqw77Rk8hqI-7" edge="1">
          <mxGeometry y="10" relative="1" as="geometry">
            <mxPoint x="360" y="770" as="sourcePoint" />
            <mxPoint x="456.25" y="660" as="targetPoint" />
            <mxPoint as="offset" />
          </mxGeometry>
        </mxCell>
        <mxCell id="-ysW1S-eQyqw77Rk8hqI-22" value="IApiService" style="html=1;verticalAlign=bottom;labelBackgroundColor=none;startArrow=oval;startFill=0;startSize=8;endArrow=none;rounded=0;entryX=1;entryY=0.5;entryDx=0;entryDy=0;" parent="1" target="-ysW1S-eQyqw77Rk8hqI-3" edge="1">
          <mxGeometry x="-0.25" y="-10" relative="1" as="geometry">
            <mxPoint x="646" y="490" as="sourcePoint" />
            <mxPoint x="666.25" y="520" as="targetPoint" />
            <mxPoint x="1" as="offset" />
          </mxGeometry>
        </mxCell>
        <mxCell id="-ysW1S-eQyqw77Rk8hqI-23" value="IApiClient" style="html=1;verticalAlign=bottom;labelBackgroundColor=none;startArrow=oval;startFill=0;startSize=8;endArrow=none;rounded=0;entryX=1;entryY=0.5;entryDx=0;entryDy=0;" parent="1" target="-ysW1S-eQyqw77Rk8hqI-9" edge="1">
          <mxGeometry x="-0.25" y="-10" relative="1" as="geometry">
            <mxPoint x="640" y="230" as="sourcePoint" />
            <mxPoint x="570" y="330" as="targetPoint" />
            <mxPoint x="1" as="offset" />
          </mxGeometry>
        </mxCell>
        <mxCell id="-ysW1S-eQyqw77Rk8hqI-24" value="Flow of Data Through the System" style="text;html=1;align=center;verticalAlign=middle;whiteSpace=wrap;rounded=0;fontStyle=1;fontSize=28;" parent="1" vertex="1">
          <mxGeometry x="262.5" y="140" width="475" height="30" as="geometry" />
        </mxCell>
        <mxCell id="-ysW1S-eQyqw77Rk8hqI-26" value="" style="endArrow=classic;startArrow=classic;html=1;rounded=0;dashed=1;" parent="1" edge="1">
          <mxGeometry width="50" height="50" relative="1" as="geometry">
            <mxPoint x="320" y="490" as="sourcePoint" />
            <mxPoint x="324" y="230" as="targetPoint" />
          </mxGeometry>
        </mxCell>
        <mxCell id="-ysW1S-eQyqw77Rk8hqI-27" value="" style="endArrow=classic;startArrow=classic;html=1;rounded=0;dashed=1;" parent="1" edge="1">
          <mxGeometry width="50" height="50" relative="1" as="geometry">
            <mxPoint x="320" y="770" as="sourcePoint" />
            <mxPoint x="320" y="640" as="targetPoint" />
          </mxGeometry>
        </mxCell>
        <mxCell id="-ysW1S-eQyqw77Rk8hqI-28" value="&lt;h1 style=&quot;margin-top: 0px;&quot;&gt;IApiClient&lt;/h1&gt;&lt;p&gt;Used to call a REST API endpoint using a HttpClient.&lt;/p&gt;" style="text;html=1;whiteSpace=wrap;overflow=hidden;rounded=0;" parent="1" vertex="1">
          <mxGeometry x="705" y="190" width="325" height="80" as="geometry" />
        </mxCell>
        <mxCell id="-ysW1S-eQyqw77Rk8hqI-29" value="&lt;h1 style=&quot;margin-top: 0px;&quot;&gt;IApiController&lt;/h1&gt;&lt;p&gt;Used to expose a REST API endpoint on the server. All exposed methods return an ActionResult or Task&amp;lt;ActionResult&amp;gt;. Methods are decorated with attributes, routes and authorization policies. Also implements Classic vs Modern REST API Design mode.&lt;/p&gt;" style="text;html=1;whiteSpace=wrap;overflow=hidden;rounded=0;" parent="1" vertex="1">
          <mxGeometry x="705" y="310" width="355" height="120" as="geometry" />
        </mxCell>
        <mxCell id="-ysW1S-eQyqw77Rk8hqI-30" value="&lt;h1 style=&quot;margin-top: 0px;&quot;&gt;IApiService&lt;/h1&gt;&lt;p&gt;Contains the main business logic for the service method. All exposed methods return an IResponse or Task&amp;lt;IResponse&amp;gt; for async methods. This only access the Domain Repository for data access because the API Service does not know the underlying storage provider-specific domain objects, it only knows the DTOs.&lt;/p&gt;" style="text;html=1;whiteSpace=wrap;overflow=hidden;rounded=0;" parent="1" vertex="1">
          <mxGeometry x="705" y="440" width="355" height="130" as="geometry" />
        </mxCell>
        <mxCell id="-ysW1S-eQyqw77Rk8hqI-31" value="&lt;h1 style=&quot;margin-top: 0px;&quot;&gt;IDomainRepository&lt;/h1&gt;&lt;p&gt;Contain generic domain-level business logic for a service method that all storage providers must implement and support.&lt;/p&gt;" style="text;html=1;whiteSpace=wrap;overflow=hidden;rounded=0;" parent="1" vertex="1">
          <mxGeometry x="705" y="580" width="355" height="100" as="geometry" />
        </mxCell>
        <mxCell id="-ysW1S-eQyqw77Rk8hqI-32" value="&lt;h1 style=&quot;margin-top: 0px;&quot;&gt;IStorageRepository&lt;/h1&gt;&lt;p&gt;Contain database provider-specific storage object business logic. Due to the use of generics and provider-specific domain objects,&amp;nbsp;this layer should only ever be accessed by the Domain Repository.&lt;/p&gt;" style="text;html=1;whiteSpace=wrap;overflow=hidden;rounded=0;" parent="1" vertex="1">
          <mxGeometry x="705" y="710" width="355" height="120" as="geometry" />
        </mxCell>
        <mxCell id="geVbm5HsiU-vjgryK6Kf-1" value="Major System Components" style="text;html=1;align=center;verticalAlign=middle;whiteSpace=wrap;rounded=0;fontStyle=1;fontSize=28;" vertex="1" parent="1">
          <mxGeometry x="262.5" y="100" width="475" height="30" as="geometry" />
        </mxCell>
      </root>
    </mxGraphModel>
  </diagram>
  <diagram id="MGHw0NWWF8wBpXEm_1MC" name="EventBasedArch">
    <mxGraphModel dx="1002" dy="545" grid="1" gridSize="10" guides="1" tooltips="1" connect="1" arrows="1" fold="1" page="1" pageScale="1" pageWidth="1100" pageHeight="850" math="0" shadow="0">
      <root>
        <mxCell id="0" />
        <mxCell id="1" parent="0" />
        <mxCell id="yfoPibArx9PtDL9tYnHz-1" value="" style="shape=image;verticalLabelPosition=bottom;labelBackgroundColor=default;verticalAlign=top;aspect=fixed;imageAspect=0;image=data:image/png,iVBORw0KGgoAAAANSUhEUgAAANwAAAAyCAYAAAA3FLVzAAAVXXpUWHRSYXcgcHJvZmlsZSB0eXBlIGV4aWYAAHjarZppciQ3koX/xyn6CNjhOA4Wh1nfYI7f3wsmKVWp20wzPaTEJZkZAbg/fwuyHv+ff97nH3zUkOwptVsbrQU+yigjTX6w8PWx3q8xlPfr+3H252/x18efnD5/SDyU+Z6/fh3fjzuP83P8/D4+N4nfz/++0PcPcfJT/eMPc34eX78+vj4XTPb7hT4ryPHrzuF8XvC5UE6fFZWv3/dnRW1Y/2Vr33vmiV8P2R//l9xTqy32wteSQu9t8LOlUDr1PFro3Wm8F6pfBf154Pv376cm1pQ8xxz4mr8qmlPW/yVPvle+8teHJ37/0vlac3kLH2glS2Cl43OjGX6K+efa/FGj//Dxd7YVuMl1PflPXfv5/htufn76DTd5/gqbn65Z+zwl/9rW0H6+/9vHY/2+0Pcf8s/905/vbPvzU/r18Ri/Ifpdoz+1+95j9900u5ilUYv22dT3Ft+feN5SFd9XNT57aA+oNX7Q5+DTwgwbTJ2wmbTFzyMmuntjiSfOeKO/33fcLLEkT53vKe0n5fdBo0kjbaAQwQef8aaeRz7ZQMx+MVRy+llLfG873tvtaOE84USemiIXi7zk//z5/N0n3rvfEquWeb61Yl1JBWcVIdJ+feNpdCTeT1HrW+Dvz98/1NdMB+tbZmODM6zn6xKrxj/Ald9GZ55Y+f419bGfzwUoEbeuLCZmOhBazDU2VtRT6jFSSKNBk6UzjWnRgVhrOiwylZwbzWE6uDev6fF9aqrp62FYNZeHMW2Mq9GhSbNKqeCnFwNDs+Zaaq2t9mp11Nly0+S11pvoefbcS6+99d7t6aNPy1asWrNuZsPmSCND33Uwp8PGGHNy08mVJ6+ePGHOlVZeZdXVVl+2xrPmBj677Lrb7tv22POkkw8Dftrpx84406MDJS9evXl38+HzArWbb7n1ttufa3fc+dO1T1v/8vm/6Fr8dC29ndIT+0/XeLT370tE0UlVz+hYKpGGd7pGxwC2ehYslpLUOfUMPWIqamKRVc05UR2jg8Vjqjf+9O7TuSfN/5++Pd3evqX/tnOPWvc3O/fXvv27rh1x8H479jWGKmrITB9/d5vJeEKamw2OvfrtZYWSKMeGa0bpD0tsdZ1VTq8pmAfdfd0z4tidxaTFigMb6CePller5u3MTXFWKh32MtbX22M0MJ/l1G6WsxZsNylwYSO0asTCa3hVKyunDVneVeoecS0KDqHl5ZCfr/pQMI/bvNjmSeHMUs7wWj2HbsjvvHaqs3HaFG1uv7Yb9LrmGfiAxKrByb7Pks7229hdv/vmte99izX6vTamb6thtgU59+ydH7APa+R7Tsmj9lnPGOX6w2pOLB1FrnODnR2PmTT9xrnZwQ1H1U1lRJ4wvOwbO1qwIuzjXqL34TT3Gfc/r2Z6r4LJslkoMaBhX6Gl0HyVkR2sFPYberz2XLDshmgAJcC5T2d4+qX69bDu8V465r2ap+N1VRAVB3O6JqsPDZi6g39qZLfm1elP6amPi6h4pXyt5XSuwa09ninctsOqqHNB9EAH3eqT73f7svNMFpwziIN6M8AvvWnSaiw1JYOHM3hJuxmro3oMHjtP5bZ5S1mFEjaj1fUZu/Y4gXc5Kd1D6cDfpLQnt+HhsEaepw2C223JMVz4rmLzLiZ9e3CK4TAkDWtIvs22VYSYgX68OS3gcjTOWKB42prqVWE7bS02vk+bugp8QvssP+ucmdb0AS4HE4oGLSZ8tDCrpQ1nMX67J7gF19aBQDwhl7kKcK0L/4UdtOmPA9fUdmw17AzC7ilg/w5wXy99hjL6ilQzu4/qMCYAXTetdvKtjr+/KO+aTD+bqoOx70w8dgvExrPX2IdZ5po1McYDGBbUi/Gfo1Y48YCHaT6HwxCU4WEEfMFXggWF6eyJ/jPCxrAmWIEnrpRZ2IYlqb2HJgZb9HxZBDbJBqT5wOm6Kh6GKtyOwPbM4zWfk9lJ2cwC9Zyx3AxJT4A0aFjowIgqNuipUymo1mdVc0M7sOplMafnfPwwN4vZYzQKQAaTXCuqZGGyrsSGBJKFmjA/YWP9Uq0MacElwJ91YMloV1nzBth9hIL0J0gGzIaxZQdx9agFM8UCzztCd+2H8ey38nBDMppuFylBLbMXny2J8CELzNwtUPg8jQuwcyjUGnMK2/vGgcQneotSm5etmOhRoJ4Gw5Y7+s4scHL/sLEu+0wGQDRKQ+l5d8Ca2U4DIs9eM18r9BIsL6O2VjfYhA9z4rk1dIi05h07eEJCRk6gF2Z0OJWW91Hz3etBZQavZ8WoUz0Rs3PrKJnijsUvEPdlPJZqwWU0eqLKmA7tkSjdaWyUC5WxpGUrzYakx3Ph6jxund6QrbLF3RZRmdoDIo7KwHQk0tIy+CeheGKo8EeFSfDCLjdihYBcdBCdwLbTIu8HNN484ZGNuCxKOCPy2CBeHB1OAKYGrPe5KYkNZ/HRIYLKMqFqMLwh02KRUYTna7yMp7bX+4SLoD6qHmeHA0DxsPtgFyekUYbkEunBEMBCeonYHiKabi9WDGfCDXOlo1KpzrUM+yEYY4ceXEBT6sJq3IWNgZZvy3YQyEnHqHs9fOBkDF+hi9DwVNpujlc1KA7azSMwtHBODxgU9pXHKqKbykjd3A5X7HFhYRgnJq7JM22jITSrOp4G/5h98pf78FvAYRQFD7d8eA3YG5AjOEztSjZA6G6ShBr9uF6ekHsq0YAyL+4wOXJEruq9OqUKIGjD3HiFZWgGm6M/mBeoKm4qEEE1ozCvQzFAi2SFhuQ5sz9kpIragb3Cf3QMm3KdCd2opTGEHXJAoBXSYExA3nGWUDXUh+5ARTCjzfWAM7q9AAzaCM1iGmk8erDBzpmN+UOw4WEQQ7lI3ZFsMBgbqcfCS1xrDOcD1lNedMTpZME2rRzmRN2SUAXuYDzmq12cJI5qi0kTarLkH9G3xaoL4HyoWrCF/bnrdvYZcjcmLQC71wkYYR2sNiqLLqCZwRE8toQ/7BuSQbK6j/M0s9IHtMUTDG99d0b8eS01wJ6cFTs1oBV43pFOkTxQVd90vczDvIeXPLE14UL9RxkXy116QMrhxNzEEdAd3E2kQsV6w9rTTgwpQIXQbSfSMwbnpmiPIQ48IzV6eDATqCwUsMtlQGg2ZicjNAOFa4CJzaM4hZFQyRlT/MJhJph+Q43wjarhJOciRQeORSB0fFMY2IaJwdPG6aHgUtBO1rORcRkcOU/obmTaT5OHR01UYnx8YwqyXdIIzL6a4VvwY8gIPL3kt/B574Iyc8fwRWThdi608NF0ZsvUU60K8tJhyEquK2t9lAbbhVIwZ7jr6HAGDiBDpJAdRgKlAuEgGxTRRtwwyDYXvtraG1sPRCdTuHTahV4zwRDOfI8aOuHBIU8ck3lSGH0kE2oVQrpPpPc4Oa6IGZkZ+zMS9YUUxy3rCBtQMmqFi2LDJKgTElPCNRBIP2dhgztsMAR+IRJFp/RpINJZBoJex3aRH4wPw7vwZqoF8+fUnHQfn1uY5gnJ9TNxfZjUfUkcp6/0GsE5kVC8TP9a7MqIxiE6YP6usoSfJMadD9pQekdHU18kS2iylgEYOzLBCy6mo+MWEd5XOAEzNTn3oPRYzbiA1tmQwxOQnV7O6c71oQyshjcjEzDIxvJmc9RZ4o83A+TGuJNpsEi8cGEqAFLAPTygj3gH92GWKC2E07UMRowrEnhrGNPA2A4Jq0DtsChnhcgMMSuyZ9B9Te0hJEAKTBE8NEd3PASuAX8Uor82HvF7WaDYqq8gzYChd0ywiA+w42NJaI8B+9S4izUCIk6fBSWZUUdaUEePQdEyvQa5S6Ox3BhX0NdlswmSnYDtT6aqm24MSJlh1IEJnjMP5Mk3o9xgRKuYUUIOvqpcvp5N8HaCpy+YiGEHek9rMgUVWxuqLZpphZZqDkAF98LUy7GHk7k9Pp2swohaZHOE5MMYsfW0zmPoNUYIu+oY0hMPdoVbbbkDhIenDH+boEwOy7DWligM7AuPgjFmGdq/zww+MeAy8qAL93BJ7qySSCnK4fYgaXvHMoJqCoHriywe+4Kzg7NpXtuBdOQBgsEzEQfaIooRUbBaKHpjMBtWt6XCVEb6jEKTbSrmmySQbQFYwgF22Gp8QDHMRq9kD+jgSeosKoRGGc/R8VrcpGUiBz4aCWcIjpwR+IBwinSOwj04tYwH5lHlpwyG4WMGmUkFJk3REtsLfpsPQKEoxXqX/HGyvU8awiVZhDsQfUDvYowKFgQAEwExZzBQcQfSkdKSS+eRGzC1mz7HvZSrwQq2AYV4IFwI5BBDs/AqMWRCMKhXBxIUIWcFpoO7JIcwp7iUkJT/4OQWIyG/Q8712fhUNkvOZPOQR6DAGLu0d1m0jD8CA4aX7VG6A8uSk0QFJE9aCzwvHtoaPttJVwRuxC0BrUOwLzKS8ukHnwvCD2rgCWEmdma15Wxc0uRHMY+TMwJuBDlQpsUWZZSS0ZUYIRclENgDIuiONWTAcTa3bJEC5mEvzwu+NVqI/7zjoUCV/CMzUxSqCM0NcV6FoHCu3scZWEI4o+noBlnGVlFoJSkdqJB+KDy1fSK2CxlkbNEbDD5ooaCzsitnL/QMOccWJPFMxiRDuLimVTpB1HXSgAPV1oQThk8kcKHeTB6Vt96kShgDWz2kKQmbofyvQOB6CcTwxU0kXb4vfLaueOy0ofwD8TAoMnwVugfXbBYkJoIcQZg2EQtxPOeSiPDYZMuLizgjpafkxbYtmE5752VXyGztOr7DKDbyZqXmFxsT6CcD0/rmF+wKSGbMCcbitvRQUHB6CnZ/rj0FgwZAFcwOQZngmzZTgwOWrbGYdUCz5PxYBu0zqN8wcg9pEK+EtjhSmRUDmIIoudqIuw4yyOlYEKxql+bRfjQnTQp+vHCTga0n5z5fEGILjco64oijQzvxk9MocXdmasCQMsdcF4ICgNi+S92JqoiuOfO+n3GxLke2lTCC0UPA5bi4HqMJy8FLuA/i7UFzFgrHHgdMmCFr5hjtEId3nfq5fLI8batLIYG1Xb1tVGny0JmFDuPML0SIkSc+wwpLg1znxKwNefjSHiUjsu1x8BUQ9KgcwTNKIJXiyDDc+323jAIpDkJjacHSzBAtxJa9Gnzrg2PFZIA7I6f3tCMxmTCLtr/nEfSMUp7++tRMLIKpkYeGIW93RtHfiNoV1g9ePzrVZBJh1KXjlmzvm3nwOtxIioMqUz38fwnA+ICguI4VJrxQt2MIybPRYhDI1ggJWUdq+3VsbEFHH3SZuEnPMqYeZuBP5HxGXPQtrYExiK/qGqEA8zxeG4SrhXBfE0GCyPJXNe33OOKkMrfO8b7OxRD0wsg0pLA6ay1PQti0NxwiiR9jei+GhV7AxkwPOYbAQyjBOhHG3ugPTerwlutvzJWr0XE8Oym7YCl0ggphMG2EWUIw9hTFw6Dt143EqYOlYO0qLpF6GTj8MUFvITF1PISjVsn8ybzGgQfYIJcvMDT3WZHSjoh5k9VSSGmEb2AI4RGAl1iS6+JkngguL0FkMiU0B9sGMurNsHXRuFRonyR+YqPK6CvTRRTYms/X2eOxsTvXHsL9RejS0vF7hOuNXWEHrpIaeHhlKZRx8RgvlUWMc0cKEEH894SLMldqD24GQofYDwEj4sXQB2U+rK8DXgPH13ovUEhDVxVz4Rz+mpPMdNWpqQ4sHprqOrEUMxoSy1gxqKDBdX8NDg4OKwzxosM6AsDHo2BMInceVKehmSs/pCdoiECwSEPYbz2VpmgwyaqUmEH6wgDVV8kJTgxeBSuYE5RdR6vA9ZnYznYOmMXWnwxLGJotqH8dZRCFYNu3OjwFQhaNHybadbrLjXW6CHc8gCdIvSezswjWC2NJ1xkxhnh6RAMYKkUAYhdeWu+hEkCRZtwiwZfnAW+T0Xqtuut9CojPlZpMODwMmMnFkoxpYN48AxMBvQ8NOtlGKWHohJTArff7GSa9jQWyO9vA81d8oFI+K2Dc3vcydE6AlCEuDGtpXcngdFzwjjAFJFZZEWDF911FTyrJ3g8rODNtI4iRwKGHDVYYP+aZFHtghzyD3jzBLEH4FRmZT2K8N0VAdZeOj1LXOWPUyTjf0SGWa8aP1RJOnhgy9K7j0FE2okNjZK6xxzxf76xIoBETlIGcERVLafQgSAbyAJNCrbmT3gTC+nxRDmkJUyLrMZeK/Sbg1MkfZAm9rUXex5wIsUvHWVq3jWqyTI2kUYnjGA/ocTFpKgEyOOHsunVagGfyAC197p7xz+m1B8PrawOJEAQVZRh6sA1+Q/T39Y8baQ+xDimOzM7WilnvzNYrtgXKaZX74CMbNtt08KW3wJhZKoigDL32+3qvG+GCg4VfAC+bvLE2h8tG8pxORcETxsQsxrgYMPw9N/OFbi+FNR1V4Wq5I2BHr4lYlFIHzugXtkzMQ15H3OjrwEwUF8B0ZkPnY2DG0816EwAkzPSknlynpoxD1/tx2FqYZjf05DXISYNGyMESboXLDvkNyW8qOEZSPSkS60mxcbeoFgqB4QhSzhgQ9zYZg2bVv86rWQzuA2t/r/7diOstxiKmJWrsA4/ER3mz01Jc0506kUSVAXdv6TgqxJgvNh2r3m4hJuHc9ssFv9/k+dzF6A/GHbKuzAz2H7dB9QrVYnTwAww43WiEGcx8kwFH+qtiCChiYh7HKBBeyyzUYDpZBeUW7YAgxvoO8Euf8GikPhw9XVhJB3YSU5Qk7pqpyXqckAxSjtzG1LvK4pB8I3xLM0vsJ3rH3aFx0lBn69UTWXkEJPdW9nmC1f5ETJZLehBneeFx9I4T0UtnMGXplK/q/QYYiV34hOKL3mllhRv/Y+hmNSDwsNumvFB2Q5DeQzUgRjTukPTcctxFb+DolMHO+17Sy460TDpUCReazvQETGiWZhMaLvah62AcyKPEsArSTVbIbbUcXMc2cl8JL1t1ZH70RqX+FdBi1gjNVBir0basKy3GaXgVNQwh8+hgNIlSsmIjJkGW9tazGzPDYPVKwUN48GBKAuEYugwrw7RTRpHAgdhImomapON9g45Ke5E/GxfiJz8vTLP+GcuJ63n1gOIybgp7FNhlE7hT1HsAemPbaVsATphNhErypxD15h4C3CLrEJAe/WsU10mTMyPYSYyJjjyUFJEVJDiSK4kbWDP90xuU+H2vceCV8JUrb4QA60M6StgNqq63UdL3eP0yXF//LAtGZwmXhEYKG9BQJjaRekwHodiQh/x+5brYVO3QOzeBZSYmMqkGP0IA9WFAKeq/AEnQe2geqIoWAAABhWlDQ1BJQ0MgcHJvZmlsZQAAeJx9kT1Iw0AcxV9TS7VUOthBxCFDdbIgKiJOUsUiWChthVYdTC79giYNSYqLo+BacPBjserg4qyrg6sgCH6AODs4KbpIif9rCi1iPDjux7t7j7t3gNCoMNXsGQdUzTJS8ZiYza2K/lf4EEAfQpiVmKkn0osZuI6ve3j4ehflWe7n/hz9St5kgEcknmO6YRFvEE9vWjrnfeIwK0kK8TnxmEEXJH7kuuzwG+diiwWeGTYyqXniMLFY7GK5i1nJUImniCOKqlG+kHVY4bzFWa3UWPue/IXBvLaS5jrNYcSxhASSECGjhjIqsBClVSPFRIr2Yy7+oZY/SS6ZXGUwciygChVSyw/+B7+7NQuTE05SMAb4Xmz7YwTw7wLNum1/H9t28wTwPgNXWsdfbQAzn6TXO1rkCAhtAxfXHU3eAy53gMEnXTKkluSlKRQKwPsZfVMOGLgFAmtOb+19nD4AGepq+QY4OARGi5S97vLu3u7e/j3T7u8Hhk9yr+eNY/kAAA12aVRYdFhNTDpjb20uYWRvYmUueG1wAAAAAAA8P3hwYWNrZXQgYmVnaW49Iu+7vyIgaWQ9Ilc1TTBNcENlaGlIenJlU3pOVGN6a2M5ZCI/Pgo8eDp4bXBtZXRhIHhtbG5zOng9ImFkb2JlOm5zOm1ldGEvIiB4OnhtcHRrPSJYTVAgQ29yZSA0LjQuMC1FeGl2MiI+CiA8cmRmOlJERiB4bWxuczpyZGY9Imh0dHA6Ly93d3cudzMub3JnLzE5OTkvMDIvMjItcmRmLXN5bnRheC1ucyMiPgogIDxyZGY6RGVzY3JpcHRpb24gcmRmOmFib3V0PSIiCiAgICB4bWxuczp4bXBNTT0iaHR0cDovL25zLmFkb2JlLmNvbS94YXAvMS4wL21tLyIKICAgIHhtbG5zOnN0RXZ0PSJodHRwOi8vbnMuYWRvYmUuY29tL3hhcC8xLjAvc1R5cGUvUmVzb3VyY2VFdmVudCMiCiAgICB4bWxuczpkYz0iaHR0cDovL3B1cmwub3JnL2RjL2VsZW1lbnRzLzEuMS8iCiAgICB4bWxuczpHSU1QPSJodHRwOi8vd3d3LmdpbXAub3JnL3htcC8iCiAgICB4bWxuczp0aWZmPSJodHRwOi8vbnMuYWRvYmUuY29tL3RpZmYvMS4wLyIKICAgIHhtbG5zOnhtcD0iaHR0cDovL25zLmFkb2JlLmNvbS94YXAvMS4wLyIKICAgeG1wTU06RG9jdW1lbnRJRD0iZ2ltcDpkb2NpZDpnaW1wOjAxZjQ1MGNiLTVlMTQtNDZlNi04ZmQwLTEyNGRlNWI4NTNiMCIKICAgeG1wTU06SW5zdGFuY2VJRD0ieG1wLmlpZDo2ODQ3MTY0MC03NmQ2LTQ1YWQtYjM0Yy0wNWJmNWJiZmI1ZmQiCiAgIHhtcE1NOk9yaWdpbmFsRG9jdW1lbnRJRD0ieG1wLmRpZDo1NTQ4MTlkNi02ZTA1LTRlNGQtOGJhMC04Y2Y4OTlmZGIxNjUiCiAgIGRjOkZvcm1hdD0iaW1hZ2UvcG5nIgogICBHSU1QOkFQST0iMi4wIgogICBHSU1QOlBsYXRmb3JtPSJXaW5kb3dzIgogICBHSU1QOlRpbWVTdGFtcD0iMTcxNTMzMjY3NjI1MDIzMCIKICAgR0lNUDpWZXJzaW9uPSIyLjEwLjMyIgogICB0aWZmOk9yaWVudGF0aW9uPSIxIgogICB4bXA6Q3JlYXRvclRvb2w9IkdJTVAgMi4xMCIKICAgeG1wOk1ldGFkYXRhRGF0ZT0iMjAyNDowNToxMFQwNToxNzo1NC0wNDowMCIKICAgeG1wOk1vZGlmeURhdGU9IjIwMjQ6MDU6MTBUMDU6MTc6NTQtMDQ6MDAiPgogICA8eG1wTU06SGlzdG9yeT4KICAgIDxyZGY6U2VxPgogICAgIDxyZGY6bGkKICAgICAgc3RFdnQ6YWN0aW9uPSJzYXZlZCIKICAgICAgc3RFdnQ6Y2hhbmdlZD0iLyIKICAgICAgc3RFdnQ6aW5zdGFuY2VJRD0ieG1wLmlpZDpiZWVmNzljZi0wMmIxLTQxMWYtOWU3Yi1lZGU3NjVlNDI0NzAiCiAgICAgIHN0RXZ0OnNvZnR3YXJlQWdlbnQ9IkdpbXAgMi4xMCAoV2luZG93cykiCiAgICAgIHN0RXZ0OndoZW49IjIwMjQtMDUtMTBUMDU6MTc6NTYiLz4KICAgIDwvcmRmOlNlcT4KICAgPC94bXBNTTpIaXN0b3J5PgogIDwvcmRmOkRlc2NyaXB0aW9uPgogPC9yZGY6UkRGPgo8L3g6eG1wbWV0YT4KICAgICAgICAgICAgICAgICAgICAgICAgICAgICAgICAgICAgICAgICAgICAgICAgICAgICAgICAgICAgICAgICAgICAgICAgICAgICAgICAgICAgICAgICAgICAgICAgICAgIAogICAgICAgICAgICAgICAgICAgICAgICAgICAgICAgICAgICAgICAgICAgICAgICAgICAgICAgICAgICAgICAgICAgICAgICAgICAgICAgICAgICAgICAgICAgICAgICAgICAgCiAgICAgICAgICAgICAgICAgICAgICAgICAgICAgICAgICAgICAgICAgICAgICAgICAgICAgICAgICAgICAgICAgICAgICAgICAgICAgICAgICAgICAgICAgICAgICAgICAgICAKICAgICAgICAgICAgICAgICAgICAgICAgICAgICAgICAgICAgICAgICAgICAgICAgICAgICAgICAgICAgICAgICAgICAgICAgICAgICAgICAgICAgICAgICAgICAgICAgICAgIAogICAgICAgICAgICAgICAgICAgICAgICAgICAgICAgICAgICAgICAgICAgICAgICAgICAgICAgICAgICAgICAgICAgICAgICAgICAgICAgICAgICAgICAgICAgICAgICAgICAgCiAgICAgICAgICAgICAgICAgICAgICAgICAgICAgICAgICAgICAgICAgICAgICAgICAgICAgICAgICAgICAgICAgICAgICAgICAgICAgICAgICAgICAgICAgICAgICAgICAgICAKICAgICAgICAgICAgICAgICAgICAgICAgICAgICAgICAgICAgICAgICAgICAgICAgICAgICAgICAgICAgICAgICAgICAgICAgICAgICAgICAgICAgICAgICAgICAgICAgICAgIAogICAgICAgICAgICAgICAgICAgICAgICAgICAgICAgICAgICAgICAgICAgICAgICAgICAgICAgICAgICAgICAgICAgICAgICAgICAgICAgICAgICAgICAgICAgICAgICAgICAgCiAgICAgICAgICAgICAgICAgICAgICAgICAgICAgICAgICAgICAgICAgICAgICAgICAgICAgICAgICAgICAgICAgICAgICAgICAgICAgICAgICAgICAgICAgICAgICAgICAgICAKICAgICAgICAgICAgICAgICAgICAgICAgICAgICAgICAgICAgICAgICAgICAgICAgICAgICAgICAgICAgICAgICAgICAgICAgICAgICAgICAgICAgICAgICAgICAgICAgICAgIAogICAgICAgICAgICAgICAgICAgICAgICAgICAgICAgICAgICAgICAgICAgICAgICAgICAgICAgICAgICAgICAgICAgICAgICAgICAgICAgICAgICAgICAgICAgICAgICAgICAgCiAgICAgICAgICAgICAgICAgICAgICAgICAgICAgICAgICAgICAgICAgICAgICAgICAgICAgICAgICAgICAgICAgICAgICAgICAgICAgICAgICAgICAgICAgICAgICAgICAgICAKICAgICAgICAgICAgICAgICAgICAgICAgICAgICAgICAgICAgICAgICAgICAgICAgICAgICAgICAgICAgICAgICAgICAgICAgICAgICAgICAgICAgICAgICAgICAgICAgICAgIAogICAgICAgICAgICAgICAgICAgICAgICAgICAgICAgICAgICAgICAgICAgICAgICAgICAgICAgICAgICAgICAgICAgICAgICAgICAgICAgICAgICAgICAgICAgICAgICAgICAgCiAgICAgICAgICAgICAgICAgICAgICAgICAgICAgICAgICAgICAgICAgICAgICAgICAgICAgICAgICAgICAgICAgICAgICAgICAgICAgICAgICAgICAgICAgICAgICAgICAgICAKICAgICAgICAgICAgICAgICAgICAgICAgICAgICAgICAgICAgICAgICAgICAgICAgICAgICAgICAgICAgICAgICAgICAgICAgICAgICAgICAgICAgICAgICAgICAgICAgICAgIAogICAgICAgICAgICAgICAgICAgICAgICAgICAgICAgICAgICAgICAgICAgICAgICAgICAgICAgICAgICAgICAgICAgICAgICAgICAgICAgICAgICAgICAgICAgICAgICAgICAgCiAgICAgICAgICAgICAgICAgICAgICAgICAgICAgICAgICAgICAgICAgICAgICAgICAgICAgICAgICAgICAgICAgICAgICAgICAgICAgICAgICAgICAgICAgICAgICAgICAgICAKICAgICAgICAgICAgICAgICAgICAgICAgICAgICAgICAgICAgICAgICAgICAgICAgICAgICAgICAgICAgICAgICAgICAgICAgICAgICAgICAgICAgICAgICAgICAgICAgICAgIAogICAgICAgICAgICAgICAgICAgICAgICAgICAgICAgICAgICAgICAgICAgICAgICAgICAgICAgICAgICAgICAgICAgICAgICAgICAgICAgICAgICAgICAgICAgICAgICAgICAgCiAgICAgICAgICAgICAgICAgICAgICAgICAgIAo8P3hwYWNrZXQgZW5kPSJ3Ij8+Bn0PRAAAAAZiS0dEAAAAAAAA+UO7fwAAAAlwSFlzAAAuIwAALiMBeKU/dgAAAAd0SU1FB+gFCgkROOWU/FoAAAAZdEVYdENvbW1lbnQAQ3JlYXRlZCB3aXRoIEdJTVBXgQ4XAAAcaElEQVR42u2deZQU1fXHP9UzIAQim2JY3EBNNGrcfmqM0UhMFJgL6uAalzYpjWJiFMGFGEWJuyYuqImWsdQYNIg681AUo6LRuBI3CCqgoiwqiMo6MDNdvz/ebaeoqe6u7pnpwYR7Tp8z3dP96tV7727fuxRspI20kcpGzoYyERHZGdgb2BP4HjAA6BP52ofAR8As4CXgZWPMzK/t6nt+h8hmNARuOsi7YZ7foj0Lj590rGLmVOi7pYyT/bzosT2/Asi+ABraeo0Ljt3OTNYbOAb4BfAdoCOwHPgYmA98qgwGsCXQG9ga2ALoBtQDs4G7gInGmMVfAyarAHYHDgX2A1L6nwwwE3gFeBRYTdzmef6JwM4lXn02bvrO0FgnAd9N8Lt5wGrgWWAhbrohMqcTgF303RW46c9LWJctgFF6Jv+Nm75PP98eOAVYB1yMm25MsL7fAg4DfqDnZhs9K+8Ab6mwftyBVc0YxPO7ABeVyBsZ4Pe46ZW5vlDZTozWCxgHHAv0BD4B/gwY1V6fGmMacvy2QhlvZz20RwHXAheJyF+BK4wxCzdQZvsWcJUKmQ4xmzoYaFCBcyOePwE3vSbyncOAw0ucwRTgztD74QnHygABsAaYgudfhZt+PfT/JcAY/bsDcHYJczsDOFevs2fo82107JXAJUBjnvXtFzpXnUPCLEvb6plpAD4M4A94/h246brQd74BjI75bRJqAK7TubY/w4lIJeDqovRWiTkBmGKMqQstXG+GV2+v2ixM8w3MwU0vBhYDT4jIb/Wg/gYYCRwlIlcCN+Zi2nZitq7Ak8BOeqg+Uk22RN9vpxqvv76uBI7C8w/DTS/MwQRvFymJP8rxeR3wfp7fdQb6Al1UWByC5x+Bm56u/5+ulsmmwDF4/uiCmqi5VjlX370LvFHC+n4fuF81GiocZgJPqXZMqRbeWy2kAcCNwFA8/3jc9LKYUd/Ny+DxDJf3+5VlZLZ+wG3AEGAu8CvgQWNMBs/vzPDqwcBQlUBbq90dPUwB0IjnzwceAaYaeBo3/ZCI1CjjXalSpkpETjbGzN9AWO5yZTaAP6rZsgY3nQmZQpvo/V+sh6Mj8FmO8Vaor1vMHmZyfP4fZfZczJvSax0DnA70ACbj+d/DTS/ATdfh+RcB16s5Vw38vYh57a/3CnDDV2uSnNl+ADwGdNUDP0nX+10H1n1lNlqfuasK5nP0PgYD9+L5Q2JM+J+oW1MMrW13hhORPYEHVUreCpxvjFmui3C0moR9E6hxR+c8EDhTmXY+nn+BcdP3A4+IyHRgPPBr4DkRqTbGvNzO2q0SOEHfPQ6Mbra5ViOsBh7E859Shrw9Yu4Q+U2DStWWUoCbXlvgOy84nv9SAP8GfHUFrlUmBLgPuEZNyguTMpzj+U5gBZADLHPgL0Fxa7uZnq2uuhYXAddk/cxg/fWqBz7H8y8H7lHzek9gFPFgx9q8618CpcrAbAcATwC9gOONMSPN8OqVeH41nj8AEDWhUiXOf1tA8PwBeH61GV69xhgzCjhaJdhjOof2pD5Ad/37MQqhbW76C2XK2RuSCxq46UwK7g6Zpj8IzfkT1SwA38Xzt0rG6Xwb+wKYFBRm/CiaeLu6J4G6Klc1A3War2+Am/4QGAYcVM51TpWB2R5ShGiQMeZ+PL+nSsiJyhCtRT10TB/P72GMeRAYpNd+SET2bcezGjbVeif6RbFmVZkoY4VFrb7dPMZsDvRcXZFwyCxAsQa4tDi1TF+gSt++o8yWfN3c9Crc9GvlXL9UGzLbAOBe3QAxxrysUu8ZNa+cmMPY0gPt6NhP4/lbqSkp6h/8XUS2bqdzuiRk3RyuQufrTJVx/krK+oKz9O1Qx/M7FjAHewIn6rtXFQgrho4PzeWMgpptA6BUGzHbN5TZNgd+rszWXx3bbAzpCWx856/AFy243DIdY56OiTr4j+H5/ZXpTlYf8S4R6VD2VbbQftan+Q7wOJ7/Ezy/My0MZLeDP9pJhRjAohjtd56+7RZYgCUfHaE+XwCMofig+VmhM/DPr5Okam0aA+wLjDPG1OomjcdCxy8pwnai+ipT8fwLgHSJ1/ozbnqqHoaT1Hnvov+7BM8/zbjpB0TkD2q+nIlFMctN52ID3jsAe2FR1nnKfNOxEPaHQH3Cg1eB5+9ZxB7Oxk0vbwXwZ7wKL/QeovS07u83gdMdz78xiA/gZ8dC1+GVIufSJeSSfNpK4FGU9sDzlyX8bj1u+t9lZzgR2UkP9quKWqFIz8l5NMCfgD+1giZZAvw4x39/r/b+70RkkjHmwzJruQ/x/EOw0PkQlezf0dcZemBmAE/h+XcC8wv4I12B5xNevQL4qTJDvEluIXMnz+93UY1ytH4204GxQZw29/zfYwP8OwSwGxDnJ+2GjYcBXFuCz+qE5ruOFqSU5aGHiQCdeegzoF/ZGE5E+qi5OBobTzrDGLMazx+JhY+j9IBuykBFmr4Z8511ocP5SA4T+GNsCOBDYCw2eyLiW3OGcdO+iJwNTAVuEhEfeBN4zxgTlInpPsDzR2CDryOwccetdR86Keq3n97PbXj++DxpQgG542rF0vbAtDz/3wGLMm+i13weGBG46XU5vn+3AigVKnQPjvnOpcowS4sOBZQRIyqC4RLtRWULmayHHvDTgB2xmQaN6lO9oqlMF2EzFaJ0gkrLfJK1MzYDg5CZGKVtsSlh9TQFT2mGnnn+w9RMflIP1iFYSHgNMEdE7gTuMcZ8VgamawD+hee/qBpiALAHNvg7SO+nu5rle+H5Q3PEglYqIyTaQweW5Dk53wR+VGCIddgY4gPA33DTq/Pc48d4fo36aPvg+d3Vfciag/1U4wI8HNj4WLEUvp0OeL7TBlru+8DShN9tbDOGU1DkTH31AT5X9fuk+iJzjTEBw6vHhsyGOOrYSgvjFBirD3COMeZ3IjICG/fbUc3Pw7GB1wtE5FbgWmPMyjIwXiawKVX/Af6D5/9NzcQhwNXYFKVBwKnYFKTmEtVNf1zK6YyhRTlM+t5q7jrYNLIj8jLa+jRO17arWj0Xhv53imq/OuD8ElewDpso0FHBuUoVuq1JizW+2H6gicbWbsWmKb0J/BaY1OyQ2lSlgzcg86Aazx9nrIn2tr4eEpFRKonPwqZUnSAipxpjniyzj5dRUOk+PP819Xs6A0fmYLjWPljjm0kxz08FtirjBGBXYJzj+eclKZNxYFZgwZDtgJPwfJvp7/mdaUpuflURxlLWqxHPv10tgV7YjJEX/2tQShFJAb9UhG+dSq0Jxpi1eH4nhlcfoKbaXqpB9qWpDmlDoArgG3j+i8AC4AXgSQMv4abvE5HJCuxcBjwqIufq/TWWfaZu+h08/zHVEL3aa8ECN53B88/Uw7wTMCqw8LtJ+NuzsBUK/bE5oo8AP1TXA+DMFpqBPrakpwK4Gc/fu6ik6XagVEJmq1An+Cas1Pq+MeY6M7w6paDIG9iM8bFqm2ezphe0cH71KgGXtYK5sEDn1KhzvFjnPAPPP80Mr04ZY25T4GKmmpmX6723nDx/d8fzi4l7rk1mDbY583+BzZdcpwfb05hqEnoa+FL/vljvPwugzaWUqoD16R1smAlsyMUtqnjU8zvh+UcVuS9ty3Ai4qgUOQ8LWw8yxszG83fHZo1MULMhi5otBAarrT9CD2+mhFcjNp9wCm56ijJzpsTXTGCEzmkotv4uiyrtBNyCzU7Z1RjzrjLkVGzs7Dxdg5Yw2z7AswH8Sct0Cn2/SwhUeL/dxbKbfkv9rkD9ugccG0cr9LvV2OoNgF0Di8BmC16vbnH6mtVmJyr45QA3BnCKujOF1ri7oqn3BHC2U6YEhCQm5RAshDsDGGqMyaI2K9Shj9KXuOlFuiCf4/mDgc1KRKHmht7fis0kKWVhln5VheymP9LaqW4x31sNYIz5TEROwNarjVNfdUoL1vlaBQ9c4Ed4/tivkNXwobOStrf6bNn0r7vzHJpUkX54QGmIIA7cG8BB2ASFfQK4Ds8/K4FJeDc2BroJUKNCfhnrF8K2hOnmacLD3xRAuQn4Hp5/pfqmDZH16qiuz1U0JU0fGsANNA+ed6BQelrzdarP5+NWFtBuW+hBXwEcZYxZiuf3cuDzwKb39I3dVM/3cNPv4vnbYNN7UrFMYIPAu2KrtuNoFp6fPXBH0VRPFmXMiWpejMrBSA14/k246UV4/o7qq8Ux7iLH828IYDPjpj8VkWPVZLlFRF4xxpSKWB2rB2wQNuY1EfgAG+SeE5pLH73PvnpfD1fApBxOSRfgH0UKoPmUmNETWJBilPpgA3Vf/1HQn7Nr/gA2BJQVIrWtmffowGRNI7sBW7F9OvAzbHrfGyFGGogNweyGDUc1YlMQR+aYz/1qShejJU7CxoRL0nBj1eE91hjzHp4/CDg5sHVo1+QBRU7B8/+NzWnM5fQ3YGNiv6apVixKjdhrdcAG1XOZwD2Bm9Uvq8wzpzcU1Nk01/UCuAOYiOePN256uoj8WhlkLLaqvBQpvMDx/CG6GWdh42fbhUzx0NkBLOR9G/DbxtzSshKrcYqhlpWhWIvlaAWcOgB3KFDxQYFfjldB4ugB/l0bgDt3KOp5qZrj3ZTJj4pZ3wYV0NcCfh7m36+E6XyjJJNSRAaq3f48MAnP761SekaCi3ZXaZ7Eh0wVQBb3TDBOpwT+aK+Ec3J0/vYw1UyepEx/iojcaIyZV+KhqFfA4T5skPtQbLpUT9VoC9WSmInt7zIrB+L2fAhACiIHKdC/gxyab0GOsd4rgulm4PmuuhoONvHhhgK/elt94r7AHL3XpPQJNvG7Li+AZAXT63h+NTZgfRhwoArqjspkM1XoPAxMyRFTXKvXS0XWN0hoTawodLhyMdxVWOj/YGPM03j+VQoiPKQm2We0DPZvwIYOzlb13xK6V1HFF2lZ9kyjMuZTanqMw01fIiIHqfl0rTHmPDbSRmpNlFJENgGOwwZfn8fze2EzDv7X6Ew8v4dqgteAI0Wk48Zjs5FaG6XcW323W40x6xhefRJNuYyZiDlTsulNE2zfUsqO0xpzCmjKi+sJ/MwYM0FEjCKWe1BCRkMxoYUkydStPV6uMYtJ7NaubKmQ5dMAZAolD0SvW+r9ly0JvQ0YLuuMT9UmL9mY0EIsxLtSQYQrKb2I9Tq17a9RW3urEsd5BxuU/wCLeo5pgTl5PrBKwZHJihoego01PqEMd0CxDKcHcRzJckcbReQDbEjkX8aYNTm+N5jCCcfZ63+IraZ+DliahwEuZP2qDafQempiQF8san0ANq8xC7e/BSwSkZnYRj8LotfWjtsnhYWliEw0xryW55qHxvnjInK/MaYZxnDEEUf0aWhoOC4IggOxqHgv9ftXYdHyOY7jvKXr83Rtbe2KcjPcbtgq7FmBndjCkKNpG4B6/vVYmL57CdddBozXSui3NH0oXeI93IabflvndKlueClz+hQ3nS1MfQHP/x22fu5jPL8jNZNnqKDZq4SxK7DoZJciNHYj8K6IXA/cGcMkBxQhXLIWwCps2tpYY8wHMd8biW1zF6YxeQ5+XxXAI/TeosK3X+j6FwF/E5FrgPkhbbS9YgVheoP4GjpEZBdsxUJ0LScqgzdJpMGDN62srBxfX18/MsdZ76avgUEQHKr3WiciFxhjri8nw/XFxmwadbGu0s/r8e5ycE8KVFrnahTzOW56ifas2CwBYPMGTaX50YOSPRjb5NCmdRGfNNecluKmlynaGs+Qnt8FN71K2x48RVPZftZcnU987LEtfOsUNivjT8BWIjLOGJOJmL/FjtcNGxP8kYgcaYx5vpTJqTl3KLaOsV/C63fHxseGYxMAHivhurvo76LM9gJwsjHmq5jZ8OHDt8xkMo8RH7vNR52wRcHl0XBq/nTD5sAF2Pqsd5rMruAmPP8FbPxs/xzjvo3n74ENiuaKZbyM5/9RVfw5ecytbEFpTY7/r8Hzr8ZC26Np6nEfpX/h+Qdjuz1/O8d3nsPzb8IGd08Lrc/WWEh9JdBDRCrKmNRcoeb7VD1YrUF9gMkispsx5uMSfn8sNl7ZqcjfOcqg94lIX2PM6iKYbVtsPV6fZvtqm1R91dDo1FNP7bB48eLJJTBbu/lwYenZM8Y0OqvAuJthA6P5Urr2VjOgEBUyDztjA94knFO+7Pv9cwiRaHC6NfLulmLjQlEaqIcyFVn3XyVguJfR9LQQbYtNF4sWAW+hgq4on1dEtsPmnsYx20q1DLLNhXZRkKlzxGo5p0hm2wIbjsrFbOuV+CxevPhI4P9ihprpOM7F9fX1/9xyyy2/WLx4cbfGxsb+lZWV+wdBINhOy065GS6M0oFtYbCRmro+r6a4fvO56AVsS3AnZk9+o0BQmKrJH68MsE8hejdGQ+6ALWr9aeR/vxCRc4tE9+6lefpctsr/fBUkmdC97EBTMaoDXG2MuaMIZuutmu17MetXZYyJe1LPsDgBt3bt2n2nTZu2KiL0lgKvAxOGDh06IJVK/d5xnKBsDGeMaRSRpdi0o5QesFVFOPz/bfSlSu6USthZrQQ/Z4wxcYnE60TkWtU+vXL4vLmoPuzHhH1kzQudy/rNd3tgwz8fJTz8+6llEqVLgMsiPibYNK6ZInK0auid1DxOymyd1QqKMtv7wLAczIbeU7N13W+//dZMm5a7dcsjjzzyHjb+3KbOeRy9qeDAZtgq5Pf436W52HSdPromb5Xhmt/EZteHqUV9F9XsWlwAvCpEv82hqS+PYbb1hDi2AuKMImKCnbApVlH4/z3gp6GqlTiKa5fed8aMGfdUVVVtvyH6cDOUGQ/ETd+P5z+fB4zIZS6txRYg7tCC+X2C7fmR/XuLFoz1tM7pBZoamSahZ3HTDYhkzbGXWmntO4hI95gDvzsWau8aMdnGteRiiizG+V3FJB7EgRAXJAGQlNGSVgg42LKeqhjNdogxZm6B379JfN7scY7jHCci8xzHeT6TybyQSqX+UVtbO7e9Ge4JNQdGYEsUfJpaUifRCEfiptfi+b9Sp33/Euf3K9z0qwBaGnJ7ieM8o2M14PlHKriwXVKfRaqqHGzh6ipso6TWoEOIT+KtZH3EtlH9uX+1gNkqdC+jrd5XUVwicVyr+Ffa4FyOwaLXUTotAbORyWT+mkqlfpNHew8MgmCg4zgnBkGAiMwJguBex3FuLqA524zhPlG06ccisrlx0y/h+Un78q/76tFH9oBXUzx8nKVwC/RJ5O+dmI/qvirBsILghyTtGOaml2KfbZdNYF7WSmtve6wUpieAa/KZbCEaJCLRkEdPbJD8OJonm3tF+qPRAzy/GLSxCNo1x+cXicgz4RBADl9shiYMJH0S6/aO44wDRlVVVY2cMmXKvWVlOGNMRkT+olL4VGxjnV7Y8px7AA+bqvOtWLTM8y9xUl2nBZmVe2NrjuKu8zG2Dm6oonJx0mimajaAPxD/bOsAG5ifrghaHOzfgOePTqU2fSWTWX4oNoUp7npzsGlGI7F1VMcrinUWtobuznbI1zsYeEZEfm6Meb0AM9yY4/O4qo5VJH/CTS4q98MzfqDa/pwEJuw5w4YNWxIEwUVFCPxNHcf5a1VVFW3FdPnKczqqL9cX2MsY8z6e/wdsxkeS8pyFCjSk8mxWkvKcL7Dxs3wo6d162PKV52QUNMiXGREuz5mGm75ARLbHPoRwNrZ5UnEhAc+/S2omn6rrFb6HeuKfBe1g41YdI/uzHNgl26JdRK6g9J6Oq4AhxphnI3u+OCpEjTFO6P9xwqbzeo+LLt7cPVyFdxx9phraiezjYcYYk2T8wYMH96+srDwNG1ZJmkGyrFOnTv0nTZq0prUZLpVHQqxTW3pT4I/qB1yIjYkkQbb60TpP5+lO4ZBERcJ77ZfwmrXAJXrPNyliOKbE7JJcWuBxmp7nHX0dqP5q+IBv2lLgRMerBfaNMltCinv87j5tpM2+wKaPPR6zj3fp49AK0tSpUxcYYy40xuyYSqW2chwnja2mn5XnZz3r6up+1BY3VYghHlcTchgwRmofXJOyk/1vJge4VGoeXItNuD0EuMUY80xJo7npX+TSpsaY1TGvVcaYl7Bxq0WR3/yswOO25qkmnk1TDmqYvsRC8zNLXJs3Yz4bm7RUSNMGk9CX2KD2qwrWRZMvegC3F/vosZqamo9qa2vvMsb80hizc2Nj4+7EZ/sQBMGAsjOc+iu/USRqPEFwnD4DbCU2l67xv4jRGlWbrZSayUAwGht3epb123SXcz4NMT53jzza63BsKtUe6u8uirEWJmhT31JoQsxnPwVG5mM6EUmJyGHYh2ImqeQYm02sNsYsUV8/ChoNUoEYd715VVVVBUM/jz766OvkfobdurIznN7wCmwj0LmAJyKjpGYyuOlfYluEv17itTPYTP/WeGj5Sh2n1GLW14FhuOmzLbNxgQIKc7DdylaWi8v0cHZUsKRvDFPlW691xpg6fa1S7RBdk2HYEEEpVIutYYzS9arpuoWZWUQqRKSnAh33qUB4KAHTfRk5g/+gqWIlTOeLSFw7/V6O49RWVVXdMWTIkLzoehAEsQLMcZx5bbG/ThEHYRtd8J3VzBxtjFmizxUbokDKviQLTjcqCvgQNqviMWzjl1Jouh6ilTrmxIT39YmCLHcCj+Km67W+64/Yfv4vA8fkqBsrlok2iQFN3qHpqahh2gz7oJHv0zzb5H1jzIAcoEkA7GiMeSd0XUf3KgpKfQ7sbIxZVAxoot/5oYJKlTECdB42dJMNnWypZ2PzyJ48g006XpEDNDneGHNvVBBhkw72itnH/zPGfBT67hc05XvWO45Tg+0r+iKwaJNNNllbX1+/ZSaTqQqC4FKad3H7dMWKFf2mT5/e6ihs4oY7xpgP9EEeN2Ph8h+LyGXUTL7bGFMD1Gg32z7YoHL/PAd/JbY3YQAsx/NPwVYvByUIjKdx0ysUEazB1lp1ymN2LVBtvTj7CCUR6YrI6arZNlcmPNsYs5y2o29TXLu4ANt3kyL2LBCRUxWE6R/xge4QkapigSBjzD9FZAy2Ur8yYi1tr69CtKvOZ3YR182IyDHKdOHQzxYKohycI1bZIQiCEWGtXleX36hyHOfctmC2ohhOb/oL7Ug8BRubuwU4V0QmApOpmfwG8LYxprj+h256VgHUKOk4dcBfEmgcG5sS2RPbu/BIbLhjHjYGV5Mw0FxOf+5ubCdoityz1SLyC+yDNML7fahaJV4J87lBBcB44h+kmY/eBkYUfUbsvcwTkTPUPA3TQartL2+Ftb6strb2rrbayMoSbjoDTBSRGuDn+rpAX58CL4nIfGzcaEOkLtiHIO6DrRMDW85/HfCXNsqcKJXWYbv4XgfckaO6IAk9gW0FHk3PmyAi04p9/LJqzhuxcdrL1JXoWEA7r1bL4eJo/VqR175fRLLPzQvTxSLyrDHmOWCc4zinB0FQTB7vfOAsY8zDbbmhlS248dW6YX/GtgI4nKbGm7l6928ItEJfs7HtCx7CltzUt+E1M9imRJ1iDmKc2f0RNg41HXhNAZAovRXxAQNyNCFVBvm1vu3E+g1OB2Mbz2ZBke5JfHxFsJ8TkZ/ofldjiz53pinxeg424fgpbGreBzGWw0L9XxBaj/kF1nO0nt0ukTlWAc9pP5LrhwwZsltFRcVQx3H2BL4bBMFmqpEDBWbmAzMcxzHLly9/vK3MyJJAkyIBgq56Y84GxmzZkMaqPN2wNtJGajP6f4wzj+YuxoGQAAAAAElFTkSuQmCC;" parent="1" vertex="1">
          <mxGeometry x="402.5" y="30" width="220" height="50" as="geometry" />
        </mxCell>
        <mxCell id="yfoPibArx9PtDL9tYnHz-2" value="Event-Driven Architecture" style="text;html=1;align=center;verticalAlign=middle;whiteSpace=wrap;rounded=0;fontStyle=1;fontSize=28;" parent="1" vertex="1">
          <mxGeometry x="292.5" y="110" width="475" height="30" as="geometry" />
        </mxCell>
        <mxCell id="rIClr12ZdsL_A0PkBbq7-5" value="" style="edgeStyle=orthogonalEdgeStyle;rounded=0;orthogonalLoop=1;jettySize=auto;html=1;" edge="1" parent="1" source="pP9NZiSsNIGpW0LjjPpC-1" target="o0j_-QL7WAcoW0Bcn38a-1">
          <mxGeometry relative="1" as="geometry" />
        </mxCell>
        <mxCell id="rIClr12ZdsL_A0PkBbq7-6" value="" style="edgeStyle=orthogonalEdgeStyle;rounded=0;orthogonalLoop=1;jettySize=auto;html=1;" edge="1" parent="1" source="pP9NZiSsNIGpW0LjjPpC-1" target="o0j_-QL7WAcoW0Bcn38a-1">
          <mxGeometry relative="1" as="geometry" />
        </mxCell>
        <mxCell id="rIClr12ZdsL_A0PkBbq7-7" value="" style="edgeStyle=orthogonalEdgeStyle;rounded=0;orthogonalLoop=1;jettySize=auto;html=1;" edge="1" parent="1" source="pP9NZiSsNIGpW0LjjPpC-1" target="o0j_-QL7WAcoW0Bcn38a-1">
          <mxGeometry relative="1" as="geometry" />
        </mxCell>
        <mxCell id="pP9NZiSsNIGpW0LjjPpC-1" value="&lt;b&gt;&lt;i&gt;[Method]&lt;/i&gt;&lt;/b&gt; / &lt;b&gt;&lt;i&gt;[Method]&lt;/i&gt;&lt;/b&gt;Async" style="rounded=1;whiteSpace=wrap;html=1;fillColor=#b0e3e6;strokeColor=#0e8088;" parent="1" vertex="1">
          <mxGeometry x="490" y="250" width="120" height="60" as="geometry" />
        </mxCell>
        <mxCell id="Z8tEADv6qhFB9r4_INNe-6" value="" style="edgeStyle=orthogonalEdgeStyle;rounded=0;orthogonalLoop=1;jettySize=auto;html=1;entryX=0.5;entryY=0;entryDx=0;entryDy=0;" parent="1" source="pP9NZiSsNIGpW0LjjPpC-3" target="pP9NZiSsNIGpW0LjjPpC-6" edge="1">
          <mxGeometry relative="1" as="geometry" />
        </mxCell>
        <mxCell id="pP9NZiSsNIGpW0LjjPpC-3" value="API Service" style="rounded=1;whiteSpace=wrap;html=1;fillColor=#dae8fc;strokeColor=#6c8ebf;" parent="1" vertex="1">
          <mxGeometry x="490" y="425" width="120" height="60" as="geometry" />
        </mxCell>
        <mxCell id="pP9NZiSsNIGpW0LjjPpC-5" value="Api&lt;i&gt;&lt;b&gt;[Method]&lt;/b&gt;&lt;/i&gt;BeforeEvent" style="rounded=1;whiteSpace=wrap;html=1;fillColor=#fad7ac;strokeColor=#b46504;" parent="1" vertex="1">
          <mxGeometry x="690" y="380" width="170" height="60" as="geometry" />
        </mxCell>
        <mxCell id="D_zpIUr-ErRwCHTYf_Qd-2" value="" style="edgeStyle=orthogonalEdgeStyle;rounded=0;orthogonalLoop=1;jettySize=auto;html=1;entryX=0.5;entryY=0;entryDx=0;entryDy=0;" parent="1" source="pP9NZiSsNIGpW0LjjPpC-6" target="ZK9Dl7D5mtjPK1cDFVE8-4" edge="1">
          <mxGeometry relative="1" as="geometry" />
        </mxCell>
        <mxCell id="pP9NZiSsNIGpW0LjjPpC-6" value="Domain Repository" style="rounded=1;whiteSpace=wrap;html=1;fillColor=#e1d5e7;strokeColor=#9673a6;" parent="1" vertex="1">
          <mxGeometry x="490" y="550" width="120" height="60" as="geometry" />
        </mxCell>
        <mxCell id="pP9NZiSsNIGpW0LjjPpC-7" value="Api&lt;b&gt;&lt;i&gt;[Method]&lt;/i&gt;&lt;/b&gt;AfterEvent" style="rounded=1;whiteSpace=wrap;html=1;fillColor=#fad7ac;strokeColor=#b46504;" parent="1" vertex="1">
          <mxGeometry x="690" y="490" width="170" height="60" as="geometry" />
        </mxCell>
        <mxCell id="Z8tEADv6qhFB9r4_INNe-3" value="" style="endArrow=classic;html=1;rounded=0;entryX=0;entryY=0.5;entryDx=0;entryDy=0;" parent="1" target="pP9NZiSsNIGpW0LjjPpC-5" edge="1">
          <mxGeometry width="50" height="50" relative="1" as="geometry">
            <mxPoint x="610" y="435" as="sourcePoint" />
            <mxPoint x="660" y="385" as="targetPoint" />
          </mxGeometry>
        </mxCell>
        <mxCell id="Z8tEADv6qhFB9r4_INNe-4" value="2" style="ellipse;whiteSpace=wrap;html=1;aspect=fixed;" parent="1" vertex="1">
          <mxGeometry x="630" y="390" width="30" height="30" as="geometry" />
        </mxCell>
        <mxCell id="Z8tEADv6qhFB9r4_INNe-5" value="3" style="ellipse;whiteSpace=wrap;html=1;aspect=fixed;" parent="1" vertex="1">
          <mxGeometry x="515" y="505" width="30" height="30" as="geometry" />
        </mxCell>
        <mxCell id="Z8tEADv6qhFB9r4_INNe-7" value="" style="endArrow=classic;html=1;rounded=0;entryX=-0.005;entryY=0.14;entryDx=0;entryDy=0;exitX=1;exitY=0.75;exitDx=0;exitDy=0;entryPerimeter=0;" parent="1" source="pP9NZiSsNIGpW0LjjPpC-3" target="pP9NZiSsNIGpW0LjjPpC-7" edge="1">
          <mxGeometry width="50" height="50" relative="1" as="geometry">
            <mxPoint x="620" y="445" as="sourcePoint" />
            <mxPoint x="680" y="405" as="targetPoint" />
          </mxGeometry>
        </mxCell>
        <mxCell id="Z8tEADv6qhFB9r4_INNe-8" value="Domain&lt;b&gt;&lt;i&gt;[Method]&lt;/i&gt;&lt;/b&gt;BeforeEvent" style="rounded=1;whiteSpace=wrap;html=1;fillColor=#fad7ac;strokeColor=#b46504;" parent="1" vertex="1">
          <mxGeometry x="290" y="645" width="170" height="60" as="geometry" />
        </mxCell>
        <mxCell id="Z8tEADv6qhFB9r4_INNe-9" value="Domain&lt;b&gt;&lt;i&gt;[Method]&lt;/i&gt;&lt;/b&gt;AfterEvent" style="rounded=1;whiteSpace=wrap;html=1;fillColor=#fad7ac;strokeColor=#b46504;" parent="1" vertex="1">
          <mxGeometry x="660" y="645" width="170" height="60" as="geometry" />
        </mxCell>
        <mxCell id="ZK9Dl7D5mtjPK1cDFVE8-2" value="" style="endArrow=classic;html=1;rounded=0;exitX=0;exitY=1;exitDx=0;exitDy=0;" parent="1" source="pP9NZiSsNIGpW0LjjPpC-6" edge="1">
          <mxGeometry width="50" height="50" relative="1" as="geometry">
            <mxPoint x="625" y="473" as="sourcePoint" />
            <mxPoint x="450" y="640" as="targetPoint" />
          </mxGeometry>
        </mxCell>
        <mxCell id="ZK9Dl7D5mtjPK1cDFVE8-3" value="4" style="ellipse;whiteSpace=wrap;html=1;aspect=fixed;" parent="1" vertex="1">
          <mxGeometry x="440" y="590" width="30" height="30" as="geometry" />
        </mxCell>
        <mxCell id="ZK9Dl7D5mtjPK1cDFVE8-4" value="Storage Repository" style="rounded=1;whiteSpace=wrap;html=1;fillColor=#f8cecc;strokeColor=#b85450;" parent="1" vertex="1">
          <mxGeometry x="490" y="680" width="120" height="60" as="geometry" />
        </mxCell>
        <mxCell id="D_zpIUr-ErRwCHTYf_Qd-1" value="5" style="ellipse;whiteSpace=wrap;html=1;aspect=fixed;" parent="1" vertex="1">
          <mxGeometry x="510" y="625" width="30" height="30" as="geometry" />
        </mxCell>
        <mxCell id="D_zpIUr-ErRwCHTYf_Qd-3" value="6" style="ellipse;whiteSpace=wrap;html=1;aspect=fixed;" parent="1" vertex="1">
          <mxGeometry x="630" y="590" width="30" height="30" as="geometry" />
        </mxCell>
        <mxCell id="D_zpIUr-ErRwCHTYf_Qd-4" value="" style="endArrow=classic;html=1;rounded=0;entryX=0;entryY=0;entryDx=0;entryDy=0;exitX=1;exitY=1;exitDx=0;exitDy=0;" parent="1" source="pP9NZiSsNIGpW0LjjPpC-6" target="Z8tEADv6qhFB9r4_INNe-9" edge="1">
          <mxGeometry width="50" height="50" relative="1" as="geometry">
            <mxPoint x="500" y="620" as="sourcePoint" />
            <mxPoint x="400" y="653" as="targetPoint" />
          </mxGeometry>
        </mxCell>
        <mxCell id="D_zpIUr-ErRwCHTYf_Qd-5" value="7" style="ellipse;whiteSpace=wrap;html=1;aspect=fixed;" parent="1" vertex="1">
          <mxGeometry x="630" y="495" width="30" height="30" as="geometry" />
        </mxCell>
        <mxCell id="rIClr12ZdsL_A0PkBbq7-8" value="" style="edgeStyle=orthogonalEdgeStyle;rounded=0;orthogonalLoop=1;jettySize=auto;html=1;entryX=0.5;entryY=0;entryDx=0;entryDy=0;" edge="1" parent="1" source="o0j_-QL7WAcoW0Bcn38a-1" target="pP9NZiSsNIGpW0LjjPpC-3">
          <mxGeometry relative="1" as="geometry" />
        </mxCell>
        <mxCell id="o0j_-QL7WAcoW0Bcn38a-1" value="API Controller" style="rounded=1;whiteSpace=wrap;html=1;fillColor=#fad7ac;strokeColor=#b46504;" vertex="1" parent="1">
          <mxGeometry x="490" y="340" width="120" height="60" as="geometry" />
        </mxCell>
        <mxCell id="rIClr12ZdsL_A0PkBbq7-4" value="" style="edgeStyle=orthogonalEdgeStyle;rounded=0;orthogonalLoop=1;jettySize=auto;html=1;entryX=0.5;entryY=0;entryDx=0;entryDy=0;" edge="1" parent="1" source="rIClr12ZdsL_A0PkBbq7-1" target="pP9NZiSsNIGpW0LjjPpC-1">
          <mxGeometry relative="1" as="geometry" />
        </mxCell>
        <mxCell id="rIClr12ZdsL_A0PkBbq7-1" value="API Client" style="rounded=1;whiteSpace=wrap;html=1;fillColor=#d5e8d4;strokeColor=#82b366;" vertex="1" parent="1">
          <mxGeometry x="490" y="160" width="120" height="60" as="geometry" />
        </mxCell>
        <mxCell id="rIClr12ZdsL_A0PkBbq7-2" value="&lt;h1 style=&quot;margin-top: 0px;&quot;&gt;Exposed Method&lt;/h1&gt;&lt;p&gt;You create exposed methods for your API Services. By default, we define the following CRUD methods but you can also create your own.&lt;/p&gt;&lt;p&gt;&lt;b&gt;* Create and CreateAsync&lt;br&gt;&lt;/b&gt;&lt;/p&gt;&lt;p&gt;&lt;b&gt;* Update and UpdateAsync&lt;br&gt;&lt;/b&gt;&lt;/p&gt;&lt;p&gt;&lt;b&gt;* Get and GetAsync&lt;/b&gt;&lt;/p&gt;&lt;p&gt;&lt;b&gt;* Delete and DeleteAsync&lt;/b&gt;&lt;/p&gt;&lt;p&gt;&lt;b&gt;* Query and QueryAsync&lt;/b&gt;&lt;/p&gt;&lt;p&gt;&lt;br&gt;&lt;/p&gt;&lt;p&gt;&lt;br&gt;&lt;/p&gt;" style="text;html=1;whiteSpace=wrap;overflow=hidden;rounded=0;" vertex="1" parent="1">
          <mxGeometry x="190" y="160" width="230" height="250" as="geometry" />
        </mxCell>
        <mxCell id="rIClr12ZdsL_A0PkBbq7-3" value="" style="endArrow=classic;html=1;rounded=0;" edge="1" parent="1">
          <mxGeometry width="50" height="50" relative="1" as="geometry">
            <mxPoint x="420" y="270" as="sourcePoint" />
            <mxPoint x="480" y="270" as="targetPoint" />
          </mxGeometry>
        </mxCell>
        <mxCell id="rIClr12ZdsL_A0PkBbq7-9" value="ObjectValidationEvent" style="rounded=1;whiteSpace=wrap;html=1;fillColor=#fad7ac;strokeColor=#b46504;" vertex="1" parent="1">
          <mxGeometry x="240" y="425" width="170" height="60" as="geometry" />
        </mxCell>
        <mxCell id="rIClr12ZdsL_A0PkBbq7-10" value="1" style="ellipse;whiteSpace=wrap;html=1;aspect=fixed;" vertex="1" parent="1">
          <mxGeometry x="440" y="420" width="30" height="30" as="geometry" />
        </mxCell>
        <mxCell id="rIClr12ZdsL_A0PkBbq7-11" value="" style="endArrow=classic;html=1;rounded=0;exitX=0;exitY=0.5;exitDx=0;exitDy=0;entryX=1;entryY=0.5;entryDx=0;entryDy=0;" edge="1" parent="1" source="pP9NZiSsNIGpW0LjjPpC-3" target="rIClr12ZdsL_A0PkBbq7-9">
          <mxGeometry width="50" height="50" relative="1" as="geometry">
            <mxPoint x="500" y="620" as="sourcePoint" />
            <mxPoint x="460" y="650" as="targetPoint" />
          </mxGeometry>
        </mxCell>
      </root>
    </mxGraphModel>
  </diagram>
  <diagram id="l75EsnvuJ-CUXa-fZyVd" name="NuGet">
    <mxGraphModel dx="1179" dy="641" grid="1" gridSize="10" guides="1" tooltips="1" connect="1" arrows="1" fold="1" page="1" pageScale="1" pageWidth="1100" pageHeight="850" math="0" shadow="0">
      <root>
        <mxCell id="0" />
        <mxCell id="1" parent="0" />
        <mxCell id="ypB30eQcN8WYW8XRluec-50" value="" style="rounded=1;whiteSpace=wrap;html=1;" vertex="1" parent="1">
          <mxGeometry x="10" y="50" width="350" height="180" as="geometry" />
        </mxCell>
        <mxCell id="ypB30eQcN8WYW8XRluec-26" value="" style="rounded=1;whiteSpace=wrap;html=1;fillColor=#ffe6cc;strokeColor=#d79b00;" vertex="1" parent="1">
          <mxGeometry x="420" y="330" width="320" height="520" as="geometry" />
        </mxCell>
        <mxCell id="ypB30eQcN8WYW8XRluec-17" value="" style="rounded=1;whiteSpace=wrap;html=1;fillColor=#f8cecc;strokeColor=#b85450;" vertex="1" parent="1">
          <mxGeometry x="810" y="310" width="320" height="210" as="geometry" />
        </mxCell>
        <mxCell id="ypB30eQcN8WYW8XRluec-16" value="" style="rounded=1;whiteSpace=wrap;html=1;" vertex="1" parent="1">
          <mxGeometry x="450" y="50" width="630" height="130" as="geometry" />
        </mxCell>
        <mxCell id="XAPaqctXA7EIB3umuzVX-1" value="&lt;b&gt;&lt;i&gt;ServiceBricks&lt;/i&gt;&lt;/b&gt;" style="rounded=1;whiteSpace=wrap;html=1;fillColor=#b0e3e6;strokeColor=#0e8088;" vertex="1" parent="1">
          <mxGeometry x="450" y="190" width="280" height="40" as="geometry" />
        </mxCell>
        <mxCell id="ypB30eQcN8WYW8XRluec-2" value="NuGet Package Architecture" style="text;html=1;align=center;verticalAlign=middle;whiteSpace=wrap;rounded=0;fontStyle=1;fontSize=28;" vertex="1" parent="1">
          <mxGeometry x="320" y="10" width="475" height="30" as="geometry" />
        </mxCell>
        <mxCell id="ypB30eQcN8WYW8XRluec-3" value="" style="shape=image;verticalLabelPosition=bottom;labelBackgroundColor=default;verticalAlign=top;aspect=fixed;imageAspect=0;image=data:image/png,iVBORw0KGgoAAAANSUhEUgAAAfQAAADICAYAAAAeGRPoAAABhWlDQ1BJQ0MgcHJvZmlsZQAAKJF9kT1Iw0AcxV8/pCIVB0sRFclQnSyIijhKFYtgobQVWnUwufQLmjQkKS6OgmvBwY/FqoOLs64OroIg+AHi7OCk6CIl/i8ptIjx4Lgf7+497t4B3kaFKYZ/AlBUU0/FY0I2tyoEXuHHEMIYQVhkhpZIL2bgOr7u4eHrXZRnuZ/7c/TKeYMBHoF4jmm6SbxBPLNpapz3iUOsJMrE58TjOl2Q+JHrksNvnIs2e3lmSM+k5olDxEKxg6UOZiVdIZ4mjsiKSvnerMMy5y3OSqXGWvfkLwzm1ZU012kOI44lJJCEAAk1lFGBiSitKikGUrQfc/EP2v4kuSRylcHIsYAqFIi2H/wPfndrFKYmnaRgDOh6sayPUSCwCzTrlvV9bFnNE8D3DFypbX+1Acx+kl5va5EjoG8buLhua9IecLkDDDxpoi7ako+mt1AA3s/om3JA/y3Qs+b01trH6QOQoa6Wb4CDQ2CsSNnrLu/u7uzt3zOt/n4Amudyt8P7z4YAAAAGYktHRAAAAAAAAPlDu38AAAAJcEhZcwAALiMAAC4jAXilP3YAAAAHdElNRQfoBBsWKAuWf+3xAAAgAElEQVR42u2deZgUxfnHPz27yykKqPHWaFSixiPe8UQxImINoqLGixbaxCO/JN5Ro6LxQI0aNdGoDTbgGTxgCzyJwQM8MXiLRzyieCtyLuzu1O+PanTp7dnp2Z1zeT/PMw9sdU13V3VNffut430dBEGoOpRS2wGbAFsAm4bJg4C18jjN88Ab4f/fBd4E/qu1ni01LAjVhyNVIAgVL94/Bn4KKGBzYG+gBkgV4XIZoBn4AHgM0MBbWusP5EkIggi6IAj5i/j2wGGAB6wGdCnj7SwDvgN84F6t9UvyhARBBF0QhBiGDBniZDKZfsAxwEhg7Qq+3c+AMcDttbW1cx544AEjT1AQRNAFYWW3xHuGAn4MsFM7TvEFYIDZwAst0p8F3o7Jvzmwa4u/dwK2C/uCH7Xj+v8FbgH+prVeJE9UEETQBWFlFPKzgRPysMYXA68DTwAvAu85jvNSfX19pqP3k06nU8aY7cM+4XDsPP1WQI88rPZ/AZdord+SJywIIuiC0NmF/GfAqcCIBNmbga+B8cDDwIta6+9KeK+rATsCBwC7AbtgF+PlYixwrdb6NXnigiCCLgidTcjrgAuAPyXI/gFwA1CvtX63gsqwKZAGDgb2TPCVW4HrRdgFQQRdEDqLmJ8CjALWyGGNXwtMqq2tnVnpC82UUruHwn5qDqv9K+Bq4AaZYxcEEXRBqFYh3xH4G7BzG7+194GbgfFa60+rsIy1wInAacDGbWR9Hrhcaz1JWoYgiKALQrWIXO/Qcv0j2fePfxxa7RO01svadSE/2B7ojfUQB7A1dq47KTOBV8P/PwTMw3NfameZuwDHhmVaP0s2A9wJnKy1ni8tRRBE0AWhksV8d+Ca0CqPYwHwF+AqrfWSxD9UP+htrFvXY7Er0DelOHvVP8O6gX0CuL2348yZN3K4yaP83YFDgKuAdbJkmwccpLWeIS1GEETQBaGiCB3DjACuA3pmsU7HAOdprb9IKOK9jBXv44B9gdXLULT/ArOA8Q48YTx3QUJh7xHWxVHEb31bCPy9pqbmnEmTJoljGkEQQReEirDKVwP+CrhZsnwFHKG1fjzXuWr8oK4ZtsQO1+9L+5y9FIsvgAnABDz35YR1szXwd7Kviv8XcGgpt+MJggi6IAhxgtUbeBI7fx3HDcCZWuulbZ2nzg9SjTAUuAQbiKXSeRy4sQ4eaPTcTI466g6cAlxBfECZV4H+WutvpEUJggi6IJRDzAeE1me/mMOfAsO11o/l/BH6QR8DT2Mt82rjDQf2MJ77bYL62iK0yOPm1pcCByYZxRAEIZ6UVIEgtEvM9wEezCLmDzqOs0ESMQcw0K1KxRxgy/D+c6K1ftNxnA3CeovSFXgorFdBEETQBaFkYv4I8VvSLnMcR9XX1zdnPYEfbIEfnNwpK8cPTsYPtsh2uL6+vtlxHEX8eoMuwCMi6oIggi4IpRLzh4G61oY2x2utz2szWIof/AF4GetlrTNyMPByWM5sop7RWo8Djg/rrSV1wMMi6oIggi4IxRTzAVgHLFHL/FNga6110IaQb4If/Afr3rWuk1dVHXAtfvAf/GCTbJnC+to6rL+opf5QWN+CIIigC0LBxVxj53qjYr6b1vr1uO/V+kENfjAUeAsbd3xlYjvgLfxgaK0f1GQR9dex3u2iot4V0CLqgiCCLgiFFPO9gXqge+TQXGB3rfUHsT8uP+jSBD5w/0pglbdlrd/fBH63MeNSWUT9A2D3sD5b0j0U9TWlFQqCCLogdFTMe2M9nkW9nX0M7KW1fj/2i36wQQbeJLuzmZUNt8GYp/GDDbKI+vvAXmG9RkV9WvgcBEEQQReEdol5H+DfwLaRQx8B+2qt38si5htiHa9sIrW4Ar8AHg/rJ07U3wP2izm0DTBVqk8QRNAFob2cTfy89wit9TttiPk0bPAUoTWbAtPaEPU52NXvUXZTSo2W6hMEEXRByNc6PyQU9Dgx/1cWMd8A6wltsxyn/5IWzlUc+A47R1+N1If3v5wHw/K1xWbAv9oYfg+AEbTe0naqUmpXaZ2CEI+4fhWE1mK+BfASrT2gXa21PiOLmK+HDTn6kxyn/xoYEA1u0mfMOOdbY3YDpmBjnFc63wGD+zjOzG+j4VX9YNvwxSZXdLj3gL3x3E+yPIepwIGR5EXAOlrrBdJSBUEsdEHIxZgYMZ8KnJNFzNcBnkog5hlg37hIZd+OHG7w3BnAlVVSR6fguTO+jYuVbsu3b1jetvgJ8FRYf3EMwcZnb0lP4EZpooIggi4Iuazz07GLt6JW9W+01o1ZxHwmsHGC04/Fc19pK0NvxxkNLKnwanoVz72jzRy2nHckONfGwEzHD1qNSmitm4D+wOLIoWOUUsOktQrCitRKFQjC92K+HXBeJNkAv9Vaf5Lla9sC9ya8xM25MswbOdzgB8cDO1ZwVc1KmO8G4PMkGY211mfFiPocpdS52HjzLblFKaW11g3ScgXBInPogvCDoE8AjokkT9FaK6mdsj6XHtgpj/6RQ3/RWp8pNSQIFhlyFwQrGgfHiPm3wLFSO+VFa70YODV8Hi05Qyn1c6khQRBBF4TlYt4FuCLm0Ila63lSQxUh6rOBiTGHzpDaEQSLDLkLIuhKKVrvA79Pa31Y7Bf8QAMD23k5H8+NjYXe1Q9SS2EOsFEBivUU4OG577e47x9jt5NtUIDz393XcYZ/E7fK3V7rRsBr57lvwXN/G/OcugOv0no3wbZa61ekJQsi6IKwcor4+sBagAJ+A6wdybKL1vr5GKE6Ebipg5e/0YELjed+1eK824QW6OYFLOZteO6IFteYDuxdwPM/Apy1wsp9P+gHXBXWa3sxwH547uMxz+1YYHzMy8tzWN/5rwBva63nSysXRNAFoXMK+GrYiF6/CC3HVWkdcGU519fU1Pxh0qRJK1ifjh/0MTAD2KIAt7QA+BDrK/5wrBOWQu86mYHn7tFCbJ8O66CQNGG39f0T2Cd8IelSgPO+2c1xftYwcvgKe9nT6XSNMeaNHC8+84A3QuF/PJVKvTt58mQjvwKhsyPb1oTOLOI9gROAo7D7nddI8LUG4MKomIdm44UFEnOAXsDPwk+19yFrAf9X4PNu0WDMhdg6/576+vpmpdTVtL0FsDc2xvpuAJlM5n2l1D1AEPqKFwSx0AWhCkS8FugHnAsMCMUmHy7SWo9qleoHu2KHmFetouoohYVeTBY4sL7x3Pkxz/l1YMs8z5cBngf+DDwaOq4RBLHQBaGSSKfTKWPMYOByYKs8vrrc+9tkrJvRbPPj51aZmHcGehm7++CkmGOHAwdgR176AMOwu3Zq2jhfCtgVu6f9daXUzcDNWutlUtWCWOiCUBlW+aHYodmtE2Q3wDPAA8D7wNSc3sb8YHfg6Sqsmmq30AHmObBRnJUe0w42x3ruGwzsSbJ49K9iR2Xuk1+SIBa6IJRPyLcEzgKG58jaBNwPTK2trZ3wwAMP5LtA6hyp7bLR29iANSfmyqi1fht4G5g4dOhQp6mp6RfAUCBN9kV0WwP3KqVmY/0OPCdVLoiFLgilE/K+wJmhmLflHOlJ4G7g1vbOlzp+sLqBd6mOkKad0UJfbqVvajz36/Z8OVwZvxPWT/9BbWTNYFfrnyQOhYRqRDzFCdUm5nsBjwJ/bKP9TgH2SKVS/bXWN3Vk8ZOx8+a9pebLbqW3e/1CfX19s9b62VQqlQb6YlfIz8vSHx4JfKyU2lOqXag2ZMhdqCYx/w026la3eO3lIeAyrfUMqS0hSrgX/VvgRKXU2djwroNjsvYEHlVK3ai1Pl1qThBBF4TCCXkf4MbQeorjU+A0rfXd+ZzX8YMfhZbfr7Cro48OXwwex3NPlJqvUPzgH8C+2CnDO4Bm4C4HPjOeuzDJKbTW3wEHKaV2w25j2zeSpRtwmlJqV+AgrfW3UvGCCLogdFzMnyZ+z7EJLfZztNZLc50r5Qd1GevIZQBwmIGdiV9H8qbUfEWzDrBZ+P/ljmcuNvA5fvABNj79v1LwWsZzG3MI+0yl1EFY74F/obWXu92Ap5VS/bXWX0rVCyLogtA+Mf8FcEsWMf8EOEpr/WQCS3wVA5dk7L7lflKznZa1ws8uABmYgx/c5MCYtix3rfUS4Aal1MPAGOyWt5ZsiZ1XV1rrR6WahUpFFsUJlSrmvwSmE+8atd5xnA1zirkfbI8fTDAwF/i9iPlKRz/grwbm4geX4Qc75LDW33EcZx9aR94jtNx12C4FQQRdEBKK+X7Ag8QH+TjfcZyh9fX1mTaEfLswxOks4Bis3/Sk/A+Y9L11D18C91RpVT6d4+9q4Z7wOSxnUvicktIL60vgRfxAO37wo2wZwxXxQ8J2EyfqD4btUxAqDtmHLlSiZf4graeDDHCc1vr2NoR8XeBY4FLadgGajRnACDz37Zhz/wm7eKoa+ALYH899OaYc22K3/f2oSspyPp57SUw5NsfGdl+/HedsDM97RY62eAwwIeZQEzBIaz1NfrGCWOiCEN+BrgFcGyPmmQRiroDHgdHtFPO5gBsr5sCaqdSlwA1VUpUjYsUcCNNHhC9Ilc4NYb3HleNtbLjW9vgYqANG4wev4QdZo+eF7W1z4OPIodrQUl9DfrWCWOiC0FrM+2LnzKP+2JuB47XWcZYStX5Q02Q9xl1MxxZ5XoznXtjmj8UPehm7Ra5nBVfl7XjusTlz+cHzwE4VXI5FDqxjPHdBjnJcBZzRges0ARfUwpVNntucpW1uiB29iY4GvArsLVvahEpBVrkLZWfIkCFOJpO5IouYj8gm5mFvvF0osKM7eBt+rgzGcxfgByOp7BjmLybMdymwYwWX47WcYm65HhvDviP0DNvRrCyW+kdKqd8C97Hi6M/WwN1Dhgw5IHRaIwhioQsrvXU+Gjg7kpwB3LbEXBBK3E6PBQJaT1VeobX+o9SQUG5qpAqEMneSe2Cdw3SN6SSvkRoSKoW33377lX79+r2PjeDWkm379ev31Ntvv/2R1JJQTmTIXSinmK+KXQQX3VamHcf5U9Lz9B0zzmkuwP18N3J4m8Omq48Z5zQV8TrFPn9LVhszzinmdQpx/lrg6xxlKcR1aoBvEtQZgOM4dxljhgGqRXIv4Fql1ACt9Xz5ZQvlQobchXIK+kXABZHkuY7jbFhfX59Mo/3gd1j3n30KcEsj8dzblv/R9Z//Sy09fINMeJ2fYrdJrVOA69zby3GOWNBSRPxgy/D8axXg/HfjuUe1UWd3kt0vfj68AByP577R4tybArdRmDCtL3eBHZZ5bgagx93/7b74yE2WtLjW8VjPbh3lW+AiPPf6JJnDcKwfAetGDl2stb5QftmCCLqwson5TsATQPfIoS211m/GiNCGwDTgaDz3BQDHD9Yy8A75OY5piybgT8B4PPfTFtfeGxtXfe0CVsE/8NyTAFJ+0CVjV0xvXsDz3wmcjed+3KIcGwFjaR2IpCO8iOfu1OIaNwO/LuD5Pwmf+RMtrrEOcBEwksJtvV3gwGbGcz8Pr/Er7M6J/fDcD2Pa7xbAG5HkJdhV7y/IL1woBzLkLpSLa2LE/Nw4Me/iB6llMBEbkKNfaBliYPUCivny38NoYBR+MB0rssdinbAU2mfDT5b/J2PLsXmBz38UcCh+8DTwEnB4+ELStcDX2cjxg14tVqRvXODzrwc8jh98gXXysjXQn/gQuh2hV9iePg//PgjYFLiiix8ctXyUYDla6zeVUucCl7VI7h62a4mlLpQFcSwjlMM6H0TrIdmvgKvj8i+Df2Ajo5WKbthALmeGIlitv5Ou2MhyZwIbFUHMAdY0sEoJ+qm1w3IcUAQxb8vYOSJsf3FcHbbbluwetm9BEEEXVgrOZ8XpHgMcrbVe1iqnHwwBhkuVCWVkOH6wfzQxbK9Hs6LXPSds34Iggi50eut8f2DXSPLTcWEpwyAatxEfpEUQSkUX4G+OH/SNEfVHaR30ZtewnQuCCLrQqbmY1osxL4vLaGws9D5SZUIFsJmx3vXiiLZfJ2zngiCCLnRa63wfYJdI8pNa64dbZfaDzQCZixQqiRFhu4xa6Q8DT0aSdwnbuyCIoAudkiEJrJvl3I0MtQuVRReyxwy4LGF7FwQRdKHqrfNa4Pcx1vkjMdb5UcD2UmtCJTZl/KBfjJX+SIyV/vuw3QuCCLrQqTg9Ju3OPPIKQiVQh/VMSML2PEKqTBBBFzoN6XQ6Revhx7lYRyFR63xLbChLQahUjsAPtopJnxC26xWav1SXIIIudBqMMT2BX0SSH9NaL47J/ltpl0IV9Jut5sfD9vxYJHk/pVRPqTJBBF3oLBwSk3Z7q8boB12wLkoFodI5bZX4SG/Rdt0VOEyqSxBBFzoLwyJ/fwI8Fc2UsX7TV5fqEqqA1RcaMzAm/dmYtN2kugQRdKHqUUp1A6LzjW9orZfGZN8hx+neBt5r8fc8YHaVVs205f9xbJSuu6q0HDelbPjRVuWqMmaH7Wk592Aj+bVFq/lxrfVCWg+7y44NQQRd6BSsBvw4kjY5mqnGD2qxEa6ycRue2w/Pfeb7FM+di+f+HDiniurjQ2AzPPfK5QnGc+eF8ctPqaJyfAociOeenPHchhbP5EpsVLwPq6gs5+C5P8dz57Yox/3AfsC4Nr63Qxc/iOtD/xP5e0el1FrSFQgi6EK1s3tM2oxoQjNsgP3E8Qaem337j+eOBu6vgrrIAAPw3HezlONGsjvaqTT+jOc+lKUc72KnT6qBv4ftJ64cHwHnAu9m+e7OTVATk/5MTNp60hUIIuhCtbNlTNrrMWmD2xSP3FxZBXVxFZ77Xo4f5EXA1xVejll9Hecfbebw3KewvvgrGifX6I612s9v4w1tZEzy1Ji0A6UrEIqNeDESik10T/lUrXVjTL5tiZ+zdICXc12kBmY1w/QKt4Qm5zThPXcZfjAWOLiCy/H4NyOHmwT57gYq2Z/5zNUcZ+G83PleDq30uDIvatVgHafZGPNG5GW2l3QFQgleUAWheCil3sbOqS7nPq21bOMROnu7vxc4tEXSu1rrzaRmhGIiQ+5CqXlPqkBYCWiK/G2kSoRiI0PuQjGtlFWB3pHkN2LfLK1TmaydXsZzG9u6Vo0f1JoCjDhlu06hzl8HzUs9N1PsctRC87KY63Txg1SWhVwFOf9yuvpBqrEA13HANHtuU6nPH2mbdW2dIuO5y2LSHwSOkF5AEAtd6Cz8CFgzZ6fqB6tmYGkGlmX5LMEPvo+N3uOf/3O6/vN/P7RdP9i+GT5v4/uJP/jBda08gPnBjs3wZSHOvxT+bwWB/+f/vn+prvODmmZ4oRDXWQaz8IOtI+XYehnMKtD5p9T5QU1cOdYcO95ZCncX4jrN8CV+sGPLYqwyZpyzFO4t0Pk/xw+2jytHWGeDMrCkjXMsdfxg1fh3hRVYVym1tnQJggi6sLJTA2j84CSAxYdvYJYevkEm7HAPxjoz6Vuga/1uoTHntXjZ6AFMihlpaC/X4geX4QcbAzQevkFTWI79G2EmhQtMsx1wdiTt7AKef1AjTMYPNouUY+MvM5l7aO0dsL30BiaFzwGA8PkMLdD5+wLTwnb0QzlsWUYBmgKMBAA9gVXkpywUExlyF8qOSbYyvQa4ET+4DrgVu6d7eNhJFnpx504t7m0tCrty3sFulTobP/CBRqwnsV2LUI4f5/i7owwGDsAPngdeArbBujmtKfB11gufw/vR51Mg+gD34wcLsY5kUsAJ2FCpgiCCLgh5cFAeeeuAkztBmVPArzvJ6MkvaB1Nr9pwsFvLfis/R6GaOxVBKDfzpQoEQRBE0IXqN43ulFoQBEEQQRc6haYLgiAIIuiCIAiVzSfAx1INggi6UK18Gn4EobPyOXanQpQdI38v1lo3SHUJIuhCVaK1XgQsjCSraD4HlgBvSY0JVcgbxnOXxKSvI1UjiKALnY2c8+Ohu1Wx5IXORNSNsbRvQQRdqHqiK9i3SafTcY5HXpOqEqoQHU1QStXR2pPdY1JVggi6UO1E5xc3M8bEtbsXpaqEKuSZmLTVaO0t7zupKkEEXah2/hmTdkRMQ7xbqkqoMpalrMvbnO07y+9AEETQhapiXkzaDtGEbo7TCDwh1SVUEVOzhE7dO/L3F8AiqS5BBF2oarTWXwAvRJK3juZbPHK4Id7aKTVN2FjWADjWLe0ztBGrvUIxwORI2uQqLcczzorugR8Mn1O5eTaaEM6fbxNJ/kBrvVB6A0EEXegMzIz8PUAp1Ssm36Qy3+dbwI/x3Ju/VxPP/RrP3Q04qYrq+31gTzz3qhVS7d978kPUsmrgJDx3N+O5X7cox83YyHHl3uoYN4y+DdAvkjZRugBBBF3oLDwVk9Yq0tiaqdRTwIwy3WMjMADP/ST2qBWRK6rEoh2O587IUo4ZwJ+qxFK/ouXLVaQcnwADiHfqUpKX1DVTqQ9j0vvHpE2XLkAQQRc6Cw/Sei79sGimL0ccZ4D6Mt3jKDx3bo4fywVVUNcz8dyn2szhuXfSetSk0vgiBefnKMdcYFSZ7u/6sL1+j1KqC+BF8r0NvCxdgFAKJB66UHS01kuUUtMiIr6rUmoNrfVXkQZ5dRMcQuttP8VmSq4MGc9dhh9cTetFT5WEnzDfQ0DXCi7HtNDhUJLnNrTE99ZcC/fGTOJvBvw0Ws9a60bpBYRSIFGuhJKglDoWGB9JvkhrPUpqR+gkbfwK4KxI8q5a6+ekdoRSIEPuQmneHB3nDmBOJPnYdDotbVDoDGLem9bD7XMcxxGHSULJkCF3oSTU19dnlFL1wJktkjcxxihab6+izg9qmqBHiyRjPDd264/jBz3o+BB9q/OvOvFjZ/6w9U2L63QvxG/GeO6C2LdrP6gz0K0Ab+lLmj0367auGj+ozUD3Dr+kQUPcsHiNH9RlClAOoKll4JO+9/zX+eaITUzk2a9CB0caHViaZT959PxZ22Ao5n0jaf+or69vll+/IBa60Bn5KxDt4GIXPjVBDwP/MzA//CzAD25tldEPLjXwZYt87f0swA+ObHnqxcbUthDbrgZmF+A68/GD8TV+UBspx64ZeL0Q52+GqbV+EPuCU+sHNc0wtRDXycDr+MHO0ZeFZnioEOc3MDvlB9/P8y81dInU2ZEGFhSgHG/iB/1bnrqrH6Twg1sj5/9vFut8DVovmGxGvMMJIuhCZ0VrPReYEEneQSl1aBYr9tRI8kj8YK8WHfr6YZ4eBbrFu/CDc7uNGZcCaDp8g8bwOjtmrK/5zQt0nWOb4dKI5X8PdlFVIdi/CabiB1tFBHCrJpgK7F+g62wGnBdRsTHY7WSFYPMMvIgf7Aiw6MhNlgJ0GzMuhR9cB9xVoOtsAjwYtif78gBH03oI/egs3z8KiPpVuCxs74JQMmTIXSg1NwPHRV4m/6SUeiK64h3PvQ0/OI4f9vY6wIYtcqxKAYaOI1zaYMyl+MGE0MraLvwUmp9///ICvSPlKgQDgYH4wV1Wn9iaGJe7BWBPxw9WM567PPhIoeOA/wx4AT+YDcwGahqMObYI5egetqflDI4cn4DnPhZjna8OXB5jnfvyUxfEQhc6u5X+LK0dzWyXzfpx4HBgcRlu9VjALZKYl5JfheXYoUjn72MKN0LSFtuF5Ti2RPXWcl5+rgOnZMn3R1qX/1Kt9UfyaxdE0IWVgRFAdBHSaKXUltGMxnO/DK0l8YUtlINFwNFxCxmVUrvRelpoGXbaQRBE0IWVwkr/L3BtJLkbMDb2C547Hfib1JxQBk4L219UzFcF/k7r3RV/EOtcEEEXVjauB76KpO2ilDozi6ifE/MSIAjF5Fo895Ysx86n9XTMx2KdCyLowspopc/FzktGg4Sco5TaOYuon+ZYl6WCUGzOwXNPizsQts8zIskGOFRrvUyqThBBF1ZGUf8noCPJfYDxSqlYP+MrhNEUhGLhudn2nO8IPBxz6O9a6+el4gQRdGFl5jjgm0haP2CaUqqbVI9QKYTt8ZrwpbMlj8dY7IIggi6sdFb6d8ABMYf2AO6VGhIqRMx7AI8Ae0YOfQWcrrVeKrUkiKALIupav0DrKFUAg5VSp2X9oue+AZyI3VokCO1lMbDvqo7zZhYx7wk8COwVc/hErfVsqUJBBF0QfhD1q4CrYg79RSl1ehuifjPWK9p/pBaFdjDbgfXx3H/PHzncZBHzKcDeMd89S2t9n1ShIIIuCK25EJgRSXOAq5RSp4eda5yoz3DsEP0lwAKpRiEBC4FLHNjdeO63WSzzHljf9/1jDl8SvoQKggi6IMRY6UtCa/vpGFH/C/BgtoVyxnMX47nnYwOPTJfaFNrg3w5siueebzx3cRYx74bdIhlnmT8NXCHVKIigC0Lbor4IODBG1MHOYT6ilMrul9xzn8Vz9wlfDJ6k9T73SmApcF+Lt5VFwL9oHVq20skANzgrrmG4LyxfpWHC9jAQz93XeO7n2TIqpXYC3iR+zvxp4ECttbgiFioOR6pAqESUUr2wC5H2iDn8DTAo0b5fP/glNsDLiAp5gX3DgQHGcz+LudfDgbur5HdpgCPx3FYxvx0/WNvYF5QtK+SlYyzwz7hoaTHt7kisS9e+bYi5TOsIIuiCkKeor4J14rF7lixXA6MSWUt+8BMgDRyM3XpUjrbfBGyI537axn2eS4tY6RXMEXFi3qIc2wMvlOklymAj+k0C6vHc9xK2tVuBI7Nk+TNwpVjmggi6IHRM2M8GRmc5/DJwktb6mcQn9IMNgH2BQcC2wE9LVJTz8NzL2srQY8w4Z7ExH1D4+OiFZOYaKWePr0YMNznq+VHglyW6p7fCtvAQ8Die+7882tdRwC1AzyxZ/qi1ljlzQQRdEAok6ocB/wBWjzmcwc7dnq+1npPPeev8oKYZUhnYBtg1TF6nxf8LyZl4bu7tdX5wdgmFsD08hudekaAchwInFeH6zwLLRzmeTcErNZBp9NzmPNtUv9DyHpYlyzfAQK31i/ILFETQBTGZ/hQAACAASURBVKGwov5z7DD7PlmyNAI3ARdrrcXnu5CtHW2G9XlwIFCXJdu/gYO01oulxgQRdEEoTmfcFetP++Q2ss0PO+QztdbvSK0JESEfBHTJkm0e1h/CLVrrBqk1QQRdEIrfOe+KdSQzoI1sjcDr2NjVT8jq5JWynayCdQ98NLBVGxZ5MzANOFVr/abUnCCCLgil7ay7AUcAFwEb5cj+JTYq1izgZqBBYld3yjbRBegG/AbYAbv4cc0cX/sQu/DtbqlBQQRdEMpIOp1OGWNOwIaw3DTh194BXg1FfjbwPIDjOM319fUZqdWqEO/l1vbOwHaheG8NbJbwFO8Cf3Ec51Z55oIIuiBUXif/f8Ap2Jjq7eF54GOpyYrHAIe287tzgL9rrW+QahRE0AWh8oV9J+A0rCOZblIjKz0NWEcz14ThegVBBF0QqkzYa7H7jA8G9iPepafQOfkGu9BtEjBRa90kVSKIoAtC5xD37livcAOAw4BeVIa/caEwvIENn3sv1pf8W2EEP0EQQReEzkw6na41xiz3PJcG1gr/vwHZndcI5ecd4JkWfdh4oMFxnK/r6+vFChcEQRAEQRAEQRAEQRAEQRAEQRAEQRAEQRAEQRAEQRAEQRAEQRAEQRAEQRAEQRAEQRAEQRAEQRAEQRAEQRAEQRAEQRAEQRAEQRAEQRAEQRAEQRAEQRAEQRAEQRAEQRAEQRAEQRAEQRAEQRAEQRAEQRAEQRAEQRAEQRAEQeisOB09QY0f1GWgr4EjgV5Zss1zYCJgjOd+0aEb9oMebVynqHVVA182eW5zlvtaBehZqIsZz/28g/XUB+gSSW42nvtVySvOD1YFuicpY50f1DTBmoBpkbzUeO68It7fWgZ2A7YK29YhkeuPD//90oFJwCLjuQs7cL01gJoytOFlxnO/LfRJlVK9ga4FPm1Ga/1lhd/jIq31wgLe42pAt5z9UE3N55MmTTIFfobdgdUAL0xaHRjc8nkAE0LNcIDbgAat9VftvF4voEeObE1a6687WK68+mWtdd797qhRo1IvvfTSz4wxOzuOs7Mx5mdAX6A30Cesu4XAAmA+8L4x5m3Hcd4GXl9nnXVm3XLLLY2FeI617f6mH2wLHNtsH/pPcwoU3AAY/OB5YKIDtxjPXZC30MGJwNXlePtpgs2Ad7Pc17nAOQW7mB+82OKlayIwMwXPZTx3WcJ6ugQ4uVUR/OCneO57paw3Aw8Dv4gkvwDsHM3bCOsBH0aSH4x0Lh1ilTHjnEXG9DEwGvi5gR1zfOXPLcryD+Az/GAacEcNTGv23KY86+MlYIMyNOEngP5FOO84IF3on5tSanb4//eAWcDNWuv57f1FAYcW+B4/U0p9HP7/aeAp4CGt9ZJ2nu8fWMOoTZqbm7sDDQUQ8S7h7/JYYP8EbfKSFv+/GFimlHoOuBf4h9Z6WR6Xvxj4Q448rwM/60D51g2fy8YJvxLbJ2VjyJAhGzQ3N4+YNWvW8cBGAMZkfc/qBqwR/n9bx/nBlv70008XK6WecRzniebm5gemTp36WskEPeUHXTIwBjimnSMCuwC7GPgLfnAncA2eOyu//rAiyRT4fC1FZofwAh/gB7cA4/DcuTm+f2WMoNeGb+DnlKxW/GBvYNeYI1eUpW79YNeFxpwPHNiBs6wdtv9jmuEV/ODhGjgvD2Fv7iRttJjnrW3xG9gROAK4Uik1EbiqpqbmxTyt1GLc49rhZ/k9/gH4Vik1DfhLTU3NCxVwj61Ip9MpY8wZYf+wUQdO1QXYM/ycpZR62HGcE+vr65P8DkwJ6mNaHmL+HHBAkoxDhw5dvampaXQmkxnhOE6qAI+kBzDAGDMglUpdnE6nZwO319fXX5Ov3uV3M34wNANz2ynmcRwFvIgfXBUOWQtt82PgMuAJ/OCMNluI43wEzIw5dIrjB6uX8J4PovXUziIH/l3SmvODdfCD0cD0Dop5lG2As5ptO05LEy06w4Dnm5ub7w2HqCuNPuE9Ptfc3HydUqpvJd2cUmp3Y8yc8IV6owKeej1gpDHmA6XUKKVUbZnLORbYIg/L/ACtdc5pvYMOOuj4pqamOaFhlCrGvRtjtjPG/KV///55T8slvyE/OBO4Hzu3UmjOMHYYcxfprxKxKXAVfnB7tgyLRw432GmA6BteL5NgWK8Q9BgzzgHiXjzONp77TQnF/OfAY8DZFH4edTnbApPxg1HhOg+huBwCTFNK9ange/w/4DGl1NblvpEhQ4Y4SqnLsNMCmxbxUusBFwJTlVL9yijmxyfMvhgYkkvMhw0bVpNOp29xHGdskTSwICR7i/KDrYHzshxdGA5tTK6BO0zrMZNfAFtj52j2I/tCiJ7ATPzg93ju3/Isx0LgWQqwyK8NnPDh58PrwGcduOaAHMePxg9Y1XGOnW8FfEU89wn8YG74I2vJscDfi924FhtzZkzyUuyceKnEfBCgaXsR2leh4M90YIITec4Z2CRsuz8DBuWwbC400N/xg8HGcxflcaf/KkFtzO5kor4j8IhS6gCt9TcVeo/bA7OUUj/XWr9eJoHbOJPJjKU46yeysT8wQym1dynLnaeYLwQGa60/zdX3NzQ0jMeOKFc0OQXd8YPuxnZ2ccNbDzpwlPHc7yDrxOCT4efvjh/0MHAYdpHRhjF5Pw4733x5D8/9ZQXW72g89/Z2v0H4QS8De4UNaQCwVpyozzfmO+CULKe5FvhLJG1n/GAfPLdow97dx4xzlhgTt5DtQTz3/RKJ+YHA5DbEfA5wpgPTjOcuIRzOMPH55sD3a0hOAs4C1s1y3r0NTHH8QCVdDV8LA7PtoBDaZCfgTEq5LiR/6oDxSqlflvrFQym1Udj/rl+Gcq8OPKWU2ktr/VoxLzRkyBAnk8n47RDzJ3NlPOigg86rBjGHBEPu4fBsnJBciOcOXi7mSTCeuxjPHe/YVfHnYpfwL6cZOBXP/VD6qO/rawGeOxXPPdqBnwB3Zsl6An4wIMsDvh5ojBltOLqY977EmN2wLyNRxpVIzAdjt5jFvbR+C4xMwTZ4rl4u5knIeO4yPPc6x+54+HUbozZbGrt1RSg+Zymlflbh97g9cMHQoUOdUl0w3Ko3o0xi3tJonF/si2QymdOBEQmzL04q5oMHD97CcZwLquWHkGQOPW4B3J147sUdEKoleO7lwN7h2yPAFXju/dI3Za2zRTUwPMvzqAMu6eoHqRgBasTuGY1yPH7w0yLecpzF9FoNTC12XYWL/m4O6yXKp8D2eO7YpFsA23g5vRU7H/litNqBNJ77kbTckvVjB1fBff6+qalph1JcKJ1O1wI30Xq6rZQ0A6dorYv6O1BKDWbFLXVt2hrYBXBPJmpYqdSoLP1INr4yxlznOM4gYKMFCxZ032GHHWq6devWC9gok8nsBZziOM54OjYdm/XtqS0rZ0Ng95iHdGlBru65sx0/GGTgtzVwrYw35vh1eG5TjR/cE+79/1Xk8K5L7TTGBzFfHY19Gega6QSHAG8VQVD7mPj5unH57tnOl75jxjnfGDMlS0c2F9gDz/2gYBf03E8dP9jfwGn8sM7kFDz3OWmxK/AWMCXp+1L44roWyRfuFsJCfwc7RZPk/oZj1/3k60zqiJgXwMIbAMYcRfsWvy4EbsH6SpgTObY7dtRtEDGOomJeao/XWk8ospgfCNxHssWuS4H9tdZPJzn3wIED+2IXXybF79at26kTJ05cYZpt+vTpy+t1IfARdmHijYCjlNrFcZzhxpijKYDDtFxz6JvHVFQznvtGAS3PxcCVIubJRd3xgxGmtaATdjIXxYjO+/jBLKw3tBUshtXGjLvyu7gFdR15ptb5T7Sj+8KBG4vtROAbY04ift/7x0D/Yszfh97XzscPvgDm47njpKW24mWt9Zl55D9LKbUncDfZ1yqsIJTpdPqo+vr6juxdfjWPezwr3Jp1Anb3RNItYIOVUudorYv2YquUWg87QpUPywAvhwC/CFwXDuUfF1rF2URoQgnEfBDwAK09YmYT8wFa6xlJz19XV/dLkvtquU9rfUK+XYfW+lng2WHDhv2xoaHhpLAt9e7IUFW+PCZ9U3kxnttA/Erxn7TxtdExaet8Z8w+BbbOu2MXjUW5PXx5KxqOH/RuY/Rov6J7yPPcG0TMC4fW+inglxV8f01a65tSqdTG2C29SdgioQB1hDHkdiHbkknAekkFWGs9T2t9PbAOEMRkqXccZ2SRxfwAoD5hXTYA++Uj5gCO42yXNG8mk7muI+WZOHHid1rr0cuWLftJljotmqD/UrqayuhPYtL2aENsNHb+OMopBbbOhxDvQvL2YleIgcOzvN1ehOfOkSZTlaL+BvBQJd/j5MmTDfBH7HBqEn5TRKHbDrvFMilXa62Htscnu9Z6kdb6eOx001ctxHxofX19cxHLuBZ2aiSp9XxY0mH2iKCvm0fegiz8e+SRR77RWh+vtXamT5+e9yhOewQ9FQaXEMpsqLfjO3HW6yH4wcYFvK9jY8Xcc/9Tgjq5PCbt09oWvtiFqqS+Cl483sHO5ZabA0ke+GeG1vqMApT9WmAg1pfCWR2c9kgi5o/lMcpxtda6XQtxjTGJnVClUqn9KqEd5hL0+bTeXl5rChgoQygdjrWS497Ezy7IBfxgM+Ldqk4ueuH8YHes280oN8j+7qoniQvPlxzHKXech2cqoK6SbrGai3XLXKgXmpe01vtprYs2EqaUWhPrxCyp572rU6nUme29Xj5WtzHmgsGDB+9Z2YLuuc9jl/lHuSnsQIXyEef7vk0rOPQZ8HjMoQNSflCIeb1fx6S93s1xSrEdMU1rT4HNKbhGmkr1opRag2QGxAvh0PfKXFeHkdy18RVJfJdXUNlWx8ZhSLqb4epUKnVmR9qEMSafUN+rplKp6Uqpe4YMGbLfsGHDyhEeOdEcxG1Yn8Qt6Q48gh8MWd1xHv+6wKukhRwtZ8w4Z74xcZbwywm+fh52rrklG2XAxW5Xaa+FvA6to7sB3NAwcngpoki5MWn3ZDx3qbSYqhWovthRpZ/kyJrBhmde2UlquX6EDdVaTe3gaRKE6Q65phBTCbkMpCwG8uGZTObwhoaGeel0+t/GmKdSqdTMtdZa66VCxTzvqKBfAYyktQ/2nsC0r42Zhh/8OQXPdsRRh5Cc+cbsCuwbc+jVXN+tgQ+arfBvGzl0RJ8x4279tv0vZ7+MaSPLHLi32G97Xf0gtTTeNXG9tJaKoVYplXSf7S7YPc+/JtmWtYnl8pMeYa+E+YrVsScVPD/P2OXl5m95lO1arfXphbhoXV3dzMbGxgztW2vW2xgzFBiayWT49NNPlyilXgCmZzKZaT169Jg5ceLEgk8F5r5Rz/2EuL3NP7Af8EQG5uAHN+IHe6f8oA6hKISRvK6NOfS1Ez+cvgKhY5e4OfN9vzVmnQ7c2rkxaRcZz/262HWyFBSthxobE45YCKXhUOyanCSfx4BRCcX8BeJHhkptRW4ZljEJYwp9/XQ6XUPy4CtPV0ujUUpdS7zPjTiu01qfVqhr33///Z9i5+wLQffwhe+CVCr1ZENDw2dKqVvT6XRBp66TLfv33CvxAwNc2UauH2P3H5+UAfCD+4FXgI9ScFfG7p0uFn3xg+EUJ9ras3juW5XQuB0/WMXYBhYXZvaupH71UzA9Y90Orh05dBnxQ9c53veDbWk9LNpM6aKqxQ0CLKuU55aEJhiOHxRjaiKD547vpC8JLwIDtdbflvMm0ul0jTHmKuy+7FzMJWscq451D8CPEuadUSXPd2uSTyMAFDzwjTHmSsdx9i9C2dYAPGOMl06nZxtjLtFad3iXRPIg9J57FX5ADlFvySHhhwyMxQ/uxYZv1HjuKwWunA3owGb8HPyWIrhHbYdobmnAzyLmb6fg9KRqkPHcpfjBeGzEsBWemeMHZxvP/TzPu/t1TFuahud2tnCdxWRMkc7bBHRGQb8fGKG1/q5cN6CU6gocbIz5a8zLcTYeLvNw96e2S+6UXKiUmq21LthU25QpU/6llLoH67K3ONaIMdsB9yqlngRcrXW7vVnW5pXbivo04FTi9xu3xWHh52L84HXgGjw3QMgl5PtiHVEcRvwUydfAUfmuX0jBBZnWgt7L2CmUO/IYNVjTWPeXUa6UhycUkc+x0ewKKejbKaX+ljDvjtgIavlOL15X5np7rphuZ8tMCrhSKfWi1npuoU66dOnSkd26ddvUGFPswDp7AbOGDBly+OTJk9s11F+b9zesg5Dj8IOrsd6R9iX5UM/ySt8auA0/OBO4rA7ubuyce4V/FQ5Ht4dB2GArbS0k+gbYH899Kd+Th1b6OKz/95aMzkfQjZ1miXZq7/V0nH8vEtERisdJwEil1B3A77XWCwpwzk0osOfECLdprV+RR1dU+gETgAGFOuGjjz66aODAgft36dLlLmD/It9/n0wmUz948OCBU6dOfao9bzTtw3NfxnN/5djwkQqYCOTrK3tL4PZGqMcPNuiEjetA4Ix2frbKIebTsf7JX+rA/V1D6/nndfP0MRC3EOjCRbKVsVJwOnHZugDHAw8rpXap8HudRwUs3gO2DBfQdWb2VUoV1P/EI4888s0OO+wwyHGcs4EFRb7/7qlU6u5hw4atVnwLPWqhee4CbFjEKWHoyk2BfbDz2iOx24l6JBC+mfjBbnju/9pxG2+FLxUF77wc+KLClOkT4AwH6jsc7MRzX8EPXmHFLWwp4CiSLJzxg8OAbSKpCx34l6h53vyU4sxtrgyPYjfgMaXU/mH0qkpjATbSV0MF3MvmxpgairMwr5I4SSn1iNb6kUKdcNSoURngynQ6Pc4Yc3b4Mtm7SPe/7tKlS8+j9bRocQW9Jd9Yq+yd8AM2pOT62D3KO4UCn80j2frADPzgF+FWuXxYiue+W4xarYDesAkbLeg24N4UPJfx3KUFvK+rab1oysMPRid4uRoSkzbWeO5nFfCDrsMPNsJzP6yG3qcW3u3kLmqbiPc62RY9ST6K2AsYm06nty5mYJB2sBDYW2v9nwq6p22x2/2qkddI5i2uG3CbUmrLQnvEq6+v/xw4TSn1J8dxhhljDsOuPepWyOsYY0b079//gunTpzfk0Y8UGc/9OBSj2/CD0cAB2H3Qm8Tk3gC7berSTtKJNedpddXGjDJ8l4J1ly96yxT++UzAD26JNMblQ5kXt2Gd/xw4JubItWWo5/+GdV0TKcOWwIcIlcC9Wutf5fOFcBh9O6xnw/4JxH2L0JnHvRVQXgM8AYzUWv+32BdzHKfZGPMEsHeC7L+qUkF/WWu9nVJKk8wP/TrAVKyTooKjtV4MjAPGKaV6OI6zO7CXMWb30IBdpYOXWH2VVVbZHRv0pkIEfUXx+Ai4BT94FLgEODom14X4QdAOK70SGY7nJl5ghh+MDYV0hYeagUdTfrB/ET3xnQ9cFUk7uk1Bt8PyUabiuR+UvJY99zX8oJHWUabSVHjozZWIvKfDtNbPAc8BNyulDsZuVct1nt9WgKC/CIxqb5Sv9jB58mSjlEq63XSQUupsrXVjFbWfV/lhQZqHdV+bJP7EbkqpqwvlPS6HuD8Wfhg2bFjNkiVLfpZKpfobY/YJDdmuef9oHGenfAQ9VZZH47kf4LnHAHfGHK0L38pXuk7MsT7z4+YA987AiUW8yQnYYf2WbI4fDI3N7wfdid+2eHkZ6zrOD/1I0dHOgdZ6UmgE5GJvpdRqZbzVlx3H2bWUYt6CKQnz/RS7i6ZaeA27BuGLsC18jp3uS/pCcrJSqqSR0CZOnNg8ZcqUl+vr66/TWh9cU1OztuM455LntJPjOBvlkz9V1sfkuUfzw3x7S9TK2GkZz12E3eMfF7bvOvxgpyJd93PsqvkoJ8Tmt8Ofa0WSP3LgpTJW3+zYl0M/OBGhs5B0mHi9dp7/i9Aaivu8mfAc2xpjxpbFenCcO0i+7OcqpVQ1uOh+A+ivtf4y8oL3MMkdJnUDrlFK9SlXISZNmjSvvr7+8lQqtSPwZdLvZTKZvBbdpSrggU3tqGXbqfDcZ4HfZTn6sOMHPyrSlc/CLlxqySD8YMeWCTV+UEu805iLjOcuKWPNPQrERVb7rejgSkd743w/Hcb0bvXBjhomjUtwjFLqwFIXur6+PoONTpeEzYkfIW0XSqk1lVI3KaX2KWCRPgf21FrH1ntNTc0JJAhIFbIj8PdyN8zJkye/YYxJGrMex3Hy0sJKEHQt/c+KrOE447M0vr4Gbkv5QdeCX9RzX8UuLotySMs/mq3P9ugq0wYH7irzi9An2BX7UbbCDzxpVZ2CnmXrpKy71hF59Ku3KKV6l+FW787DSh+qlDq+EGKO3eZ6IvCQUmrfApXlC631N21YvSbsn5J6vvuVUur0PMo1L51OTxw4cGDfQj4gY0w+wXHyWqFfCYLegLACX40cbhz4E/FD2AdmrO/0YnBeTNrvQqt8OXE7EG4ts3W+nGxDjtc7frCatKyqJ2lnXJQRvtBHeFKf++tRhhjtWusHiV+HE2vkAr5S6nilVJd8r5VOp2uUUodg/YBsFiZ3BaYopQaUqLzvEr9ANxsX5OOEyBhzWJcuXV5Pp9MFC/5VU1OzZh4W+juFFXQ/WA8/GN1zzLhiDYMPQGjdkDx3HnZRV9zK9uvwg70Kfc2UjR8e3Xves9luG8Lxg95Yp0FRLq+ISvPcN4DrY450N/C44werFPX6fnAkfvC44wdrSAsuHEqpHkqpG7DDpkm4r4i383vi17jEcYRSKl2GKrs8Dys9BYwFHlBKbZPHM9nEGHNXWNdRC7Y7UF8qUXcc54FwZCIJqwJjlVL57Blf2xgTKKVmpdPpQzoq7MYYL4+yPZPPuWtzdFAbYBdLbbLImFW6+MHvlnluobdCx60+fB8BPHc2fnACdq9j1AK5Az/Yp5AOdTKeuww/mEzreeeRwJ3GbmWL/nin93SczyrFb7sDFxu7Aj96n9sbeMLxg72N5y4sgpgfEY4QpAw85fjBXsZzv5RG/INw5LkIa4fwsylwXMzzbIui1bvWepFS6lfEr/2JUgdcXehgIQnuUSulbie/AFoHAgcqpSYAz4ci3xjT75yA3Q76yxzC1gPQSqmDtNaPF7O89fX1TUqp47AeAzdM8JUtsQvqDs/zUj83xtynlHofCJqbm+9+8MEH30765WHDhnVvaGi4LI8Rhc+7dOnyXCEt9LH84ADmlGXwGn6wTsGehHVOEp1vKWUc7WoQ9fHED92tD1yxSoFHThw77B6dt9oXP9g+poMwwHmV5LfdeO43ZJ+S2N7AdMcPVi3U9VYdM87BD/6KXUOw/Pf00/A6a0kD/qE/C0ebkn6eAf4G/CFPMZ9e7JCq4bB2Uv8SmwJ/LkN9n0L74oMfG/Y3i2KeydLwmeyf0ErtDkwt8EK5bM+kkdY+PNpsj0qpM9t5uY2Bi2pqauak0+k5SqmblVIjhwwZstshhxyyzrBhw7qPGjUqlU6ne6XT6X5py5UNDQ3vhe05qXV+68SJE/PyephqQ2zHYd3ZtWQL4H/4wUUFEPP1sKsso85A5hQhXnpV49j9t6/HHDpkoTHnFVgQ5wNPxhy6j9ax2D/Ec2dW4EvQfcBp2Sw/A0/hB3sUoA1vOt+Yp7DDsNEObktjvR4KpeWaEl3nZOCrhHmHK6UOKGUlhNHn0ljXs+WkG/GLVYtR5seJXweUjT8qpbbtyDWNMZuHBoSfyWRmNDY2zm1oaFg8a9asZmPMfGPMW8aYycaYM7Ge65LyVSqVyrve2rLQs60crAEuwA/eCoeD29MRpoFpWAcHUa6SPqmVyH6BdaQQN59+cRgzvZBcEZP245i06yu1zmqsJZFtNek2wBP4wf34wRbtaL8b4QdXAnPI7lZyLJ57hbTekvKa4zglGd3TWs8n3tNltj5TK6VKOmKjtZ6BdSCzoIzP5E1gYMmMH8cZjV0LlIS+2AV83SqtITuO85tJkybl7YO+tg0rZyR+8CTWD3vc8Eo/rBvXa4EAGz51fhgvPa4TXDscqhiFHWaPu/YdXWH80vzLv27YwRZ7//o0PPeRsjxhz30PPzgn5m3XAcbgB3u1M1JdK1Z3nOe+zu0XOkMFbzls9tzGlB/sl7GLZQ7O8jI7FDgIP3gYO2T+Th38pzEuSIof7IDdi7wLNoZ8W6uCx3Z3HC+fZf9NcAV+UOypCycFf8p4bmfcWfINMLyUgVlSqdRjmUxmAsnmqmvDvrSk+9O11k8rpQZj5/x7lfiZ3A6cqrX+qlQXrK+vzyilTgN2BtZO8JX1QyPy/ypIzC+qr6+/vz3frc0hIuPwgxewPpT7ZcnVEztfcwpg8IPPswjrKrS9j/RjB05d2r5Fd2sCZ5agrpcAj5TrQXeBvy6DXbHzkVHr+dpaPziiEBG7vh453OAHt+cQ9BuKFeGuUGQ8dykwFD84jezDfnVYz4QKoBG+xA+ibdAk7ByWAYfXwZQl+a8rOL0UdWKsf/7OJujfYV2Dzi7lRUP/6b/DLuz9cYKvDFJKnaS1vqnEov5UOOR/bSh0xWYxcKvjOKfW19eXfH2N1vo9pdQR2AXdSYy8k5VSz2qt7yh3QzbGjNJat3tKO/e2Nc99o9Y6ErkIu1CizZeLsONbK+bTlpg/COwmq4JzqIV92fkd8F7M4UOb8oydm+PlYSx2SDmLLjCxairOc68B9gCShHVdM6btJhHzl4B+eO7kxs4dBrWSMMDDwKalFvMW4jGP/OIsXKOU6luG+5yJXRM1IRTcYjEfUFrrP5RDzFuU90mSTwmmgGuVUlGjtZTrDz4C1JQpUzq0Pi2RY5kmz23Cc0c5dsX7H4l3sdkelgJ/qoN0oYaLOz021vgJ2N0AUS7CDwoypBe+PGSbi3oaz51RZfU2I2WnfI4HChnJ7wVgGJ67Q1kiza2cLAX+jfXxPaiUQ7qxVozjPIp9AU5CN+DOgw8+uOTurbXWC7TWxwF7AU+RfK96EhYCJwE/LvY2ldOORQAAAkVJREFUtTz4I5D0XtYE/HQ6/f0i7W7dum2G3TI5vcB1tUJXC1zbrVu3rbTWUzp6srw8xRnP/QLPvcKxw0vDgcnEL9RKUohzgE3w3EvFoslbnP6NDXkapQ64poDbpf6a5cXh8mqstoznNuC5QY1tvyeHotCettcE3AMcgefujOfeK42yaDRh90M3AjcCvwE211rvG1phZSe0RC8g+4hWlIHNzc3Dy2i9ztJa7xUK+/VhHbdHsJqx4W3/AKyvtf6H1vrbSmk4WusG7A6UpNv39jDGfL8oe+LEiUu01hO01vs0NTVtGI7EaHKPVCfhFeDU2tradbXWp02cOLEgowHtiodurJU4nuXRbvxgMLAadn/i8oaxMXYP5mPLX2TDN515eO6kjjwn4MMytZG32jh2F61dtb5YRFG/HD94O8sPsbFA15iLH/wGO1z9vXXkwMxiva468JWBwyLl+qyQ12j23CbgJuCm0HnSTvwQ0ONI7P7ZFUck4F2sX+WnHXjIeG5Hhi1PwjreKLkxmYIlRXh7vhI7lFsMprflzzsPria3N7F2O3/RWn+ilDqGZI5NIH7l+V/J7eXOcRynIL9vrfXTYdv+vVJqD6wjn+2Adfkh9nhL3g3zO9hp0pe11nPaefmA7LtQljO/AGV8TSm1G7BV8i6oNQ899NDHwM3AzYMGDerapUuXHTKZzI6O42xhjPlJWGdrYNeKdQ3PswC7vuM74HNjzH9SqdSLqVTqhUmTJn0g7+qCIAiCIAiCIAiCIAiCIAiCULH8P1F8RIwORTGdAAAAAElFTkSuQmCC;" vertex="1" parent="1">
          <mxGeometry x="502.5" y="99.84" width="175" height="70" as="geometry" />
        </mxCell>
        <mxCell id="ypB30eQcN8WYW8XRluec-4" value="&lt;b&gt;&lt;i&gt;ServiceBricks.Storage.EntityFrameworkCore&lt;/i&gt;&lt;/b&gt;" style="rounded=1;whiteSpace=wrap;html=1;fillColor=#b0e3e6;strokeColor=#0e8088;" vertex="1" parent="1">
          <mxGeometry x="830" y="470" width="280" height="40" as="geometry" />
        </mxCell>
        <mxCell id="ypB30eQcN8WYW8XRluec-5" value="&lt;b&gt;&lt;i&gt;ServiceBricks.Storage.MongoDb&lt;/i&gt;&lt;/b&gt;" style="rounded=1;whiteSpace=wrap;html=1;fillColor=#b0e3e6;strokeColor=#0e8088;" vertex="1" parent="1">
          <mxGeometry x="830" y="415" width="280" height="40" as="geometry" />
        </mxCell>
        <mxCell id="ypB30eQcN8WYW8XRluec-6" value="&lt;b&gt;&lt;i&gt;ServiceBricks.Storage.AzureDataTables&lt;/i&gt;&lt;/b&gt;" style="rounded=1;whiteSpace=wrap;html=1;fillColor=#b0e3e6;strokeColor=#0e8088;" vertex="1" parent="1">
          <mxGeometry x="830" y="360" width="280" height="40" as="geometry" />
        </mxCell>
        <mxCell id="ypB30eQcN8WYW8XRluec-7" value="&lt;b&gt;&lt;i&gt;ServiceQuery&lt;/i&gt;&lt;/b&gt;" style="rounded=1;whiteSpace=wrap;html=1;fillColor=#b0e3e6;strokeColor=#0e8088;" vertex="1" parent="1">
          <mxGeometry x="795" y="190" width="280" height="40" as="geometry" />
        </mxCell>
        <mxCell id="ypB30eQcN8WYW8XRluec-8" value="" style="shape=image;verticalLabelPosition=bottom;labelBackgroundColor=default;verticalAlign=top;aspect=fixed;imageAspect=0;image=data:image/png,iVBORw0KGgoAAAANSUhEUgAAAsIAAAFSCAYAAAD4nLkHAAAg+XpUWHRSYXcgcHJvZmlsZSB0eXBlIGV4aWYAAHjarZtZcly5dkX/MQoPATjoh4M2wjPw8L02klIVJZX94tmkpKSyuRc4zW4A0J3/+s/r/oOv2npxKddWeimer9RTt8EPzX++xvs3+PT+fV/LvH09++15l+3rRz1GHuPnhVY+j+HH818f+PEYBj/lv12ora8X5vcXevo8WvvlQp/x+KgR6ef9daH+daFonxfC1wXGZ1q+9Fb/PoV5Po/nx/Tb56/TP718H/av/0+V6O3MfaLZiSF6/o3RPgOI+msuDn7o/Gux8MbAG/TM51/7ihkB+VOcvDLzNVr3LRPxrxf09TMRP76691dTS79f1P2a3p8//ZLeOn4G+1t28/i8w/HE96yUn49/fD7kX56PP0akXP3tzsX/rKtvz9cQ9rdptr/+3rubu2/SzGKkQm7K16R+TPH9xBsngYnvY4Xvyt/Mz/V9d76bow0WtbP98pPvFXow8ntDCjuMcMN5jysoI8mOVR7NlsX3XIvVuq3oHQlP+g7XKmWwY6MQ1quTFO3nWMK7b3+3W6Fx4x14pwUuFj51ZP8/3/94oXvVOyEomPWTYsZlqjeGoczpX95FQsL9UUf5BfjH969fymskg/mFuTHB4efnEjOHr9pSHcWX6MgbM4+fpg11f12AEHHvzGBCJAO+hJhDCb6aURLEsZGfwYWaxWSTFIScbTNKS5G2q9ZM9+YzNbz3WrbP04AficixxEpq6FNylUBI6qemRg2NHHPKOZdcc8s9jxJLKrmUUotQdNRYU8211Fpb7XW02FLLrbTammu9jW49grK5l157672PwU0HVx58evCGMabNONPMs8w62+xzLMpnpZVXWXU1t/oa23bcAM4uu+62+x4nHErppJNPOfW008+4lNqNN918y6233X7Hz6wF90nrb9//etbCj6zZy5TeWH9mjY/W+uMSQXCSlTMyZimQ8aoMUNCmnPkWUjKn1ClnvhtdkY1RZiVnB2WMDKYTLN/wM3d/Ze5b3lxK/6e82Y/MOaXu/yNzTqn7h8z9nrc/ZG0LgpeP7mVIbaig+kj78YbThrUhdvyHx7n3vKW0e8UI/VKQ857ZFm08Qty1pV3nrGfRK5dEKch3E+eojyQTBVwCzgVn7zeM2+YgQf24nqa1FGwzizTouBBXqWHNcEtY9RQ42y6BJBZ35NvK2HWdzUX9WGTCAtPf1x1uNm6illdt864SjwGB12+yNJUtYkskRlka8k4UeCYmOdQWI8gcy7zWrgt2W2c4jNRy2devaMW3mlf1awG9GwLZBCXtEACKTLl4kkg7ZFEFeB9O3cHdxtX35lUu3Y/NuarVc1MuiwK5XKWFu8h+PH4z/hl9uRPEIbjzRGafKYvtQlEabiwktDCD02Moh5kxUDsUd46deivFgifshZlRtqiKG/YZkzeMGA5Tgy5mlXYId2/umANINxVuGHFaVEiIoQqwcSfztZ9jObUBXPZSO+8fgwtVK9MPyn3FfGKasc+kVM+cx5YI6sDnbHb6ntUfanQSlU0p+ZL9GjQxrQtBEo1JFnavzeYSGpOFEid92uaKpYcOWqdLaKqNuRt8vNpd1s/WDX0n2+UkV2brgw5ciWvQIaFQ4mkR1I4QrPH2zmAGKZmU3qBVwpj036wURKy3cI8Tunc1vFkSA6PXcj4KfU/xRPppcbGu2t8W7kllrsnPf3zRfV4lFuM10r/9iIi45HRTJtySAjLTzMchJPQurX7gsUM8ZkyMgmdWypfiLhIpNBmTPkTHfSomx0DPU7jALWrzTksUDgTcurBhhXIPqR6X4i9ROckjrTNLawyk1msOpLddwslNUiSenheoQNOFOibdV3Z+fUUJ7UqRpbJTC3lNwd+mjRBZoO0i2O1WChr8nILFSZZPymOmitJFCFH53BbIT89SIC2s73wyspdZhp0okhy40MCMjJpU7QTprDxbzre3FjaFpiYOG7xiHsD95a0nJGRxn7sDzWeVTWzudjbS9meBiTeOuZgVcj1dgD+B3nXWHbEjlDC3iP2mReEwfzCoT2WmzSC14B1oR8hWRL/VEpEmh34ppEfzaGRxnUEr7AErhJGp+LJn3icP2qXRjYBJxmQ4ZnDDnKGP1XYaeyZiXoVv4ZTry16H4Z2MrhkrW6/h1p5Amh5Xs90Dw6NvusuXlkXX1FTiGEnQwQ32mmjIhk5cl/YYr1ViVpfQkxXFCaZsgEz0J4EKi1jqIHTPgEqMmxqNI5A8TZEGBsXLsTv2gG9RTHA2L/YS96RcCnNVZLi7i9fAF8sdyoDwlKgTcqsVQGS08A5VsPowQK8VQr3SJNAoTKpfOFvAni0xOqnHmv1kEND/nSEfKLa3I780gG0LvZXY6NkN5M5Cc+6bI4BqF59xLmqaFml75c5tL8VHFI+qvDPZS5nTNQ/lCoUyDiMAw4aHmjbSWwRAfqH6vCeYDV9kgAixlAxlIU6wCb6CD2nAl2rhfLrXo9G+mTaWIfjbG97L7n5epf5pgtcH/94jii1XcWeArIkQhQNY8iOJ3yiNLAPCcGjfiIJo/hAimHNS0zC7h8mYM4TsgKXk6T6INQGlOabeF6FGw4yIBlonzpFQ3eJOmGPO2TcayYDUkieXgjLbqQ4Kr5QSGMXIJCMyuafxEtw21Akgyx2Uk2XRtc+kFy8fgYB9oNDFPRrRceQD4CO1UA18Fau/RsMyplxStkUWCrliwJmapN8X8ouxIhHbQw08Hj1cHVIBEZEnf7rAj3yOQwuFjGIIkA9Dj0ICSirN0m/hLgd4JLdULmNbFTgezhZQXAZghhCKVpXmYwXKWQw0qafm04V0HyhCncZ1D5OHRCDTQw8ggWpyxgDIBDxZCQHRQ7cB737R5neiC3IN1BUMADvuePZYZw0YFprPYNWmkjtE6jzV78GvPAgbbQRYYC+BqxkSyF+FB3KX6LflhZPoJUxAPSILuByABtVXdhlmTVMoawxr+YPkOztLPajl0U2BeN6UKpwAPdu4XB37Sz+BKlxPKmRnJ7pAYKBFwMKJRgL2RzkHduFhi689QopvylZhbZukbsoSFOEKwDeCfAUHigFAIDcQBnYuKolb3YDC3wWc34asQj4WYGGMfvvIpW05dZx4twBWkvUKQSbeCzRndA3BxDFAZcSURsnlZJBKK0Bga4H5ALtzblYBLyA28z9GtyVlaJEsyMsRIbVsg4z3dfwAbQHRxW1B25L5K89B+UBKsSDLLdaynmBGudD952WMIgOgKnBI1O85vS0M/yn4noEMl2ILTxZ9sLygg6dkIL6AKuISrs9oxHlKLYd2fKz0kJTAHOjQ2OCzgGJut3EDuGafsCug2dGolE6m5w3wO0AtV8C2iJn3Qr1WnPElGksdtRGCneHDMlV1C74i3KtQ8oJpKCrfaFEqwGEoGPRBT8O7NMdEuLTJFCGImdtBB27ME0NFi+LHImwUgG6qF2EjjwOthOOdAgvjNAiR1yAeHBJ5oZcKdevj6p7aOZrgjqQco4nM7cwWiUIFR5qBjkSx4eJoWQXkQJ009F5YTC/7FPdq4UwKjlBQYgBcPb5MBTrQvSRILZ4OetRBMZlihdTpoCJuR5XVPqWHyykI3iUphhQNt6GHsH3wFQoYVDDyD5ISvV0dxQxbKUEgDnVAn/xbMtJ9e0JBplYxCWV0D9sd7AjInT3uBGUtfbxpG+T33rgF9FvFNfeyFi1CP+J4pbSZOdPIjebryxgoc9/kTTjUasyaNEmYKFd0UpBEPxGzslZFREA6cNue9I7H0SACDx7FoBywDzLFR2yETRSw0oEECHwnAQ1XvxMCgZe3gUd7DdwlLmAzI1AyJvwOZY1Fb/OI7LGjwCw9DVmRgi07TcNRfZQX3g5TdI5DpQEf0mSoBumUgOLZH7WN7AGnqiAVpuE/2EwgBe1wtaiMqExEEMOEanQV50ZYqekU5lr0w0U4aLHu9iIXQxXADiBUlEzCvtJrm4kTNdhwZbmz3aO7aEjsIepaNUyW5BaxykvyA8aJG7zXooIWCGifa3LAF/n6bO+RB8RkAmyT5MAT4mG4fdWEGfZCg7FRLGQFnd+1IAAnY35200oJerMTRBSVapwoXbfxgOtAfKp9OMLw8lqO6AScmEboQuJMsAkOYTJQF+ug0xrtg1hMaA3ZCycBjiHYBzFVKEas9hobs5fPwj9t1NnxWi1APVz9xWsuGKLJlBNQ8ESuJrrhh/LKoBk8agWekLFWdNYTnZ1uv8Df1FWwhi0B+G+haG4ZJRgKrK0OpeYVHVS5yoDEY4xgh6YHyMO3wKsYm5XlMYsgCLhB+1HJ6l1VE03qKLEDKEsglha4PW0+8TyUBnJmYRdx5Gm3DFJuOo76xT3SVuAQAIllSIz8Itip2yFNRp7nQH+b35648qqShbHAs9JfwFquCjacTZNSxyY8wsAyXpy6o208LcOA9DlygPO/GDNoRmVRVG0kzgJWDduBNOgI6NLl/qFoxATWp9hyNJZQBP3xv4tO9CwQ64G5LAk5Q6CxUBKpF6CWepAez5OeGf0pnyXulRrFEg0kFzII6YCaXgsJGEv0M3qE1QGN8e8Cr+U2jg9RtzZiLXtieovWzCdluBkCaQBBye/ZAP+NcGGVwEP3RQ8YCIrTSeK1vI5ae7YmW40qu934Ea844ACt31ESYxSBo6HOxPxgo8F1O098Ej1Tw0GxheoLr2/gbyMRHzOAKLuBaYjjgFmGwtFfcBDjI17QxAQe33I/cP9WBR+v4ZoDn0FXDFQBaACKI46wNFd6TvdOmGWCTJhnp7YLQa4zoXGRlVBpLS6b2vJQ1lg/mgDjQbPcLB25z6GaAvI3kod2dgMx0JbwP/k4zBoPhO2kcLPj/7d0+rBXZAyTztwJP8YISZqoQJLOi7p5Gb3KHBlUnlG1uK50G4Ax3cFig9BnUrQoCJiiQ0L4Bw/irAQXkKFT8dsgPFNCgmP5p1d5DjiWyiwUGjAiXYolwyEhqTG0Q5KHWsP2yqhLmjYt6ICdgOJNREmLetABfqXmMuGhJOkHyTNZUQ11VjDeBYansLgipjY850GLYFihcMpVlIxgQBEiuBPzwUuNcZzimwrGXAvdWlRoh/qVue0emMNe4i4OSnwXA7plkdSXhJjyLhvT2LwK3tEvK+FcayDRCLSR0+H1bZuPUIanJVMLYBcPAotoKKAEo2KXPJKsbLvgmGv02tbqTu1VK480ExUDg2Pa15OljcJ9a0UAHM7pmVLMBuIScYdi96SyN1cbESjye+P+qPwmwqHKL6VUalqtXIRLPtqXWSAu1Q/wI9O4/YSlx1O1cGwf892RQiAzC3JplDK5CX2TPhoBCUfo8H2vw7Tcc7UjByQgAibvjk4apOAs7iOGQFAwDK1I32k1GbOLjKMEis0BABq6ss+GQiCyR8uKUqAkxi00Lc6zLDoeABFYFupBjhwygUXJAYma2oRARySpm0VuxWJPEIDt2uJz6hZtEijegSpJn+JDfX4WSiDPz33oker1VmA9U3WHjoZDS1C/jIA7KlouQZSjxtEKA+uHY+hwK+mIRcxPvKRhcbj4aDTJ0ga2JMQX+GZwwUHKTdtYWyRQzUqA0AOqeKKjUN/Vnp/qL+nUFNAiJduifZ7xz7zu7nRt6pQ6a0XvBoaw5UvcIPdAxJNpwa+q0Si02OkpAhfmRKnRaZJyqE9HkQ2KQ7us4d2DwvEB56xhA3EYw4b8wF8qGfQafKT1rU6s6BzZPa17moN5seQl54tho+oj9rpTniS7gNBTGzgpocZIK3xN5a8j8wQupNPfOv0VhjkBXhcceGiWtJrsFcoHTFJdVu3ZrihwA0G3wB0mwdwyuywlNfyhAFZH+n3W/3HCGWpCamGZV5bo1wozBphaSDBAzp4W0vK/II6PQawIE1xw1aq3YwBY3RstjaDtJHB8mz++oTqANK1OVuhdq+YFlNBaKQGGsbA8Wi+k2QjHHU7Vhn+ImeBsCNHiXHAwlVgOsidnafVNZVCDb5NKy5VLxQ4adi2LTUtYAocLR6ZoLaxqcUN7QSFhYS/JlwX+VBBJZrAQH9YIWwrYzYJS0U7p8CBxrzqlIRym9991vq6iFe3PdSDrIPldCMQJpzNiVGCT6sMrgi749oMScIDgxnSOKpTaWrpci9tAq1KWeMGjFQWK8VARwdanjrfX1oIcMMIbXdiWU/Ju1Tpb1CoDgIGgusRdO3YTE2zBinQRHX1NZmOIftGt6FdgBx1HH5/sErwDnUJrXAzT7t++D5eiDLqoLlDd3LjUQjMdyNPQoqlfLejAcAWU9+CFQ7neWZN1qn9qs8gLbZZlRQIqy10TAukrwg2NQa8MieJC/1DARRnAq3p3MqCDjoPYUpT2R1HglKNcNL2qdb+pfSisCMpiGeISN9K0vUJ9Z627mBY/HRAOgmvFHx9mvA+9j2LuwgcUJdOHANGdkGNY1qFPwNJLlWs3EjxueaM80pM1BfUOiBy8xW54z4vWVluXlMBYqMevNiDcUJMWgibGBgoENxoW8a3hX+io1j3rEgIi5zx9mRkA94EoDqp1FQIhPVRlKWcdSdte61VnfpuZ0ATOgRhVXB0lV5O2UrF/2nZHkGO5qIM24meVFu2gbU3YD4FYtD4b+MiRcQud3nYSdAdRQDA2sWl0FQ2AwFOV97G1ObQ2NU8qqHbYrs+ldIG5eCnBYhLqu3Oo6ytvBuybRxzHdHsEbhoc/ijbuPQh87TwiVoajAwMlBylCDTOiywICV5oB5ea1sorAktLaKjlCJdOII3It2kS+TBuIm6+Mnpt6SCcMatoWWrFFdwn5kEVTDUBNG+/z0Ds3rkQ1YRNnfIrgXC2TDMOrUbC3Ys7ogQiMz3mmraoFiqFSA6rn0hiSAZMM7VdkrEb+KA2A3GEP+OR7SKxgDuf/agTEJLuutrxTZIRGKQtqZ+ZKfiMYqT5cbW+cYngCyq6M7mPvD50nfwQri7ULOk3VKKTCCFtR9W6LviNmkXflQojg7sX/FRJt6W5EzCt9lE/oFx+C8TBQZn4PKQu7iXtDjHgLfbBL9EZlCDWt6A2aHpkC9N6C1foT56n7Q49rOVJCy5roR3LD92h2MC2hpDEtQHSmHptgmvtBhEs6IFVBtiD+dMeq5YgTeYUk+tdMDqcysVftHNfSqP8r1aMwa6KvqgLdNQeN6Wf0TP17TN7aZQtdYNc8sedUcEyLpy0BKZVheq1L0xxaKcGmGh0vhZMuf3bj0aYBa2CR6povz1bT9qB2jeKfNQSmKEH/Aiyh82+D23xx2kd/kcVpUxr4zEK4I+nlqnHterT7s8fB+z2lDGGZEmidkHR2NTtRRFLGKpogbw033Y1usrdYSDMZr5/fQr/+uvnfnxKn9FN7e2rTgSSDj2Es934bIF/1tBBTlAQ8CPiZLWKFLkLfeDJ2dHuYOXTXQpGrgppRQqPdnDdqrP0KFUMH6LNUz1+bMLQpjb8TtcO6tCWZDWapeFUyInOMekwCc1xc5XdfVD7RiBwA61RsvQ9VrMXdJ72YyFMvIMqeiiOmitVBfAgt/FlYHyWy/Zbe4vBOrBP9w4tXaRSQWTA+LNLjG2iWhsNRWtIm8JQBZsF+NKISB4PcSL9JPIIIQ1FQIGnQV1q2wUyRbVQJj3FqY3JKXn1zg2IZ6yoylayDBzT/S/hwY7OtWkl2yR4Mo2WUD+tpqGt2gLnZ20GaCEvMl30a9/ySVEcmkFdNyXfoaYQadCRqPqAYDugXKTueCLLnwi+gSnoU0eEcLE4WKB7RDwef1HkTh2GW6ZfqlQpJVSmLqtTUzbQykWjxPiY5BrgZSbio653l2iqOlgFbbhhiIsxD8ayX8KMs0B08l+aQRvI2sGEJbHb92EhyaGPiV0gp/fZQajieIeNZeiDgaetDZ63aS4Sw/UU7bqCsMA9eVL5gb/mtS1OgQR5B21O64TJco1C62+vNp5CEfg759E2ErmmDRisUo/DB7nlwHXOAxPQa3xnbHBx8aJCLjobBaqtAkIxBAhayNI+49SiRZ5YlVZ8AE4xVIuwovdIt06taKFwMy0ccEzOMs51onKx+QW1s4WpdNDV7gMyVUt+QSYAewA5eCWQPsNCvE1mQKhIpy6HoSOpdDajqPxp2gwbBSzp2jdPFRKob10If7CpHlgV1XLVAlcmRscVyJ87iIApxIAvcAVhDqQAbSdMxEuO+NYW7B4uflEXKSh9r/LVJp3OMW3oSYzu2rbc3gIPST/NvHJ/5yHmO39zDKpCWEroH+2RkgeAiB6L0vQ0tE9oyISAx3AMSb8YhgCC4VBKkNIS4WJTgYQ5QCEUnwpWRwyiMlaxNE37am+tFjXbZcbw0tgPhaLoKCsuWkv8xJW8kntJkuClMaeUFyWGf4A8lx25UkfkceIbXeeTWAktAUMsTL2WuY/aF7WdPXpa0h6AgRnL0f6abGHrnZfCHo7p0W4Q0sqPAgqDmFX7P11HNcKmSuCHdZEgiMEzntxDxE9ql5tnQ7aMexxGUUcqCuJJHAqPEVqQn4gOlXTZFDqTsk0VBjkr/5CZF5FnZeYrcT4/dJR7sQPnm5QqwMcdMNlYjaqNNcme/ShJ+HdBO+icV7gqzKGr6NSha2hsCgn48J+dcTovJFETdVK++C5/+A7Voz36rTW1RR9hH7TLl5u1jGDXJr+BxEeHgLFI0Z+qjgahshbhKX0E3a6rS2bFG7122chykZia4kM4lhgF1dh9+mihADepeeumUQtP2rVKOpU0N24UDDBNBC+ddWznYi/ILvJI+2vMRIeYHnNIscWPFN7pbd4lKWwdYdlUBOHBDwDa4ePxP8qPNv7a8fsov68o7FyeONBe61VdfInTIc2nva1rOhhCUUKb6AecNRg+3SZFOpqAvlYbJsBna8EZ1sFVaXE4GyojFlyfzAP4ieIb6R1ee4tMUecUgsPpSTNppwhyWVpfP5lPoSJXYECrJqlUSKlg7MVcEF0Ecff5mgW1T1CQx0eRAJRIO/5bB0kv/aEzMV0ST+yqwyjjszHP+wg5so8gVG2uEXIqdrqhjVhrwh24hW/GQpNjH4Mxja7TVBTDa59r2jX/HElhOIpuwLD/T0JrSpTgpQAnnZCF9bTHGhL5ffszGld+KwLalG03dJ2rBQsIeUAwVZ2jlKHcrzUXBfAzdXIV/lnet6UKP9GR6LKn3lLG1IDUpWul9nM4KG+dsdE26khqHp2MfedXjNZFh13TkZ0VNkagmFby0U+oEdPmEOqXWAg+3vG579pL50bVJUAK5REQLKlT3jr0A3Jhbbw2sZ0cCm3yUwt+l4KAUguq+6RdGp2cFRAWst+2lgMZ5BEbIf2wo2uhnH3ub/ZTe41dh5K0XA4MI96yuKdO7d4G4aXhNWoHZ5AMYyWc4fUutgHE3FXeCptZOTN+Elzts75nOp9I1tDYK47etARZjkdqU2ZYAZCvpe6IzWeNmHwBmlY6Ei/ijI42dvA26IKspXH6PIrYkRpZ86FBp36lReoFgnA6qfPhPMh5xSr02LHIwzJnoFHnBqTyDpiO0HzTPRs58vCu5KUJTKZ2p3xj1lLtAPHnW2SA6cilhC9tSeCGaaNovfO4L5KnyZcCw3CDjs6gRrRUPa5WvoSvXvseV0uSG+dFceKmYB60ELSrNzI5ihH/mPAwyOdAadBAQC3W7EnuxX3F2Aj+rbM+tCCFSay6Nr1v1wKTjsTIzOoT07SNWymGq608R/kAZOAINKajpHeCiHdWbXrSRFqhqjqSfqjRsulOPpgMPbGRQFrivlooKN0VZH4HNGPQnom9oy5Tng1lSTMwkd0wfSVjP9+ha5QHwNZg0hu1NHGoKYLltKAXtTryDoBTfHQh/k1oQegpm5x1iJMmPBl5iJ8dAMLWBoFOz2ktqQJs5gw4S2V+FpNp3xIhc9AGIBv7bkDtnScXPtKxKvQNuX4ABHmZtSGuhVSHZ7lU2zNtkhD08rdhkTidlf2awPfxF4n4CGWdkR1+DmQoEopb52Wt17fHAOrxPsEKYYYpTk30OVnTr39omRp9FVXDZ2o3Ank8tSoFg6B6h2xihlq1AUOFaPFfugydjXpFc38lWC7tR4rTVyG4vyphw5k6i5iIQUwSUwqsgTHIIRI+gxbxko7QU206aEXGoMvStqXgdHCWMsWie5LhL4b8dHUk44GOoaGmnVYceswejgCKQ9Mx3F+i5v4h7ZZzWB/XyA+G0wWSgHmNDfy6D3R0BKToKA5Y42giW1olRa6g8HQOPOBk6Apth+ILQMJeQ0T2Jp2je+fuaB7tA9dPPzLAGt3XCP+xKj/pfwMcRq0zQvuMEA+IwoSvp7CVym6oFaoL5kUz0TW+IZ1Oxg1Cbc3nLCaRYQ14NGRz1N5W0s4kidpoDQRlW271o/MNkkRex7ouk7HfevtPrc1VDi68FM1sOhU1Lh+qDlafso9S/kSzKpb1E8vyQtm/h3Kd8063ykEsd/NEUWJl2miCVB0S84GqrsorDTf/tSi6MqZkBPBHHTE8HGbnYqPCOYCPjqX7rd+xsKMFkYCGBde0SooBuLq49g43vp+xwaxa4Zr0wL/YsJNq5wuHitoyHU1wF8Z7OxDpkdlb74YH1mmnaaMCwEch+mRdJz517HqCdjC4ToXXRztQzcpubmBHv62wMKHhHddsBB3juYqmV7nuv5BDBDsGFW+S3yri0AaODjXWechrgj2SNpOJnJazitZtt341rmllllTIzOH+ox0XdaQWiY8cxYbGqmM1XHURYGBc21d36GM4SB0Cok7QyURH+9OR8JEFxS44eOn9ltCfwqzfI2F2ptNv4L+n+pOInIqhgi9tsuhKiLjG7Qy1qF850XY1+hYzd3U2o4zWazX9fgrtqxPohSukAMjQs0kyARL4293dF2zE38sOgXDfscN6tQs6dNQNvNVx0KbfVKH5xxpR51aYFMEmjzpbJDNYtBBDGrVomDIyA49jOlyJqKnE5bzK+CVfn6S6H1mVMFjAHzCpAzVa9aJaoGcdqwEfASWgDSpNjalVyTPJRXyWtvxOcTPKd9aGF2zoy3esZuuIAoxW9JSFogVREzYk0693/ZGa3G8gK+1b0aPHoy7IM+wXiRHmvI8csDUI8yGgpIDllDU8/ZKXFq+09nqjFrKvIVYSOIILHOi3WFYB2QK+nKacWo39VuafgKjQ3W88Bfvp9zsNE2YfiBehbfSXjJR8uElSXbmUObVak2/fWmMrOiHZFwmmL94CquFXkf5IYf0Si03/OyYNxqctV9MJba0puN4axvoyWSBREg2zsrv37r8B5KHrAXi/7NMAAABmelRYdFJhdyBwcm9maWxlIHR5cGUgaXB0YwAAeNo9i7ERgDAMA3tPwQixrMR4HEiadBTsf5hwh9TopZPM6+6yLRFiO8HgKEz/0qG9aD0ymp6o9GSUmhxEU7cWzbIAnXg3WT98d3kAPkYU1J8+J0wAAAGFaUNDUElDQyBwcm9maWxlAAB4nH2RPUjDQBzFX1OlKhUFO0hxCFidLIiK6CZVLIKF0lZo1cHk0i9o0pCkuDgKrgUHPxarDi7Oujq4CoLgB4ijk5Oii5T4v6TQItaD4368u/e4ewcItRJTzY5xQNUsIxGNiOnMquh7RTeC6McwZiVm6rHkYgptx9c9PHy9C/Os9uf+HL1K1mSARySeY7phEW8QT29aOud94gArSArxOfGYQRckfuS67PIb57zDAs8MGKnEPHGAWMy3sNzCrGCoxFPEIUXVKF9Iu6xw3uKsliqscU/+Qn9WW0lyneYQolhCDHGIkFFBESVYCNOqkWIiQfuRNv6g44+TSyZXEYwcCyhDheT4wf/gd7dmbnLCTfJHgM4X2/4YAXy7QL1q29/Htl0/AbzPwJXW9JdrwMwn6dWmFjoC+raBi+umJu8BlzvA4JMuGZIjeWkKuRzwfkbflAEGboGeNbe3xj5OH4AUdbV8AxwcAqN5yl5v8+6u1t7+PdPo7wf0e3Lb4oyCiwAAFRZpVFh0WE1MOmNvbS5hZG9iZS54bXAAAAAAADw/eHBhY2tldCBiZWdpbj0i77u/IiBpZD0iVzVNME1wQ2VoaUh6cmVTek5UY3prYzlkIj8+Cjx4OnhtcG1ldGEgeG1sbnM6eD0iYWRvYmU6bnM6bWV0YS8iIHg6eG1wdGs9IlhNUCBDb3JlIDQuNC4wLUV4aXYyIj4KIDxyZGY6UkRGIHhtbG5zOnJkZj0iaHR0cDovL3d3dy53My5vcmcvMTk5OS8wMi8yMi1yZGYtc3ludGF4LW5zIyI+CiAgPHJkZjpEZXNjcmlwdGlvbiByZGY6YWJvdXQ9IiIKICAgIHhtbG5zOnhtcE1NPSJodHRwOi8vbnMuYWRvYmUuY29tL3hhcC8xLjAvbW0vIgogICAgeG1sbnM6c3RFdnQ9Imh0dHA6Ly9ucy5hZG9iZS5jb20veGFwLzEuMC9zVHlwZS9SZXNvdXJjZUV2ZW50IyIKICAgIHhtbG5zOnN0UmVmPSJodHRwOi8vbnMuYWRvYmUuY29tL3hhcC8xLjAvc1R5cGUvUmVzb3VyY2VSZWYjIgogICAgeG1sbnM6ZGM9Imh0dHA6Ly9wdXJsLm9yZy9kYy9lbGVtZW50cy8xLjEvIgogICAgeG1sbnM6R0lNUD0iaHR0cDovL3d3dy5naW1wLm9yZy94bXAvIgogICAgeG1sbnM6cGRmPSJodHRwOi8vbnMuYWRvYmUuY29tL3BkZi8xLjMvIgogICAgeG1sbnM6cGhvdG9zaG9wPSJodHRwOi8vbnMuYWRvYmUuY29tL3Bob3Rvc2hvcC8xLjAvIgogICAgeG1sbnM6dGlmZj0iaHR0cDovL25zLmFkb2JlLmNvbS90aWZmLzEuMC8iCiAgICB4bWxuczp4bXA9Imh0dHA6Ly9ucy5hZG9iZS5jb20veGFwLzEuMC8iCiAgIHhtcE1NOkRvY3VtZW50SUQ9InhtcC5kaWQ6RUVGOTIzNzQwNzIyRUQxMTgxNEVDOTQ0QzRFMDg0MzMiCiAgIHhtcE1NOkluc3RhbmNlSUQ9InhtcC5paWQ6NTQ4NTExYzMtMTM5MS00NmRkLTkwYjMtM2MyMjlmZWUyYjYxIgogICB4bXBNTTpPcmlnaW5hbERvY3VtZW50SUQ9InV1aWQ6OUUzRTVDOUE4QzgxREIxMTg3MzREQjU4RkRERTRCQTciCiAgIHhtcE1NOlJlbmRpdGlvbkNsYXNzPSJwcm9vZjpwZGYiCiAgIGRjOmZvcm1hdD0iYXBwbGljYXRpb24vdm5kLmFkb2JlLnBob3Rvc2hvcCIKICAgR0lNUDpBUEk9IjIuMCIKICAgR0lNUDpQbGF0Zm9ybT0iV2luZG93cyIKICAgR0lNUDpUaW1lU3RhbXA9IjE2NjQyMTE3ODQ3NjQ1MzkiCiAgIEdJTVA6VmVyc2lvbj0iMi4xMC4zMiIKICAgcGRmOlByb2R1Y2VyPSJBZG9iZSBQREYgbGlicmFyeSAxMC4wMSIKICAgcGhvdG9zaG9wOkNvbG9yTW9kZT0iMyIKICAgcGhvdG9zaG9wOklDQ1Byb2ZpbGU9InNSR0IgSUVDNjE5NjYtMi4xIgogICB0aWZmOk9yaWVudGF0aW9uPSIxIgogICB4bXA6Q3JlYXRlRGF0ZT0iMjAyMi0wOC0yMlQwMzo0NToyNC0wNzowMCIKICAgeG1wOkNyZWF0b3JUb29sPSJHSU1QIDIuMTAiCiAgIHhtcDpNZXRhZGF0YURhdGU9IjIwMjI6MDk6MjZUMTM6MDM6MDItMDQ6MDAiCiAgIHhtcDpNb2RpZnlEYXRlPSIyMDIyOjA5OjI2VDEzOjAzOjAyLTA0OjAwIj4KICAgPHhtcE1NOkhpc3Rvcnk+CiAgICA8cmRmOlNlcT4KICAgICA8cmRmOmxpCiAgICAgIHN0RXZ0OmFjdGlvbj0ic2F2ZWQiCiAgICAgIHN0RXZ0OmNoYW5nZWQ9Ii8iCiAgICAgIHN0RXZ0Omluc3RhbmNlSUQ9InhtcC5paWQ6RUFGOTIzNzQwNzIyRUQxMTgxNEVDOTQ0QzRFMDg0MzMiCiAgICAgIHN0RXZ0OnNvZnR3YXJlQWdlbnQ9IkFkb2JlIElsbHVzdHJhdG9yIENTNiAoV2luZG93cykiCiAgICAgIHN0RXZ0OndoZW49IjIwMjItMDgtMjJUMDM6NDQ6NTItMDc6MDAiLz4KICAgICA8cmRmOmxpCiAgICAgIHN0RXZ0OmFjdGlvbj0ic2F2ZWQiCiAgICAgIHN0RXZ0OmNoYW5nZWQ9Ii8iCiAgICAgIHN0RXZ0Omluc3RhbmNlSUQ9InhtcC5paWQ6RURGOTIzNzQwNzIyRUQxMTgxNEVDOTQ0QzRFMDg0MzMiCiAgICAgIHN0RXZ0OnNvZnR3YXJlQWdlbnQ9IkFkb2JlIElsbHVzdHJhdG9yIENTNiAoV2luZG93cykiCiAgICAgIHN0RXZ0OndoZW49IjIwMjItMDgtMjJUMDM6NDU6MjQtMDc6MDAiLz4KICAgICA8cmRmOmxpCiAgICAgIHN0RXZ0OmFjdGlvbj0iY29udmVydGVkIgogICAgICBzdEV2dDpwYXJhbWV0ZXJzPSJmcm9tIGFwcGxpY2F0aW9uL3gtcGhvdG9zaG9wIHRvIGFwcGxpY2F0aW9uL3ZuZC5hZG9iZS5waG90b3Nob3AiLz4KICAgICA8cmRmOmxpCiAgICAgIHN0RXZ0OmFjdGlvbj0ic2F2ZWQiCiAgICAgIHN0RXZ0OmNoYW5nZWQ9Ii8iCiAgICAgIHN0RXZ0Omluc3RhbmNlSUQ9InhtcC5paWQ6RUVGOTIzNzQwNzIyRUQxMTgxNEVDOTQ0QzRFMDg0MzMiCiAgICAgIHN0RXZ0OnNvZnR3YXJlQWdlbnQ9IkFkb2JlIElsbHVzdHJhdG9yIENTNiAoV2luZG93cykiCiAgICAgIHN0RXZ0OndoZW49IjIwMjItMDgtMjJUMDM6NDU6MjYtMDc6MDAiLz4KICAgICA8cmRmOmxpCiAgICAgIHN0RXZ0OmFjdGlvbj0iY29udmVydGVkIgogICAgICBzdEV2dDpwYXJhbWV0ZXJzPSJmcm9tIGFwcGxpY2F0aW9uL3gtcGhvdG9zaG9wIHRvIGFwcGxpY2F0aW9uL3ZuZC5hZG9iZS5waG90b3Nob3AiLz4KICAgICA8cmRmOmxpCiAgICAgIHN0RXZ0OmFjdGlvbj0ic2F2ZWQiCiAgICAgIHN0RXZ0OmNoYW5nZWQ9Ii8iCiAgICAgIHN0RXZ0Omluc3RhbmNlSUQ9InhtcC5paWQ6RUZGOTIzNzQwNzIyRUQxMTgxNEVDOTQ0QzRFMDg0MzMiCiAgICAgIHN0RXZ0OnNvZnR3YXJlQWdlbnQ9IkFkb2JlIElsbHVzdHJhdG9yIENTNiAoV2luZG93cykiCiAgICAgIHN0RXZ0OndoZW49IjIwMjItMDgtMjJUMDM6NDU6MjYtMDc6MDAiLz4KICAgICA8cmRmOmxpCiAgICAgIHN0RXZ0OmFjdGlvbj0ic2F2ZWQiCiAgICAgIHN0RXZ0OmNoYW5nZWQ9Ii8iCiAgICAgIHN0RXZ0Omluc3RhbmNlSUQ9InhtcC5paWQ6NzIwYTQwYTItYTcyOC00MmQ4LWE1ZDMtYTM0MTY1YjdlMjhhIgogICAgICBzdEV2dDpzb2Z0d2FyZUFnZW50PSJHaW1wIDIuMTAgKFdpbmRvd3MpIgogICAgICBzdEV2dDp3aGVuPSIyMDIyLTA5LTI2VDEzOjAzOjA0Ii8+CiAgICA8L3JkZjpTZXE+CiAgIDwveG1wTU06SGlzdG9yeT4KICAgPHhtcE1NOkRlcml2ZWRGcm9tCiAgICBzdFJlZjpkb2N1bWVudElEPSJ4bXAuZGlkOkVERjkyMzc0MDcyMkVEMTE4MTRFQzk0NEM0RTA4NDMzIgogICAgc3RSZWY6aW5zdGFuY2VJRD0ieG1wLmlpZDpFREY5MjM3NDA3MjJFRDExODE0RUM5NDRDNEUwODQzMyIKICAgIHN0UmVmOm9yaWdpbmFsRG9jdW1lbnRJRD0idXVpZDo5RTNFNUM5QThDODFEQjExODczNERCNThGRERFNEJBNyIKICAgIHN0UmVmOnJlbmRpdGlvbkNsYXNzPSJwcm9vZjpwZGYiLz4KICAgPGRjOnRpdGxlPgogICAgPHJkZjpBbHQ+CiAgICAgPHJkZjpsaSB4bWw6bGFuZz0ieC1kZWZhdWx0Ij5CYXNpYyBSR0I8L3JkZjpsaT4KICAgIDwvcmRmOkFsdD4KICAgPC9kYzp0aXRsZT4KICA8L3JkZjpEZXNjcmlwdGlvbj4KIDwvcmRmOlJERj4KPC94OnhtcG1ldGE+CiAgICAgICAgICAgICAgICAgICAgICAgICAgICAgICAgICAgICAgICAgICAgICAgICAgICAgICAgICAgICAgICAgICAgICAgICAgICAgICAgICAgICAgICAgICAgICAgICAgICAKICAgICAgICAgICAgICAgICAgICAgICAgICAgICAgICAgICAgICAgICAgICAgICAgICAgICAgICAgICAgICAgICAgICAgICAgICAgICAgICAgICAgICAgICAgICAgICAgICAgIAogICAgICAgICAgICAgICAgICAgICAgICAgICAgICAgICAgICAgICAgICAgICAgICAgICAgICAgICAgICAgICAgICAgICAgICAgICAgICAgICAgICAgICAgICAgICAgICAgICAgCiAgICAgICAgICAgICAgICAgICAgICAgICAgICAgICAgICAgICAgICAgICAgICAgICAgICAgICAgICAgICAgICAgICAgICAgICAgICAgICAgICAgICAgICAgICAgICAgICAgICAKICAgICAgICAgICAgICAgICAgICAgICAgICAgICAgICAgICAgICAgICAgICAgICAgICAgICAgICAgICAgICAgICAgICAgICAgICAgICAgICAgICAgICAgICAgICAgICAgICAgIAogICAgICAgICAgICAgICAgICAgICAgICAgICAgICAgICAgICAgICAgICAgICAgICAgICAgICAgICAgICAgICAgICAgICAgICAgICAgICAgICAgICAgICAgICAgICAgICAgICAgCiAgICAgICAgICAgICAgICAgICAgICAgICAgICAgICAgICAgICAgICAgICAgICAgICAgICAgICAgICAgICAgICAgICAgICAgICAgICAgICAgICAgICAgICAgICAgICAgICAgICAKICAgICAgICAgICAgICAgICAgICAgICAgICAgICAgICAgICAgICAgICAgICAgICAgICAgICAgICAgICAgICAgICAgICAgICAgICAgICAgICAgICAgICAgICAgICAgICAgICAgIAogICAgICAgICAgICAgICAgICAgICAgICAgICAgICAgICAgICAgICAgICAgICAgICAgICAgICAgICAgICAgICAgICAgICAgICAgICAgICAgICAgICAgICAgICAgICAgICAgICAgCiAgICAgICAgICAgICAgICAgICAgICAgICAgICAgICAgICAgICAgICAgICAgICAgICAgICAgICAgICAgICAgICAgICAgICAgICAgICAgICAgICAgICAgICAgICAgICAgICAgICAKICAgICAgICAgICAgICAgICAgICAgICAgICAgICAgICAgICAgICAgICAgICAgICAgICAgICAgICAgICAgICAgICAgICAgICAgICAgICAgICAgICAgICAgICAgICAgICAgICAgIAogICAgICAgICAgICAgICAgICAgICAgICAgICAgICAgICAgICAgICAgICAgICAgICAgICAgICAgICAgICAgICAgICAgICAgICAgICAgICAgICAgICAgICAgICAgICAgICAgICAgCiAgICAgICAgICAgICAgICAgICAgICAgICAgICAgICAgICAgICAgICAgICAgICAgICAgICAgICAgICAgICAgICAgICAgICAgICAgICAgICAgICAgICAgICAgICAgICAgICAgICAKICAgICAgICAgICAgICAgICAgICAgICAgICAgICAgICAgICAgICAgICAgICAgICAgICAgICAgICAgICAgICAgICAgICAgICAgICAgICAgICAgICAgICAgICAgICAgICAgICAgIAogICAgICAgICAgICAgICAgICAgICAgICAgICAgICAgICAgICAgICAgICAgICAgICAgICAgICAgICAgICAgICAgICAgICAgICAgICAgICAgICAgICAgICAgICAgICAgICAgICAgCiAgICAgICAgICAgICAgICAgICAgICAgICAgICAgICAgICAgICAgICAgICAgICAgICAgICAgICAgICAgICAgICAgICAgICAgICAgICAgICAgICAgICAgICAgICAgICAgICAgICAKICAgICAgICAgICAgICAgICAgICAgICAgICAgICAgICAgICAgICAgICAgICAgICAgICAgICAgICAgICAgICAgICAgICAgICAgICAgICAgICAgICAgICAgICAgICAgICAgICAgIAogICAgICAgICAgICAgICAgICAgICAgICAgICAgICAgICAgICAgICAgICAgICAgICAgICAgICAgICAgICAgICAgICAgICAgICAgICAgICAgICAgICAgICAgICAgICAgICAgICAgCiAgICAgICAgICAgICAgICAgICAgICAgICAgICAgICAgICAgICAgICAgICAgICAgICAgICAgICAgICAgICAgICAgICAgICAgICAgICAgICAgICAgICAgICAgICAgICAgICAgICAKICAgICAgICAgICAgICAgICAgICAgICAgICAgICAgICAgICAgICAgICAgICAgICAgICAgICAgICAgICAgICAgICAgICAgICAgICAgICAgICAgICAgICAgICAgICAgICAgICAgIAogICAgICAgICAgICAgICAgICAgICAgICAgICAKPD94cGFja2V0IGVuZD0idyI/Pg843R8AAAAGYktHRABNAE0ATSkPBDkAAAAJcEhZcwAAFxIAABcSAWef0lIAAAAHdElNRQfmCRoRAwQP2dkoAAAUDUlEQVR42u3dy3EjS3qA0SaDRsgPhcyAD71oD7STD+NBL9qBWUxgJc+04yxGvNOXlyBRqHz8j3MitJF0SaAyC/lVsrrw9A2AL10ul9cdv/d6vT45+gBz+IAFCBC84hhACAOIXnEMIIQBRK8oBhDCAMJXFAMIYQDxK4oBhDAgfBHEAEIYEL8IYgAhDIjfoEEZ6T0JYkAIAwjgMKG4+r2LYUAIAzSP36hBuOq4CGJACAM0CeCs4TfzeIlhQAgDFAzgipE36xgKYkAIAyQP4C5BN+OYimFACAMkC+DuATfyOIthQAgDBA9gwTbvuDu2gBAGCBbBAk0QAwhhQACzZEwce0AIAyyOYAEWY2yMAyCEAQRw27EyJoAQBpgYwWJLDAMIYUAAE3IMjRUghAEBJYDFMIAQBoSTkOo2rsYQEMKAUBJQYhhACAMCSTSJYQAhDIhgsdRozO8d4/c/39wAhDBQMoJFjosgcwgQwoAIRgybU4AQBkQwYtj8AoQwIIIRw+YbIISBvLEjSMwPMQwIYUAEY54IYkAIAyIY80UMA0IYEMEUnzdn54RnVwNCGBDBcHKemqOAEAZEMG3nrbkK/O7ZIQAgo+v1+nQ0bKPf0wys5coYmrMbTMe5bN4CQhiEgwim7bw2fwEfAiAYRHDjca46jmIYEMKACDa+rcf1nuNgPoMQBkSSEDa2Jcf3q2NiPoMQBsSSCG4ewGIYEMKAYBILrSO46piLYeA9zxEGEMHbfv5KQhd4z4cCiCYRIYJbjX/Hp2gAH7MjDCCCWxG7wBsfBiCchIMIbjkPbh1H8x36sCMMQEuCF3hxCACxkMeju8Hvx/GRn3O5XF7NB6ASO8Ignmh4MXO9Xp9E7cfHxvkCQhiAApH3VeyKYUAIA9A6mL1/QAgDIO4+4bYBQAgDgAsHQAgDIAQBhDAAuBgAhDAAOdx7769YBIQwABQk9EEIA5CcpzsACGEAMSyaD7ErDH28OAQAtcL2o//GVwkD/JWrXhBQX7JDln8MRzAPgGrsCAMI4LLHSbwDn/EBAYLqS2JCAO+aAyuOg/kNQhgQVmJBAG8d/0jv3XyHHtwaASCAt0Vh1Pf9++sSxVCXkxvEVoggMiY9Ijj7Pc/OAajFjjCAABbBB9+DIIYanMggwLbGkePfI4JHRGTEY+d8ACEMNAsxi78AdqydEyCEATHM1iD7bByO/P7q47kqjp0XIISBJlFg0Y8ZwPe8ts5j59nEgBAGsSaGk8WV451r7IwVCGEgip+//rTY/8f//ed//9f//s/fLPixw1dUCWJACAMnw/fDhf8ff7fgB45fEVVnrI0jCGEgQPz+4cf3p1lxV2XR3/mkB+FUbw4YUxDCwM74fRfBs4Mv48IvfhHDIISBBgG8MgKjBkCE5/uKo15BbLxBCAMrA/iOCF4dhjtiINqXWgiivkFs7EEIA4ECOEIwjoqDyN/iJoDEsLkAQhiYHcEPBHCmoMxE8IhhcwOEMJAkgAWxAEYMgxAG2kewIBY1iGEQwkDbABbEAoa554V5BEIYSBDBgli0MOd8MK9ACIMIThLBnaJYoCCGQQgDIrh8GIcJkXvmRPA5IIaFMAhhoF0EZwnjUNHx6HOiRbEYBoQwiOC+4ZA6KM4GsCAWw8DDXhwCEMERtFv4Rwfw+58riAG+9OwQQKEIwvibYyUu7jyiENawYwBZIsgOnwDuNG+OHKui/3DU7REghEEIiWAR3CWGRx2jYO/XvcIghIEzi7wQFsGVY3jm8Qnyvu0KQ0zuEYboRDCVLxBmXySs+B0BAxoQwhBrwcfYex374nTz+7ezC0IYhNBRdoNFcKXXs3t3NvnuMDCe5wgDRPTZRVDGmIu2I73hIvN6vT49cqvD5XJ5taMMc9gRhi6LPzUi+O3//mjI7ZiTEc8D5yYghAEChdbRwM1w60zk4BTDIIQdArDIkljXx6IlfY2P3uLg6REghAEE7Yj/1lc8u2gFhDBYWMH8B/ry1AiA3Ubc3vDj+1PJAF319IyFT5Lw9AgQwlCX3TDM/zUXBr///434vZseqwbs49YIAOJ4NETPPFIOEMIAcMrZb1EcdYvIrvcACGEgSFhAFqN3cu0MA0IYhCu0nfvBY9g/egMhDCAKd/zOSJE487Vk+hrqO/liDRDCIKowxhWsCHK3SQBCGIQSwcfqzBjvnh/mJyCEAUSwCA3IrjAghEFkMWlc3v5n1M+aOSeiRGH0OHW+QQu+WQ6yRZfdrfqh9Pazb421SAMQwiCGKRO/K35f53nz4/uTCwjgPbdGQJRFOnKQdY/fUbc+ABCKHWHIHGiPRDQ9LzS6PDs4Cc8DhhjsCEP2OLBTOS5+q+78Ck+AD9kRhmjB8kiI2R12AQGAEIa2MSyIxe+t+QSAEIYWMSyIe4evCDYXACEM7WP4/eJfPYqih8774z/z9Wb4sorGkX7mH8pdr1cXNyCEQQy3juJMu3u3jvXb/96zgnONGyCEgQlh91kwjY6lTFGc8U/aR47pqCDeOY7Rv6zCbRGAEIbEZu0efvQzdwRVlVA5c+weGePMu5a+IREIwIcQRIm6e6NgdzQeiZcOO3Fi7tw4zz5+s8/Hg85+kYZ7hGEsO8KQNbx2RaY/MwtgF6VbiGAYzzfLQdZFW4jtid+3/2HMhdGsC6uAF2y+VhnisSMMM2Jp1SK8e3e4y3gyNzRH3y/sfACEMDSMNQEgfjMF8Ec/9+yxz/z0DWA5JzxEi4URC7EgFkCZInjEWIx6bf6RHLRiRxhmLeQ7Y/T3xVwUC99sF1ZHnnM98rWZE9COkx4ixsOMBbl7EIscc2bT/LAbDHHZEYaZC2ukkHi/0FePHOErgAGEMCQNkdkhVymMRa8ADjp/PDINYrN4QOS42B140cJI8ArgZhHstgiYy44wcC4SRkSUwBW/LqyADXwIQPTosFgjgNNFsN1gyMFXLINwocs8MpdcXAJ/4sMAsgStxRsXUikC2G4w5GFHGIotwvBHAEeM4F3nQaIIBtaxMMPqOBHTRJ1fOyJ09mteeM6MimC7wSCEQayIYSoH8Oz3sOE8cUsECGFADNM9gEfM0aPvbfM5YTcYhDCwOmIEsblTLYATEsGQl38sB4IIYz4mgEUwkIyrT6gQNXaGzY+dAdzUyAi2GwxCGMSOKCHLLn/zuSaCQQgDYphO8Wt+iWAQwkCKGBIs4tdcEsGAEAYxjPA1fyJFsBAGIQysCiZBI37NFxEMCGFoHVACR/iaH1sDWASDEAYEsfERvyIYEMLA5tgSQr3C17iLYEAIgwATRm2i1zhvDWARDEIYyBRn3WKp+ldVi18BDAhhEG0iqnz0CmARDAhhEMTN46pT8IrfUAEsgkEIA51ib1d8dY1d8SuAASEMJArCI7EmcMVvovgVwSCEAUGM+G0XvwIYhDAgiBG/reJXAIMQBgQx4rdV/ApgEMKAIEb8toheAQxCGBDECN/SkSuAQQgDghjxmzpaxS8ghAFRLHpFsfgFhDAgioWvMBa+gBAGRLHobRjHohcQwoAwFr3lQlnkAkIYEMeCFwAhDAhkoQuAEAaqhbOoBQAAAAAAAAAAAAAAAAAAAAAAAAAAAAAAAAAAAAAAAAAAAAAAAAAAAAAAAAAAAAAAAAAAAAAAAAAAAAAAAAAAAAAAAAAAAAAAAAAAAAAAAAAAAAAAAAAAAAAAAAAAAAAAAAAAADZ4GvJTfv56HfJzfnx/MiTQwIjPDJ8X5Vwul1Pz4nq9mhPAohAeFb8rF7nZr3n1+179flaEx9n3VOU1ZjgOUc6/R95rhs+CJrF/Nn6jR3HEuI/wmmaN+645tPr9zJzfI97LivNv1Ot8CbuAvP0euz5xQ8bYEOHzwmeFAP7k59slpsP5Y54/7jlkBL//nVl2bzpGjvE5plOsrZ4X5qEIvvG7Muw+woh5HmWur7rQPePt4uG+EBY7iBBcvJI4SsUwLjSPBWIXX4ewBQ0BhAsiCoSoGMZFJ8dC2KLG6hg6e+uAOSuCEcFiGMz30yFsUUMUOS8cFwouxOIA5+DnIj8ZZPRTLZ4taogjjDPdglMM41zkdgiDSBqv4hMjjC+JF15xgHOSZwsbIIIRB8Dvqj494v37erawES6YfDGCCEZcAunPzdG/b8brd2sEwgkQB2C+t/QsVBDdYt5xwCILvFft9oiP3o8dYVihyu0eIhgBDxTyEiYAMiyw1e5d/ez9zBiPn79e3f9Lic8L83hZTH62IyVe++qwUzlznl8ul9dVx3DU75p1vj9PW1R+fH86tFgc/f9n/kK/czzMhXhmxuejnxfmSenQ+WrxHL2QC2uyngsuOh5/H3NujTizOFnc4gUxRJ5jojiEkRF5ZOGt+ognMNfXGBvCIxcji1rNGHaPaU4R/mqExV4g4PwYNtf9BeQthCOHiZ0eooTbmZ9n/jomxUVYUEcFgjiA8efX2fPq7H//2esftyNsYRMuYC4RIGbBecK9xoSwhQ3BVJfbWUiyuAsEYE8II0zBHKIIt0fQ4cJx9e989LyaeVvEmBC2sHGUHUYRjGgsFAjg/M3LjjDMDPfs8eeiBfEKCGGAE+wGA7hoDfh6hTB1g8ZuJlisH+RPxojS8Y6eVyvOQyGM8GbuhYQxLGvEIuW2CBDgO50LYQscAABJg/1cCPvTM7hQdAwASMqtEeBiDwDudub2iHtvqVp1n74QBsBCvXEhBvad/0KY+M78ed2OruMGAEIYSHMBQ3ieGAG9VTl/hTCIQAAIcyF95kL7aKCfD2F/QgUAICE7wuAiDwAOq3B7xJgQFgwc8chtA241AAAGh/mzwACGX9j6XAEoGY6j3LoPePVjC8fdGmFXWCR5zSIQLPLgPEtk7D3CYhiAQnypBuZm7SD/VwiP3MESwwAAJIj5OU+NEMPMsPKWA3MYAO6S+faIeY9PExL1+EdUgIUTtvPNjuPey7NAgYGcR1iEAdJ8tsz9Qg27wnUYSwBwIXrDo7uyu9/Pn0N4xm6WgELI92JXHIDgAf5xCIsQZo7fiEASWQA0NWr31D36n4XwrNAQw70j2HsGgO0RPFPGwP54R1gM8/PX69Dx6rCTW+E9OkcBwgXwyAiOGKuPvr8R7+Vly0KbNRhmRUKk4yGEYO954vYfmBZOmUIx69NZrtfr0yOvfdf7ffn0w3jWh33mGLaYW9gBIGH0ujf4r563BYydR1aHtTkHANwdwmKYXdEKAAyzcjd4xe8a9Tvue3yaGEYEe68AiOBinkO8CjEsDKMwFwEQwUJ4edgIEBEMAJSI4Jm/e+TPPrYjLHAwRwBABBdx/NYI9wsTIYIFNwCI4JMe+0INzxgma5CaXwCI32WvafQzkke/z8f/sZydYQSl4wCACE7s3FMjxDCVmHMAIITFMMYHAHJY9RXNjxi5Wz1j53vMc4T9aTin7ONm3gFQgFsb9nkZ9pPeomT0LmGkf9wkvACfBSAcKWP8N8vNWCD8CT6ujGMz8jULIgACqH57xKyLnzlfsSwO8jBWAFAiFokSwjPYFcb8AoCbIu8K9wthO40icgXzDAAIF8IzIsWunZgEgKLcHlEthEVWHx0vUirO7RHvyQUrwDZuj4gWwqODwSILABRlV7hiCI+OYYyPCyqwUAOkCWHEpYgH/p8/34Lzq18IjwoWu3mCskLAA2IAPuCvLlVDGFHpogEQJOBCsG0ICwgAAFqGMLG5UAGA7fw1onIIe1ZpbTvGRsCbA7R0uVxe/QkYbp8fjkLEEAaxBljkASFMOHZXex8f40/CCBbFVOT2iMohbLGtLctuq11hSBfAt6JXDIPzIk8IE5sLFSDhgm7Rpxq7wkKYrFbvtor33uNPusX5SLQKXFhzrglhAAi0gB9dxEct+nbiQAjTmR1WxwQ2R/CO/xaicVEmhMnKn8d7B7/xB0h/YSmEAWAxu2CAEGYvtwIAYhicC0IYHrTyz+PCvff4k25hvufPtQIAxnB7hBAGke39wpLIB/NSCN9ml6hXEBnv3ow/AiAEO4KYA1FCGAAOLMwdYzhatLggQQjTkz+TG/ez7AqXJIwcH8wpIbxjQRRm+awKIXPDHEAECA24ye0Rt0L456/X6QuVhZCMxLXPAMIszEIVmBPCFirEICvG3WcMJ2PYcXF8O1v16MK+Ify2UI1erCx+mAOYCxblwL/TbjMI4TlBPHLRszMJa80658Qw77hF4vxxmfHfQ98QPhvEK+47JlcQrZgPLpbyGPEZ4XNmu5FRWi3aRh2bR4/LqONpt7zevHKB9O3by6mIuRUbMxckgUPG+K9yHGae228/+8jxFr9lvS3Qny32oxfxDKF3z3EROTAzhDsvQnYy1wQRvWWYWx4FeDMkR8eXmHNcdr3/DBdGM865bnyhBmKHsmEGgIuqOiFsEQYILfN9pDODIPv9te4PRgiLYEaPx+xdYXPGcQVw8bn1IlAIg+hzXLAwJ2FXuNZ4Qo0QtuiC8xIKxDAghC22Qujf/KM5c4CS7CLWOC7Gsc84db0AjB3CFlkQw4i+DdwiIYIRwhZXRBqOM2IYnGtC2KLKtLGKenuEeeh4IYYnxXD0YyKqeup48fccbiGzmIIYRgw7Jttek7GibwjvXsgson3jxz+aqzUfnMsUiqzZ9wtHOSYC2MXV7PmeI4R3LGQWThDEWKwnhubZ3zk7DnZGqF1gOnv5ciH79m3ebp1FklVBZsd57/Gf+TnisyR1DK98OsP1en068/sul8vrzGD8/Wev2JUTv/Dt2/GT4OxiZsECRkSxz5JyRsTfV3F39nfsiMeRUSx+4WwIA0DT4BaSIIQBoF0Mi2Co59khAAARDB05sQFo6d5dYREMQhgAWsWwAIb63BoBACIYWnKiA9Da77vCAhgAgLYxDAAAAKX9E388F4cqVRQsAAAAAElFTkSuQmCC;" vertex="1" parent="1">
          <mxGeometry x="880" y="105.15" width="135.11" height="64.69" as="geometry" />
        </mxCell>
        <mxCell id="ypB30eQcN8WYW8XRluec-10" value="&lt;b&gt;&lt;i&gt;AutoMapper&lt;/i&gt;&lt;/b&gt;" style="rounded=1;whiteSpace=wrap;html=1;fillColor=#eeeeee;strokeColor=#36393d;" vertex="1" parent="1">
          <mxGeometry x="50" y="115.15" width="280" height="40" as="geometry" />
        </mxCell>
        <mxCell id="ypB30eQcN8WYW8XRluec-11" value="&lt;b&gt;&lt;i&gt;NewtonSoft.Json&lt;/i&gt;&lt;/b&gt;" style="rounded=1;whiteSpace=wrap;html=1;fillColor=#eeeeee;strokeColor=#36393d;" vertex="1" parent="1">
          <mxGeometry x="50" y="175.15" width="280" height="40" as="geometry" />
        </mxCell>
        <mxCell id="ypB30eQcN8WYW8XRluec-12" value="3rd Party MIT Licensed Components" style="text;html=1;align=center;verticalAlign=middle;whiteSpace=wrap;rounded=0;fontStyle=1;fontSize=19;" vertex="1" parent="1">
          <mxGeometry x="15" y="57.5" width="340" height="55" as="geometry" />
        </mxCell>
        <mxCell id="ypB30eQcN8WYW8XRluec-13" value="" style="endArrow=classic;html=1;rounded=0;exitX=0;exitY=0.25;exitDx=0;exitDy=0;entryX=1;entryY=0.5;entryDx=0;entryDy=0;" edge="1" parent="1" source="XAPaqctXA7EIB3umuzVX-1" target="ypB30eQcN8WYW8XRluec-10">
          <mxGeometry width="50" height="50" relative="1" as="geometry">
            <mxPoint x="310" y="440" as="sourcePoint" />
            <mxPoint x="360" y="390" as="targetPoint" />
          </mxGeometry>
        </mxCell>
        <mxCell id="ypB30eQcN8WYW8XRluec-14" value="" style="endArrow=classic;html=1;rounded=0;entryX=1;entryY=0.25;entryDx=0;entryDy=0;exitX=0;exitY=0.5;exitDx=0;exitDy=0;" edge="1" parent="1" source="XAPaqctXA7EIB3umuzVX-1" target="ypB30eQcN8WYW8XRluec-11">
          <mxGeometry width="50" height="50" relative="1" as="geometry">
            <mxPoint x="410" y="220" as="sourcePoint" />
            <mxPoint x="340" y="250" as="targetPoint" />
          </mxGeometry>
        </mxCell>
        <mxCell id="ypB30eQcN8WYW8XRluec-15" value="" style="endArrow=classic;html=1;rounded=0;exitX=1;exitY=0.5;exitDx=0;exitDy=0;entryX=0;entryY=0.5;entryDx=0;entryDy=0;" edge="1" parent="1" source="XAPaqctXA7EIB3umuzVX-1" target="ypB30eQcN8WYW8XRluec-7">
          <mxGeometry width="50" height="50" relative="1" as="geometry">
            <mxPoint x="430" y="230" as="sourcePoint" />
            <mxPoint x="350" y="260" as="targetPoint" />
          </mxGeometry>
        </mxCell>
        <mxCell id="ypB30eQcN8WYW8XRluec-18" value="Database Storage Providers" style="text;html=1;align=center;verticalAlign=middle;whiteSpace=wrap;rounded=0;fontStyle=1;fontSize=16;" vertex="1" parent="1">
          <mxGeometry x="860" y="320" width="250" height="30" as="geometry" />
        </mxCell>
        <mxCell id="ypB30eQcN8WYW8XRluec-19" value="" style="endArrow=classic;html=1;rounded=0;exitX=0;exitY=0;exitDx=0;exitDy=0;entryX=1;entryY=1;entryDx=0;entryDy=0;" edge="1" parent="1" source="ypB30eQcN8WYW8XRluec-6" target="XAPaqctXA7EIB3umuzVX-1">
          <mxGeometry width="50" height="50" relative="1" as="geometry">
            <mxPoint x="750" y="380" as="sourcePoint" />
            <mxPoint x="800" y="330" as="targetPoint" />
          </mxGeometry>
        </mxCell>
        <mxCell id="ypB30eQcN8WYW8XRluec-20" value="" style="rounded=1;whiteSpace=wrap;html=1;fillColor=#dae8fc;strokeColor=#6c8ebf;" vertex="1" parent="1">
          <mxGeometry x="40" y="290" width="320" height="110" as="geometry" />
        </mxCell>
        <mxCell id="ypB30eQcN8WYW8XRluec-23" value="&lt;b&gt;&lt;i&gt;ServiceBricks.ServiceBus.Azure&lt;/i&gt;&lt;/b&gt;" style="rounded=1;whiteSpace=wrap;html=1;fillColor=#b0e3e6;strokeColor=#0e8088;" vertex="1" parent="1">
          <mxGeometry x="60" y="340" width="280" height="40" as="geometry" />
        </mxCell>
        <mxCell id="ypB30eQcN8WYW8XRluec-24" value="Service Bus Providers" style="text;html=1;align=center;verticalAlign=middle;whiteSpace=wrap;rounded=0;fontStyle=1;fontSize=16;" vertex="1" parent="1">
          <mxGeometry x="80" y="300" width="250" height="30" as="geometry" />
        </mxCell>
        <mxCell id="ypB30eQcN8WYW8XRluec-25" value="" style="endArrow=classic;html=1;rounded=0;exitX=1;exitY=0;exitDx=0;exitDy=0;entryX=0;entryY=1;entryDx=0;entryDy=0;" edge="1" parent="1" source="ypB30eQcN8WYW8XRluec-23" target="XAPaqctXA7EIB3umuzVX-1">
          <mxGeometry width="50" height="50" relative="1" as="geometry">
            <mxPoint x="600" y="480" as="sourcePoint" />
            <mxPoint x="650" y="430" as="targetPoint" />
          </mxGeometry>
        </mxCell>
        <mxCell id="ypB30eQcN8WYW8XRluec-27" value="&lt;b&gt;&lt;i&gt;ServiceBricks.Example&lt;/i&gt;&lt;/b&gt;" style="rounded=1;whiteSpace=wrap;html=1;fillColor=#b0e3e6;strokeColor=#0e8088;" vertex="1" parent="1">
          <mxGeometry x="440" y="370" width="280" height="40" as="geometry" />
        </mxCell>
        <mxCell id="ypB30eQcN8WYW8XRluec-28" value="Example Microservice" style="text;html=1;align=center;verticalAlign=middle;whiteSpace=wrap;rounded=0;fontStyle=1;fontSize=16;" vertex="1" parent="1">
          <mxGeometry x="450" y="330" width="250" height="30" as="geometry" />
        </mxCell>
        <mxCell id="ypB30eQcN8WYW8XRluec-29" value="&lt;b&gt;&lt;i&gt;ServiceBricks.Example.AzureDataTables&lt;/i&gt;&lt;/b&gt;" style="rounded=1;whiteSpace=wrap;html=1;fillColor=#b0e3e6;strokeColor=#0e8088;" vertex="1" parent="1">
          <mxGeometry x="440" y="420" width="280" height="40" as="geometry" />
        </mxCell>
        <mxCell id="ypB30eQcN8WYW8XRluec-30" value="&lt;b&gt;&lt;i&gt;ServiceBricks.Example.Cosmos&lt;/i&gt;&lt;/b&gt;" style="rounded=1;whiteSpace=wrap;html=1;fillColor=#b0e3e6;strokeColor=#0e8088;" vertex="1" parent="1">
          <mxGeometry x="440" y="570" width="280" height="40" as="geometry" />
        </mxCell>
        <mxCell id="ypB30eQcN8WYW8XRluec-31" value="&lt;b&gt;&lt;i&gt;ServiceBricks.Example.EntityFrameworkCore&lt;/i&gt;&lt;/b&gt;" style="rounded=1;whiteSpace=wrap;html=1;fillColor=#b0e3e6;strokeColor=#0e8088;" vertex="1" parent="1">
          <mxGeometry x="440" y="520" width="280" height="40" as="geometry" />
        </mxCell>
        <mxCell id="ypB30eQcN8WYW8XRluec-32" value="&lt;b&gt;&lt;i&gt;ServiceBricks.Example.InMemory&lt;/i&gt;&lt;/b&gt;" style="rounded=1;whiteSpace=wrap;html=1;fillColor=#b0e3e6;strokeColor=#0e8088;" vertex="1" parent="1">
          <mxGeometry x="440" y="620" width="280" height="40" as="geometry" />
        </mxCell>
        <mxCell id="ypB30eQcN8WYW8XRluec-33" value="&lt;b&gt;&lt;i&gt;ServiceBricks.Example.MongoDb&lt;/i&gt;&lt;/b&gt;" style="rounded=1;whiteSpace=wrap;html=1;fillColor=#b0e3e6;strokeColor=#0e8088;" vertex="1" parent="1">
          <mxGeometry x="440" y="470" width="280" height="40" as="geometry" />
        </mxCell>
        <mxCell id="ypB30eQcN8WYW8XRluec-34" value="&lt;b&gt;&lt;i&gt;ServiceBricks.Example.Postgres&lt;/i&gt;&lt;/b&gt;" style="rounded=1;whiteSpace=wrap;html=1;fillColor=#b0e3e6;strokeColor=#0e8088;" vertex="1" parent="1">
          <mxGeometry x="440" y="670" width="280" height="40" as="geometry" />
        </mxCell>
        <mxCell id="ypB30eQcN8WYW8XRluec-35" value="&lt;b&gt;&lt;i&gt;ServiceBricks.Example.Sqlite&lt;/i&gt;&lt;/b&gt;" style="rounded=1;whiteSpace=wrap;html=1;fillColor=#b0e3e6;strokeColor=#0e8088;" vertex="1" parent="1">
          <mxGeometry x="440" y="720" width="280" height="40" as="geometry" />
        </mxCell>
        <mxCell id="ypB30eQcN8WYW8XRluec-36" value="&lt;b&gt;&lt;i&gt;ServiceBricks.Example.SqlServer&lt;/i&gt;&lt;/b&gt;" style="rounded=1;whiteSpace=wrap;html=1;fillColor=#b0e3e6;strokeColor=#0e8088;" vertex="1" parent="1">
          <mxGeometry x="440" y="770" width="280" height="40" as="geometry" />
        </mxCell>
        <mxCell id="ypB30eQcN8WYW8XRluec-37" value="" style="endArrow=classic;html=1;rounded=0;exitX=0.883;exitY=0.04;exitDx=0;exitDy=0;exitPerimeter=0;" edge="1" parent="1" source="ypB30eQcN8WYW8XRluec-27">
          <mxGeometry width="50" height="50" relative="1" as="geometry">
            <mxPoint x="810" y="520" as="sourcePoint" />
            <mxPoint x="687" y="230" as="targetPoint" />
          </mxGeometry>
        </mxCell>
        <mxCell id="ypB30eQcN8WYW8XRluec-38" value="" style="endArrow=classic;html=1;rounded=0;exitX=1;exitY=0.25;exitDx=0;exitDy=0;entryX=0;entryY=0.5;entryDx=0;entryDy=0;" edge="1" parent="1" source="ypB30eQcN8WYW8XRluec-29" target="ypB30eQcN8WYW8XRluec-6">
          <mxGeometry width="50" height="50" relative="1" as="geometry">
            <mxPoint x="270" y="590" as="sourcePoint" />
            <mxPoint x="320" y="540" as="targetPoint" />
          </mxGeometry>
        </mxCell>
        <mxCell id="ypB30eQcN8WYW8XRluec-39" value="" style="endArrow=classic;html=1;rounded=0;exitX=1;exitY=0.5;exitDx=0;exitDy=0;entryX=0;entryY=0.5;entryDx=0;entryDy=0;" edge="1" parent="1" source="ypB30eQcN8WYW8XRluec-33" target="ypB30eQcN8WYW8XRluec-5">
          <mxGeometry width="50" height="50" relative="1" as="geometry">
            <mxPoint x="240" y="670" as="sourcePoint" />
            <mxPoint x="290" y="620" as="targetPoint" />
          </mxGeometry>
        </mxCell>
        <mxCell id="ypB30eQcN8WYW8XRluec-40" value="" style="endArrow=classic;html=1;rounded=0;entryX=0;entryY=0.5;entryDx=0;entryDy=0;" edge="1" parent="1" target="ypB30eQcN8WYW8XRluec-4">
          <mxGeometry width="50" height="50" relative="1" as="geometry">
            <mxPoint x="720" y="530" as="sourcePoint" />
            <mxPoint x="300" y="550" as="targetPoint" />
          </mxGeometry>
        </mxCell>
        <mxCell id="ypB30eQcN8WYW8XRluec-42" value="" style="endArrow=classic;html=1;rounded=0;exitX=1;exitY=0.5;exitDx=0;exitDy=0;entryX=1;entryY=0.5;entryDx=0;entryDy=0;" edge="1" parent="1" source="ypB30eQcN8WYW8XRluec-36" target="ypB30eQcN8WYW8XRluec-31">
          <mxGeometry width="50" height="50" relative="1" as="geometry">
            <mxPoint x="860" y="740" as="sourcePoint" />
            <mxPoint x="910" y="690" as="targetPoint" />
            <Array as="points">
              <mxPoint x="800" y="790" />
              <mxPoint x="800" y="540" />
            </Array>
          </mxGeometry>
        </mxCell>
        <mxCell id="ypB30eQcN8WYW8XRluec-43" value="" style="endArrow=classic;html=1;rounded=0;exitX=1;exitY=0.5;exitDx=0;exitDy=0;entryX=1;entryY=0.5;entryDx=0;entryDy=0;" edge="1" parent="1" source="ypB30eQcN8WYW8XRluec-35" target="ypB30eQcN8WYW8XRluec-31">
          <mxGeometry width="50" height="50" relative="1" as="geometry">
            <mxPoint x="730" y="800" as="sourcePoint" />
            <mxPoint x="730" y="550" as="targetPoint" />
            <Array as="points">
              <mxPoint x="790" y="740" />
              <mxPoint x="790" y="540" />
            </Array>
          </mxGeometry>
        </mxCell>
        <mxCell id="ypB30eQcN8WYW8XRluec-44" value="" style="endArrow=classic;html=1;rounded=0;exitX=1;exitY=0.5;exitDx=0;exitDy=0;entryX=1;entryY=0.5;entryDx=0;entryDy=0;" edge="1" parent="1" source="ypB30eQcN8WYW8XRluec-34" target="ypB30eQcN8WYW8XRluec-31">
          <mxGeometry width="50" height="50" relative="1" as="geometry">
            <mxPoint x="740" y="810" as="sourcePoint" />
            <mxPoint x="740" y="560" as="targetPoint" />
            <Array as="points">
              <mxPoint x="780" y="690" />
              <mxPoint x="780" y="540" />
            </Array>
          </mxGeometry>
        </mxCell>
        <mxCell id="ypB30eQcN8WYW8XRluec-45" value="" style="endArrow=classic;html=1;rounded=0;exitX=1;exitY=0.5;exitDx=0;exitDy=0;entryX=1;entryY=0.5;entryDx=0;entryDy=0;" edge="1" parent="1" source="ypB30eQcN8WYW8XRluec-32" target="ypB30eQcN8WYW8XRluec-31">
          <mxGeometry width="50" height="50" relative="1" as="geometry">
            <mxPoint x="750" y="820" as="sourcePoint" />
            <mxPoint x="750" y="570" as="targetPoint" />
            <Array as="points">
              <mxPoint x="770" y="640" />
              <mxPoint x="770" y="540" />
            </Array>
          </mxGeometry>
        </mxCell>
        <mxCell id="ypB30eQcN8WYW8XRluec-46" value="" style="endArrow=classic;html=1;rounded=0;exitX=1;exitY=0.5;exitDx=0;exitDy=0;entryX=1;entryY=0.5;entryDx=0;entryDy=0;" edge="1" parent="1" source="ypB30eQcN8WYW8XRluec-30" target="ypB30eQcN8WYW8XRluec-31">
          <mxGeometry width="50" height="50" relative="1" as="geometry">
            <mxPoint x="760" y="830" as="sourcePoint" />
            <mxPoint x="760" y="580" as="targetPoint" />
            <Array as="points">
              <mxPoint x="760" y="590" />
              <mxPoint x="760" y="540" />
            </Array>
          </mxGeometry>
        </mxCell>
        <mxCell id="ypB30eQcN8WYW8XRluec-48" value="" style="endArrow=classic;html=1;rounded=0;exitX=0;exitY=0.5;exitDx=0;exitDy=0;entryX=0;entryY=0.5;entryDx=0;entryDy=0;" edge="1" parent="1" source="ypB30eQcN8WYW8XRluec-33" target="ypB30eQcN8WYW8XRluec-27">
          <mxGeometry width="50" height="50" relative="1" as="geometry">
            <mxPoint x="770" y="840" as="sourcePoint" />
            <mxPoint x="770" y="590" as="targetPoint" />
            <Array as="points">
              <mxPoint x="390" y="490" />
              <mxPoint x="390" y="390" />
            </Array>
          </mxGeometry>
        </mxCell>
        <mxCell id="ypB30eQcN8WYW8XRluec-49" value="" style="endArrow=classic;html=1;rounded=0;exitX=0;exitY=0.5;exitDx=0;exitDy=0;entryX=0;entryY=0.5;entryDx=0;entryDy=0;" edge="1" parent="1" source="ypB30eQcN8WYW8XRluec-29" target="ypB30eQcN8WYW8XRluec-27">
          <mxGeometry width="50" height="50" relative="1" as="geometry">
            <mxPoint x="780" y="850" as="sourcePoint" />
            <mxPoint x="780" y="600" as="targetPoint" />
            <Array as="points">
              <mxPoint x="400" y="440" />
              <mxPoint x="400" y="390" />
            </Array>
          </mxGeometry>
        </mxCell>
        <mxCell id="ypB30eQcN8WYW8XRluec-53" value="" style="shape=image;verticalLabelPosition=bottom;labelBackgroundColor=default;verticalAlign=top;aspect=fixed;imageAspect=0;image=https://holomodular.com/img/logo/logo.png;" vertex="1" parent="1">
          <mxGeometry x="672" y="57.5" width="208" height="82" as="geometry" />
        </mxCell>
        <mxCell id="ypB30eQcN8WYW8XRluec-54" value="&lt;b&gt;&lt;i&gt;ServiceQuery.AzureDataTables&lt;/i&gt;&lt;/b&gt;" style="rounded=1;whiteSpace=wrap;html=1;fillColor=#b0e3e6;strokeColor=#0e8088;" vertex="1" parent="1">
          <mxGeometry x="795" y="250" width="280" height="40" as="geometry" />
        </mxCell>
        <mxCell id="ypB30eQcN8WYW8XRluec-55" value="" style="endArrow=classic;html=1;rounded=0;exitX=0.099;exitY=0.04;exitDx=0;exitDy=0;exitPerimeter=0;entryX=0.221;entryY=1.063;entryDx=0;entryDy=0;entryPerimeter=0;" edge="1" parent="1" source="ypB30eQcN8WYW8XRluec-6" target="ypB30eQcN8WYW8XRluec-54">
          <mxGeometry width="50" height="50" relative="1" as="geometry">
            <mxPoint x="910" y="630" as="sourcePoint" />
            <mxPoint x="960" y="580" as="targetPoint" />
          </mxGeometry>
        </mxCell>
        <mxCell id="ypB30eQcN8WYW8XRluec-56" value="" style="endArrow=classic;html=1;rounded=0;exitX=0;exitY=0;exitDx=0;exitDy=0;entryX=0.955;entryY=1.066;entryDx=0;entryDy=0;entryPerimeter=0;" edge="1" parent="1" source="ypB30eQcN8WYW8XRluec-5" target="XAPaqctXA7EIB3umuzVX-1">
          <mxGeometry width="50" height="50" relative="1" as="geometry">
            <mxPoint x="840" y="370" as="sourcePoint" />
            <mxPoint x="740" y="240" as="targetPoint" />
          </mxGeometry>
        </mxCell>
        <mxCell id="ypB30eQcN8WYW8XRluec-57" value="" style="endArrow=classic;html=1;rounded=0;exitX=0;exitY=0;exitDx=0;exitDy=0;entryX=0.901;entryY=1.066;entryDx=0;entryDy=0;entryPerimeter=0;" edge="1" parent="1" source="ypB30eQcN8WYW8XRluec-4" target="XAPaqctXA7EIB3umuzVX-1">
          <mxGeometry width="50" height="50" relative="1" as="geometry">
            <mxPoint x="850" y="380" as="sourcePoint" />
            <mxPoint x="750" y="250" as="targetPoint" />
          </mxGeometry>
        </mxCell>
        <mxCell id="ypB30eQcN8WYW8XRluec-58" value="" style="endArrow=classic;html=1;rounded=0;exitX=0.5;exitY=0;exitDx=0;exitDy=0;entryX=0.5;entryY=1;entryDx=0;entryDy=0;" edge="1" parent="1" source="ypB30eQcN8WYW8XRluec-54" target="ypB30eQcN8WYW8XRluec-7">
          <mxGeometry width="50" height="50" relative="1" as="geometry">
            <mxPoint x="1000" y="260" as="sourcePoint" />
            <mxPoint x="1050" y="210" as="targetPoint" />
          </mxGeometry>
        </mxCell>
        <mxCell id="ypB30eQcN8WYW8XRluec-59" value="" style="endArrow=classic;html=1;rounded=0;exitX=0;exitY=0.5;exitDx=0;exitDy=0;entryX=0;entryY=0.5;entryDx=0;entryDy=0;" edge="1" parent="1" source="ypB30eQcN8WYW8XRluec-31" target="ypB30eQcN8WYW8XRluec-27">
          <mxGeometry width="50" height="50" relative="1" as="geometry">
            <mxPoint x="450" y="500" as="sourcePoint" />
            <mxPoint x="450" y="400" as="targetPoint" />
            <Array as="points">
              <mxPoint x="380" y="540" />
              <mxPoint x="380" y="390" />
            </Array>
          </mxGeometry>
        </mxCell>
      </root>
    </mxGraphModel>
  </diagram>
</mxfile>
